<svg class="sprite" xmlns="http://www.w3.org/2000/svg" xmlns:xlink="http://www.w3.org/1999/xlink"><symbol viewBox="0 0 38 38" id="icon-close" xmlns="http://www.w3.org/2000/svg"><path d="m10.5 9 18.385 18.385-1.414 1.414L9.086 10.414z"/><path d="M28.8 10.5 10.415 28.885 9.001 27.47 27.386 9.086z"/></symbol><symbol viewBox="0 0 29 16" id="icon-menu" xmlns="http://www.w3.org/2000/svg"><path d="M7 0h22v2H7V0ZM0 7h29v2H0V7ZM15 14h14v2H15v-2Z"/></symbol><symbol viewBox="0 0 10 17" id="icon-next" xmlns="http://www.w3.org/2000/svg"><path d="M10 8.516 1.515 17 .1 15.587l7.07-7.071L.454 1.797 1.868.383 10 8.516Z"/></symbol><symbol viewBox="0 0 10 17" id="icon-prev" xmlns="http://www.w3.org/2000/svg"><path d="M0 8.484 8.485 0 9.9 1.413 2.83 8.484l6.718 6.719-1.415 1.414L0 8.484Z"/></symbol></svg>