<svg width="208" height="208" viewBox="0 0 208 208" fill="none" xmlns="http://www.w3.org/2000/svg">
<g clip-path="url(#clip0_158_835)">
<path d="M175.713 175.742C215.344 136.112 215.344 71.857 175.713 32.226C136.082 -7.40497 71.8276 -7.40497 32.1967 32.226C-7.43432 71.857 -7.43432 136.112 32.1967 175.742C71.8276 215.373 136.082 215.373 175.713 175.742Z" stroke="#BEC531" stroke-width="4" stroke-miterlimit="10"/>
<path d="M158.5 75.5267C158.5 118.077 103.965 171.478 103.965 171.478C103.965 171.478 49.4293 118.573 49.4293 75.5267C49.4293 45.387 73.8248 20.9915 103.965 20.9915C134.104 20.9915 158.5 45.387 158.5 75.5267Z" stroke="#365419" stroke-width="4" stroke-miterlimit="10" stroke-linecap="round" stroke-linejoin="round"/>
<path d="M103.965 103.823C118.417 103.823 130.133 92.1067 130.133 77.6543C130.133 63.2018 118.417 51.4858 103.965 51.4858C89.5122 51.4858 77.7961 63.2018 77.7961 77.6543C77.7961 92.1067 89.5122 103.823 103.965 103.823Z" stroke="#365419" stroke-width="4" stroke-miterlimit="10" stroke-linecap="round" stroke-linejoin="round"/>
<path d="M112.9 161.975C124.46 163.606 132.828 168.428 132.828 174.172C132.828 181.264 119.921 186.938 103.965 186.938C88.0082 186.938 75.1013 181.193 75.1013 174.172C75.1013 168.499 83.4695 163.677 94.9581 161.975" stroke="#365419" stroke-width="4" stroke-miterlimit="10" stroke-linecap="round" stroke-linejoin="round"/>
</g>
<defs>
<clipPath id="clip0_158_835">
<rect width="208" height="208" fill="white"/>
</clipPath>
</defs>
</svg>
