<svg width="43" height="157" viewBox="0 0 43 157" fill="none" xmlns="http://www.w3.org/2000/svg">
<path fill-rule="evenodd" clip-rule="evenodd" d="M0 0C5.93276 0 9.00551 1.91635 11.7987 3.66652L11.8192 3.67938C14.395 5.29332 16.697 6.73576 21.5 6.73576C26.3265 6.73576 28.6369 5.2881 31.2146 3.67299L31.2249 3.66652C34.0158 1.91777 37.0815 0 43 0V4C38.197 4 35.895 5.44244 33.3192 7.05638L33.2987 7.06924C30.5055 8.81941 27.4328 10.7358 21.5 10.7358C15.5815 10.7358 12.5158 8.81799 9.7249 7.06924L9.71458 7.06277C7.13694 5.44766 4.82654 4 0 4V0ZM0 29.1885C5.93276 29.1885 9.00551 31.1048 11.7987 32.855L11.8192 32.8679C14.395 34.4818 16.697 35.9242 21.5 35.9242C26.3265 35.9242 28.6369 34.4766 31.2146 32.8615L31.2249 32.855C34.0158 31.1062 37.0815 29.1885 43 29.1885V33.1885C38.197 33.1885 35.895 34.6309 33.3192 36.2449L33.2987 36.2577C30.5055 38.0079 27.4328 39.9242 21.5 39.9242C15.5815 39.9242 12.5158 38.0065 9.7249 36.2577L9.71459 36.2513C7.13694 34.6361 4.82654 33.1885 0 33.1885V29.1885ZM0 58.3769C5.93276 58.3769 9.00551 60.2932 11.7987 62.0434L11.8192 62.0563C14.395 63.6702 16.697 65.1126 21.5 65.1126C26.3265 65.1126 28.6369 63.665 31.2146 62.0499L31.2249 62.0434C34.0158 60.2946 37.0815 58.3769 43 58.3769V62.3769C38.197 62.3769 35.895 63.8193 33.3192 65.4333L33.2987 65.4461C30.5055 67.1963 27.4328 69.1126 21.5 69.1126C15.5815 69.1126 12.5158 67.1949 9.7249 65.4461L9.71459 65.4396C7.13694 63.8245 4.82654 62.3769 0 62.3769V58.3769ZM0 87.5646C5.93276 87.5646 9.00551 89.481 11.7987 91.2312L11.8192 91.244C14.395 92.858 16.697 94.3004 21.5 94.3004C26.3265 94.3004 28.6369 92.8528 31.2146 91.2376L31.2249 91.2312C34.0158 89.4824 37.0815 87.5646 43 87.5646V91.5646C38.197 91.5646 35.895 93.0071 33.3192 94.621L33.2987 94.6339C30.5055 96.3841 27.4328 98.3004 21.5 98.3004C15.5815 98.3004 12.5158 96.3826 9.7249 94.6339L9.71456 94.6274C7.13693 93.0123 4.82653 91.5646 0 91.5646V87.5646ZM0 116.753C5.93276 116.753 9.00551 118.669 11.7987 120.42L11.8192 120.432C14.395 122.046 16.697 123.489 21.5 123.489C26.3265 123.489 28.6369 122.041 31.2146 120.426L31.2249 120.42C34.0158 118.671 37.0815 116.753 43 116.753V120.753C38.197 120.753 35.895 122.195 33.3192 123.809L33.2987 123.822C30.5055 125.572 27.4328 127.489 21.5 127.489C15.5815 127.489 12.5158 125.571 9.7249 123.822L9.71456 123.816C7.13693 122.201 4.82653 120.753 0 120.753V116.753ZM0 145.941C5.93276 145.941 9.00551 147.858 11.7987 149.608L11.8193 149.621C14.395 151.235 16.697 152.677 21.5 152.677C26.3266 152.677 28.637 151.23 31.2146 149.614L31.2249 149.608C34.0158 147.859 37.0815 145.941 43 145.941V149.941C38.197 149.941 35.895 151.384 33.3193 152.998L33.2987 153.011C30.5055 154.761 27.4328 156.677 21.5 156.677C15.5815 156.677 12.5158 154.759 9.7249 153.011L9.71462 153.004C7.13696 151.389 4.82656 149.941 0 149.941V145.941Z" fill="#7A8C25"/></svg>