<svg width="16" height="16" viewBox="0 0 16 16" fill="none" xmlns="http://www.w3.org/2000/svg">
<path fill-rule="evenodd" clip-rule="evenodd" d="M13.46 3.87538C13.3308 3.55231 13.18 3.31539 12.9323 3.06769C12.6846 2.82 12.4585 2.66923 12.1246 2.54C11.8769 2.44308 11.5108 2.33538 10.8215 2.30308C10.0785 2.27077 9.86308 2.26 7.98923 2.26C7.75231 2.26 7.54769 2.26 7.36461 2.26C6.06154 2.26 5.81385 2.27077 5.16769 2.30308C4.48923 2.33538 4.11231 2.44308 3.86461 2.54C3.54154 2.66923 3.30462 2.82 3.05692 3.06769C2.80923 3.31539 2.65846 3.54154 2.52923 3.87538C2.43231 4.12308 2.32462 4.48923 2.29231 5.17846C2.26 5.91077 2.24923 6.13692 2.24923 8C2.24923 9.86308 2.26 10.0892 2.29231 10.8215C2.32462 11.5 2.43231 11.8769 2.52923 12.1246C2.65846 12.4477 2.80923 12.6846 3.05692 12.9323C3.30462 13.18 3.53077 13.3308 3.86461 13.46C4.11231 13.5569 4.47846 13.6646 5.16769 13.6969C5.91077 13.7292 6.12615 13.74 8 13.74C9.87385 13.74 10.0892 13.7292 10.8323 13.6969C11.5108 13.6646 11.8877 13.5569 12.1354 13.46C12.4585 13.3308 12.6954 13.18 12.9431 12.9323C13.1908 12.6846 13.3415 12.4585 13.4708 12.1246C13.5677 11.8769 13.6754 11.5108 13.7077 10.8215C13.74 10.0892 13.7508 9.86308 13.7508 8C13.7508 6.13692 13.74 5.91077 13.7077 5.17846C13.6646 4.48923 13.5569 4.12308 13.46 3.87538ZM8 11.5862C6.01846 11.5862 4.40308 9.98154 4.40308 8C4.40308 6.01846 6.00769 4.40308 8 4.40308C9.98154 4.40308 11.5969 6.00769 11.5969 8C11.5969 9.98154 9.98154 11.5862 8 11.5862ZM11.7369 5.10308C11.2738 5.10308 10.8969 4.72615 10.8969 4.26308C10.8969 3.8 11.2738 3.42308 11.7369 3.42308C12.2 3.42308 12.5769 3.8 12.5769 4.26308C12.5769 4.72615 12.2 5.10308 11.7369 5.10308ZM14.9569 10.8862C14.9246 11.6292 14.8062 12.1354 14.6338 12.5877C14.4508 13.0508 14.2138 13.4385 13.8262 13.8262C13.4385 14.2138 13.0508 14.4508 12.5877 14.6338C12.1462 14.8062 11.6292 14.9246 10.8862 14.9569C10.1431 14.9892 9.90615 15 8 15C6.09385 15 5.85692 14.9892 5.11385 14.9569C4.37077 14.9246 3.86462 14.8062 3.41231 14.6338C2.94923 14.4508 2.56154 14.2138 2.17385 13.8262C1.78615 13.4385 1.54923 13.0508 1.36615 12.5877C1.19385 12.1462 1.07538 11.64 1.04308 10.8862C1.01077 10.1431 1 9.90615 1 8C1 6.10462 1.01077 5.85692 1.04308 5.11385C1.07538 4.37077 1.19385 3.86462 1.36615 3.41231C1.54923 2.94923 1.78615 2.56154 2.17385 2.17385C2.56154 1.78615 2.94923 1.54923 3.41231 1.36615C3.85385 1.19385 4.37077 1.07538 5.11385 1.04308C5.85692 1.01077 6.09385 1 8 1C9.89538 1 10.1431 1.01077 10.8862 1.04308C11.6292 1.07538 12.1354 1.19385 12.5877 1.36615C13.0508 1.54923 13.4385 1.78615 13.8262 2.17385C14.2138 2.56154 14.4508 2.94923 14.6338 3.41231C14.8062 3.85385 14.9246 4.36 14.9569 5.11385C14.9892 5.85692 15 6.09385 15 8C15 9.90615 14.9892 10.1323 14.9569 10.8862ZM8 5.66308C6.70769 5.66308 5.66308 6.70769 5.66308 8C5.66308 9.29231 6.70769 10.3369 8 10.3369C9.29231 10.3369 10.3369 9.29231 10.3369 8C10.3369 6.70769 9.29231 5.66308 8 5.66308Z" fill="#365419"/>
</svg>
