<svg width="502" height="272" viewBox="0 0 502 272" fill="none" xmlns="http://www.w3.org/2000/svg">
<path fill-rule="evenodd" clip-rule="evenodd" d="M292.717 11.8526C286.088 18.0254 282.467 26.905 282.467 37.7778C282.467 48.6506 286.088 57.5301 292.717 63.7029C299.361 69.8891 309.243 73.5556 322.123 73.5556H379.033V80.4201C366.032 88.8494 353.134 97.4697 340.016 105.714C339.638 105.951 338.684 106.569 337.404 107.527C335.693 108.807 333.415 110.682 331.143 113.062C326.558 117.865 322.23 124.474 322.23 132.222C322.23 139.254 324.86 145.313 329.62 149.63C334.392 153.957 341.455 156.667 350.525 156.667H384.607C395.295 156.667 403.346 159.087 408.775 163.213C414.255 167.379 416.902 173.169 416.902 179.444C416.902 185.742 414.233 191.561 408.231 195.726C402.322 199.828 393.339 202.222 380.82 202.222C363.118 202.222 353.215 195.287 344.133 188.611C343.891 188.434 343.65 188.256 343.409 188.079C334.689 181.661 326.695 175.778 312.656 175.778C298.733 175.778 288.858 179.022 282.487 184.545C276.162 190.028 273 198.011 273 208.156C273 220.28 281.897 235.706 300.062 248.205C318.145 260.648 345.191 268 380.82 268C420.246 268 450.064 259.7 469.982 243.758C489.877 227.834 498 206.207 498 183.222C498 151.13 481.698 133.286 463.186 123.36C453.909 118.386 444.612 115.426 437.62 113.712C434.128 112.855 431.223 112.312 429.197 111.984C427.557 111.718 425.914 111.531 424.262 111.366V104.706L470.596 73.8911L470.597 73.8902C474.685 71.1398 478.353 67.5826 481.549 63.8633C487.078 57.4281 492.426 48.4337 492.426 37.7778C492.426 26.905 488.806 18.0254 482.176 11.8526C475.532 5.66647 465.65 4 452.77 4H322.123C309.243 4 299.361 5.66647 292.717 11.8526ZM472.814 77.22C477.215 74.2977 481.158 70.4554 484.583 66.4701C490.414 59.6831 496.426 49.7886 496.426 37.7778C496.426 25.9839 492.473 15.9746 484.902 8.92514C477.345 1.88908 466.399 0 452.77 0H322.123C308.495 0 297.548 1.88908 289.992 8.92514C282.42 15.9746 278.467 25.9839 278.467 37.7778C278.467 49.5717 282.42 59.581 289.992 66.6304C297.548 73.6665 308.495 77.5556 322.123 77.5556H375.033V78.2466C362.656 86.2718 350.376 94.4777 337.887 102.327C337.432 102.613 336.39 103.29 335.007 104.324C333.168 105.7 330.712 107.721 328.25 110.3C323.369 115.413 318.23 122.97 318.23 132.222C318.23 140.302 321.279 147.465 326.933 152.593C332.575 157.709 340.659 160.667 350.525 160.667H384.607C394.746 160.667 401.842 162.968 406.354 166.398C410.814 169.788 412.902 174.387 412.902 179.444C412.902 184.48 410.837 189.05 405.951 192.44C400.973 195.895 392.916 198.222 380.82 198.222C364.439 198.222 355.408 191.935 346.502 185.389C346.217 185.179 345.932 184.969 345.647 184.759C336.944 178.35 328.021 171.778 312.656 171.778C298.177 171.778 287.224 175.145 279.867 181.522C272.465 187.939 269 197.145 269 208.156C269 222.098 279.037 238.594 297.795 251.5C316.634 264.463 344.497 272 380.82 272C420.918 272 451.69 263.522 472.481 246.881C493.295 230.222 502 207.46 502 183.222C502 149.204 484.433 130.214 465.076 119.835C455.419 114.656 445.782 111.595 438.573 109.827C433.943 108.691 430.299 108.085 428.262 107.795V106.85L472.812 77.2209L472.814 77.22Z" fill="#DFE298"/>
<path fill-rule="evenodd" clip-rule="evenodd" d="M52.6014 66.6627L51.2112 68.1006L49.8135 66.67C50.5877 65.9136 51.8233 65.9103 52.6014 66.6627ZM51.2181 70.9346C51.3057 71.0238 51.3971 71.117 51.4921 71.2142C52.5665 72.3135 54.1057 73.9228 55.9548 75.9533C59.6549 80.0165 64.5852 85.7545 69.5109 92.4567C79.4469 105.976 89.0338 122.983 89.0338 137.966C89.0338 147.661 85.3321 156.545 79.2973 163.245C78.558 164.066 78.6241 165.33 79.4448 166.069C80.2655 166.809 81.5301 166.743 82.2694 165.922C88.9342 158.522 93.0338 148.696 93.0338 137.966C93.0338 121.586 82.7094 103.661 72.7341 90.0878C67.7042 83.244 62.6788 77.3962 58.9122 73.26C57.0279 71.1908 55.456 69.5471 54.3526 68.4183C53.8009 67.8538 53.3661 67.4178 53.0678 67.1215C52.9186 66.9734 52.8035 66.8602 52.725 66.7832L52.6349 66.6952L52.611 66.672L52.6025 66.6637C52.6025 66.6637 52.6014 66.6627 51.2112 68.1006C49.8135 66.67 49.8125 66.671 49.8125 66.671L49.804 66.6793L49.7802 66.7028L49.6902 66.7915C49.6118 66.8692 49.4968 66.9835 49.3477 67.133C49.0496 67.432 48.615 67.872 48.0634 68.4416C46.9604 69.5805 45.389 71.2382 43.5051 73.3229C39.7394 77.4901 34.7151 83.3752 29.6863 90.2432C24.6614 97.1059 19.605 104.987 15.7986 113.144C12 121.285 9.38871 129.822 9.38871 137.966C9.38871 160.995 28.1159 179.643 51.2112 179.643C56.302 179.643 61.1638 178.743 65.6497 177.078C66.6853 176.694 67.2134 175.543 66.8292 174.508C66.445 173.472 65.2941 172.944 64.2585 173.328C60.2174 174.827 55.8267 175.643 51.2112 175.643C30.3113 175.643 13.3887 158.772 13.3887 137.966C13.3887 130.631 15.7552 122.697 19.4234 114.836C23.0837 106.991 27.9829 99.3404 32.9137 92.6063C37.8405 85.8775 42.7718 80.1004 46.4729 76.0048C48.3224 73.9581 49.862 72.3341 50.9368 71.2243C51.0345 71.1235 51.1283 71.0269 51.2181 70.9346Z" fill="#DFE298"/>
<path fill-rule="evenodd" clip-rule="evenodd" d="M81.8719 167.035C72.3987 167.035 64.7316 174.685 64.7316 184.106C64.7316 193.526 72.3987 201.176 81.8719 201.176C91.345 201.176 99.0121 193.526 99.0121 184.106C99.0121 174.685 91.345 167.035 81.8719 167.035ZM60.7316 184.106C60.7316 172.462 70.2033 163.035 81.8719 163.035C93.5404 163.035 103.012 172.462 103.012 184.106C103.012 195.749 93.5404 205.176 81.8719 205.176C70.2033 205.176 60.7316 195.749 60.7316 184.106Z" fill="#DFE298"/>
<path fill-rule="evenodd" clip-rule="evenodd" d="M116.19 105.865C116.498 104.804 117.607 104.194 118.668 104.501C153.581 114.624 179.029 142.504 179.029 175.7C179.029 217.613 138.599 251 89.537 251C40.4755 251 0 217.568 0 175.7C0 163.614 3.37417 152.192 9.39695 142.051C9.96099 141.101 11.1881 140.788 12.1378 141.352C13.0875 141.916 13.4002 143.144 12.8361 144.093C7.15709 153.656 4 164.377 4 175.7C4 214.723 41.9903 247 89.537 247C137.083 247 175.029 214.769 175.029 175.7C175.029 144.724 151.22 118.104 117.554 108.343C116.493 108.035 115.883 106.926 116.19 105.865Z" fill="#DFE298"/>
<path fill-rule="evenodd" clip-rule="evenodd" d="M130.879 105.933C131.175 104.869 132.277 104.245 133.341 104.54C175.098 116.125 205.653 151.014 205.653 192.466C205.653 214.427 197.046 234.553 182.776 250.341C182.035 251.161 180.77 251.224 179.951 250.484C179.132 249.743 179.068 248.478 179.808 247.659C193.477 232.536 201.653 213.346 201.653 192.466C201.653 153.116 172.609 119.586 132.272 108.395C131.208 108.1 130.584 106.997 130.879 105.933Z" fill="#DFE298"/>
<path fill-rule="evenodd" clip-rule="evenodd" d="M96.9753 21C97.7189 21 98.4011 21.4125 98.7465 22.0711L123.964 70.1543C124.29 70.7742 124.267 71.5191 123.905 72.1181C123.542 72.7172 122.893 73.0832 122.193 73.0832H113.343L129.68 104.274C130.005 104.894 129.982 105.639 129.619 106.238C129.257 106.837 128.608 107.202 127.908 107.202H119.784L139.93 145.669C140.255 146.289 140.232 147.034 139.87 147.633C139.507 148.231 138.858 148.597 138.159 148.597H90.0812C88.9767 148.597 88.0812 147.702 88.0812 146.597C88.0812 145.493 88.9767 144.597 90.0812 144.597H134.853L114.707 106.13C114.382 105.51 114.405 104.766 114.767 104.167C115.13 103.568 115.779 103.202 116.478 103.202H124.603L108.266 72.0111C107.941 71.3912 107.964 70.6466 108.327 70.0478C108.689 69.449 109.338 69.0832 110.038 69.0832H118.886L96.9753 27.3061L75.0647 69.0832H83.9582C84.6586 69.0832 85.3079 69.4496 85.6701 70.049C86.0322 70.6485 86.0544 71.3938 85.7285 72.0137L74.2081 93.9314C73.6942 94.9091 72.485 95.2851 71.5072 94.7712C70.5295 94.2572 70.1535 93.048 70.6674 92.0703L80.6475 73.0832H71.7574C71.0574 73.0832 70.4083 72.7172 70.046 72.1181C69.6838 71.5191 69.6611 70.7742 69.9862 70.1543L95.2041 22.0711C95.5495 21.4125 96.2317 21 96.9753 21Z" fill="#DFE298"/>
<path fill-rule="evenodd" clip-rule="evenodd" d="M51.2112 156.166C52.3158 156.166 53.2112 157.062 53.2112 158.166V203.176C53.2112 204.281 52.3158 205.176 51.2112 205.176C50.1066 205.176 49.2112 204.281 49.2112 203.176V158.166C49.2112 157.062 50.1066 156.166 51.2112 156.166Z" fill="#DFE298"/>
<path fill-rule="evenodd" clip-rule="evenodd" d="M96.9754 114.455C98.08 114.455 98.9754 115.35 98.9754 116.455V161.465C98.9754 162.569 98.08 163.465 96.9754 163.465C95.8708 163.465 94.9754 162.569 94.9754 161.465V116.455C94.9754 115.35 95.8708 114.455 96.9754 114.455Z" fill="#DFE298"/>
</svg>
