<svg width="502" height="272" viewBox="0 0 502 272" fill="none" xmlns="http://www.w3.org/2000/svg">
<path fill-rule="evenodd" clip-rule="evenodd" d="M356.79 80.8991C356.687 81.0052 356.532 81.1662 356.332 81.3783C355.934 81.8027 355.359 82.431 354.666 83.2337C353.28 84.8413 351.431 87.1378 349.585 89.8888C345.85 95.4561 342.32 102.602 342.32 109.556C342.32 127.336 356.624 141.556 374.528 141.556C385.371 141.556 394.472 137.064 400.926 132.482C404.145 130.198 406.675 127.913 408.396 126.202C409.685 124.921 410.516 123.968 410.835 123.591C411.091 123.288 411.335 122.975 411.583 122.667H418.358V234.222C418.358 245.095 421.993 253.975 428.649 260.148C435.319 266.334 445.24 268 458.17 268C471.101 268 481.022 266.334 487.692 260.148C494.348 253.975 497.983 245.095 497.983 234.222V37.7778C497.983 26.9048 494.348 18.0252 487.692 11.8524C481.022 5.66638 471.101 4 458.17 4C445.307 4 435.205 6.10597 428.312 10.2159C424.864 12.2713 422.227 14.3236 420.459 15.8533C419.576 16.6177 418.911 17.2502 418.474 17.6852C418.255 17.9027 418.093 18.0707 417.988 18.181C397.901 39.3961 377.172 59.971 356.79 80.8991ZM413.475 126.667C412.991 127.215 412.238 128.036 411.234 129.034C409.391 130.865 406.693 133.302 403.258 135.74C396.406 140.603 386.498 145.556 374.528 145.556C354.414 145.556 338.303 129.553 338.303 109.556C338.303 101.398 342.376 93.4328 346.245 87.6668C348.201 84.7511 350.154 82.3253 351.619 80.6274C352.352 79.7774 352.965 79.1071 353.399 78.646C353.615 78.4154 353.787 78.237 353.906 78.1144C374.277 57.1992 394.99 36.6412 415.065 15.4372C415.197 15.2984 415.387 15.1012 415.636 14.8538C416.134 14.3592 416.866 13.6636 417.824 12.8342C419.739 11.1764 422.567 8.97873 426.248 6.78406C433.612 2.39403 444.42 0 458.17 0C471.853 0 482.843 1.88918 490.43 8.92536C498.031 15.9749 502 25.9841 502 37.7778V234.222C502 246.016 498.031 256.025 490.43 263.075C482.843 270.111 471.853 272 458.17 272C444.488 272 433.498 270.111 425.911 263.075C418.31 256.025 414.341 246.016 414.341 234.222V126.667H413.475Z" fill="#DFE298"/>
<path fill-rule="evenodd" clip-rule="evenodd" d="M17.8106 42.8037C17.8106 41.6991 18.7099 40.8037 19.8192 40.8037H207.84C208.949 40.8037 209.849 41.6991 209.849 42.8037V230.024C209.849 231.128 208.949 232.024 207.84 232.024H19.8192C18.7099 232.024 17.8106 231.128 17.8106 230.024V42.8037ZM21.8277 44.8037V228.024H205.831V44.8037H21.8277Z" fill="#DFE298"/>
<path fill-rule="evenodd" clip-rule="evenodd" d="M0 25.0691C0 23.9645 0.899261 23.0691 2.00856 23.0691H36.858C37.9673 23.0691 38.8666 23.9645 38.8666 25.0691V59.7701C38.8666 60.8747 37.9673 61.7701 36.858 61.7701H2.00856C0.899261 61.7701 0 60.8747 0 59.7701V25.0691ZM4.01711 27.0691V57.7701H34.8495V27.0691H4.01711Z" fill="#DFE298"/>
<path fill-rule="evenodd" clip-rule="evenodd" d="M187.961 25.0691C187.961 23.9645 188.861 23.0691 189.97 23.0691H224.819C225.929 23.0691 226.828 23.9645 226.828 25.0691V59.7701C226.828 60.8747 225.929 61.7701 224.819 61.7701H189.97C188.861 61.7701 187.961 60.8747 187.961 59.7701V25.0691ZM191.979 27.0691V57.7701H222.811V27.0691H191.979Z" fill="#DFE298"/>
<path fill-rule="evenodd" clip-rule="evenodd" d="M0 212.23C0 211.125 0.899261 210.23 2.00856 210.23H36.858C37.9673 210.23 38.8666 211.125 38.8666 212.23V246.931C38.8666 248.036 37.9673 248.931 36.858 248.931H2.00856C0.899261 248.931 0 248.036 0 246.931V212.23ZM4.01711 214.23V244.931H34.8495V214.23H4.01711Z" fill="#DFE298"/>
<path fill-rule="evenodd" clip-rule="evenodd" d="M187.961 212.23C187.961 211.125 188.861 210.23 189.97 210.23H224.819C225.929 210.23 226.828 211.125 226.828 212.23V246.931C226.828 248.036 225.929 248.931 224.819 248.931H189.97C188.861 248.931 187.961 248.036 187.961 246.931V212.23ZM191.979 214.23V244.931H222.811V214.23H191.979Z" fill="#DFE298"/>
<path fill-rule="evenodd" clip-rule="evenodd" d="M113.986 62.1716L188.632 136.5L113.986 210.828L39.3391 136.5L113.986 62.1716ZM45.0202 136.5L113.986 205.172L182.951 136.5L113.986 67.8284L45.0202 136.5Z" fill="#DFE298"/>
</svg>
