<svg width="502" height="272" viewBox="0 0 502 272" fill="none" xmlns="http://www.w3.org/2000/svg">
<path fill-rule="evenodd" clip-rule="evenodd" d="M408.525 69.3579C397.941 69.3579 389.361 77.9376 389.361 88.521C389.361 99.1045 397.941 107.684 408.525 107.684C419.109 107.684 427.689 99.1045 427.689 88.521C427.689 77.9376 419.109 69.3579 408.525 69.3579ZM385.361 88.521C385.361 75.7283 395.732 65.3579 408.525 65.3579C421.318 65.3579 431.689 75.7283 431.689 88.521C431.689 101.314 421.318 111.684 408.525 111.684C395.732 111.684 385.361 101.314 385.361 88.521Z" fill="#DFE298"/>
<path fill-rule="evenodd" clip-rule="evenodd" d="M379.394 117.608C379.394 116.503 380.289 115.608 381.394 115.608H435.606C436.711 115.608 437.606 116.503 437.606 117.608V128.139C437.606 129.244 436.711 130.139 435.606 130.139H429.883V236.469H435.606C436.711 236.469 437.606 237.364 437.606 238.469V249C437.606 250.105 436.711 251 435.606 251H381.394C380.289 251 379.394 250.105 379.394 249V238.469C379.394 237.364 380.289 236.469 381.394 236.469H387.117V130.139H381.394C380.289 130.139 379.394 129.244 379.394 128.139V117.608ZM383.394 119.608V126.139H389.117C390.221 126.139 391.117 127.035 391.117 128.139V238.469C391.117 239.573 390.221 240.469 389.117 240.469H383.394V247H433.606V240.469H427.883C426.779 240.469 425.883 239.573 425.883 238.469V128.139C425.883 127.035 426.779 126.139 427.883 126.139H433.606V119.608H383.394Z" fill="#DFE298"/>
<path fill-rule="evenodd" clip-rule="evenodd" d="M408.525 25.4268C359.078 25.4268 319 65.5036 319 114.95C319 157.869 349.216 193.729 389.538 202.412C390.618 202.644 391.304 203.708 391.072 204.788C390.839 205.868 389.776 206.554 388.696 206.322C346.57 197.251 315 159.793 315 114.95C315 63.2944 356.869 21.4268 408.525 21.4268C460.183 21.4268 502 63.2958 502 114.95C502 159.793 470.43 197.25 428.307 206.372C427.227 206.605 426.162 205.92 425.929 204.84C425.695 203.761 426.38 202.696 427.46 202.462C467.784 193.73 498 157.869 498 114.95C498 65.5022 457.971 25.4268 408.525 25.4268Z" fill="#DFE298"/>
<path fill-rule="evenodd" clip-rule="evenodd" d="M117.516 14.7483C105.258 22.9756 95.1572 34.9363 83.7727 50.016C61.3076 79.7706 39.2108 109.849 16.3534 139.303C15.6344 140.229 12.4274 144.478 9.23432 150.45C5.55914 157.324 4 166.292 4 175.123C4 185.841 5.56892 194.591 12.1018 200.673C18.6491 206.769 28.3888 210.384 41.0882 210.384H136.471V234.74C136.471 245.457 140.039 254.207 146.572 260.29C153.12 266.385 162.859 268 175.559 268C188.258 268 197.998 266.385 204.545 260.29C211.078 254.207 214.647 245.457 214.647 234.74V210.384C224.812 210.384 234.881 208.137 242.315 200.721C248.426 194.626 252 185.845 252 175.123C252 164.401 248.426 155.621 242.315 149.526C234.881 142.11 224.812 139.863 214.647 139.863V48.4384C214.647 23.5607 193.233 4 164.353 4C144.148 4 129.701 6.5697 117.516 14.7483ZM80.5803 47.6059C91.981 32.5048 102.424 20.06 115.286 11.427C128.221 2.74537 143.47 0 164.353 0C195.237 0 218.647 21.1516 218.647 48.4384V135.902C229.435 136.322 238.579 140.149 245.14 146.694C252.103 153.639 256 163.489 256 175.123C256 186.757 252.103 196.607 245.14 203.553C238.579 210.098 229.435 213.925 218.647 214.345V234.74C218.647 246.378 214.745 256.258 207.271 263.217C199.811 270.163 189.006 272 175.559 272C162.111 272 151.307 270.163 143.847 263.217C136.372 256.258 132.471 246.378 132.471 234.74V214.384H41.0882C27.6406 214.384 16.8362 210.546 9.37615 203.601C1.90167 196.642 0 186.762 0 175.123C0 165.324 1.91145 155.663 5.70685 148.564C8.57255 143.204 11.4296 139.196 12.698 137.501C35.1947 107.447 57.9576 77.5686 80.5803 47.6059ZM129.755 91.1507H136.471V139.863H96.9853V133.453L129.755 91.1507ZM131.716 95.1507L100.985 134.821V135.863H132.471V95.1507H131.716Z" fill="#DFE298"/>
</svg>
