<svg width="16" height="16" viewBox="0 0 16 16" fill="none" xmlns="http://www.w3.org/2000/svg">
<path fill-rule="evenodd" clip-rule="evenodd" d="M13.9917 3.95699C13.8123 5.89132 13.0348 10.5846 12.636 12.7429C12.4666 13.6592 12.1376 13.9646 11.8186 13.9952C11.1208 14.0562 10.5925 13.5269 9.92463 13.0789C8.86798 12.3764 8.27984 11.9387 7.2531 11.2464C6.06686 10.4523 6.83442 10.0145 7.51228 9.30186C7.69171 9.11861 10.752 6.26801 10.8118 6.01349C10.8218 5.98295 10.8218 5.86078 10.752 5.79969C10.6822 5.73861 10.5825 5.75897 10.5028 5.77933C10.3931 5.79969 8.71845 6.93993 5.45878 9.18987C4.9803 9.52583 4.55166 9.68873 4.16289 9.67855C3.73425 9.66836 2.91684 9.43421 2.2988 9.23059C1.55117 8.98626 0.953062 8.85391 1.0029 8.42632C1.03281 8.20234 1.33186 7.97837 1.89009 7.74421C5.37904 6.19674 7.70168 5.16849 8.86798 4.66964C12.1875 3.25452 12.8852 3.01018 13.3338 3C13.4335 3 13.6528 3.02036 13.8023 3.14253C13.922 3.24434 13.9519 3.37669 13.9718 3.47849C13.9917 3.5803 14.0117 3.7941 13.9917 3.95699Z" fill="#365419"/>
</svg>
