<svg width="502" height="272" viewBox="0 0 502 272" fill="none" xmlns="http://www.w3.org/2000/svg">
<path fill-rule="evenodd" clip-rule="evenodd" d="M114 194.464V190.81C114.423 190.541 114.849 190.273 115.279 190.008C125.57 183.646 137.657 178.399 149.954 173.06C185.857 157.472 223.547 141.109 223.547 93.979C223.547 44.6501 183.38 4.45609 110.348 4.45609C46.4461 4.45609 9.93047 37.7075 9.93047 66.9395C9.93047 87.0364 22.7109 99.46 50.0977 99.46C64.9396 99.46 73.1834 92.8576 81.2942 86.3616C89.1474 80.0719 96.876 73.882 110.348 73.882C130.432 73.882 139.561 83.017 139.561 93.979C139.561 107.217 119.912 116.47 95.6002 127.917C56.1615 146.488 4.45312 170.837 4.45312 227.35C4.45312 249.274 22.7109 267.544 48.2719 267.544H183.38C208.941 267.544 223.547 252.563 223.547 231.004C223.547 209.08 208.941 194.464 183.38 194.464H114ZM124.191 190.008C132.05 185.756 140.762 181.912 149.836 177.969C150.488 177.686 151.141 177.402 151.796 177.118C163.281 172.132 175.237 166.942 186.075 160.634C197.559 153.95 208.076 145.855 215.713 135.064C223.403 124.198 228 110.843 228 93.979C228 68.0326 217.403 44.3962 197.209 27.3159C177.059 10.2733 147.662 0 110.348 0C77.6446 0 51.6111 8.50868 33.6256 21.0829C15.719 33.602 5.47734 50.4376 5.47734 66.9395C5.47734 77.9771 9.02718 87.4826 16.8634 94.1343C24.5801 100.685 35.8116 103.916 50.0977 103.916C66.3362 103.916 75.5961 96.6298 83.6896 90.1507L83.8523 90.0204C91.7906 83.665 98.4443 78.3381 110.348 78.3381C119.776 78.3381 126.015 80.4884 129.787 83.3643C133.444 86.1524 135.108 89.8502 135.108 93.979C135.108 96.7214 133.814 99.5662 130.605 102.78C127.359 106.032 122.52 109.28 116.299 112.715C110.113 116.131 102.856 119.574 94.9154 123.315C94.5066 123.508 94.0961 123.701 93.684 123.895C86.1361 127.449 78.0478 131.258 69.9517 135.473C36.0287 153.133 0 178.917 0 227.35C0 251.986 20.5097 272 48.2719 272H183.38C197.025 272 208.249 267.989 216.099 260.605C223.971 253.201 228 242.822 228 231.004C228 219.019 223.98 208.627 216.087 201.255C208.225 193.912 196.996 190.008 183.38 190.008H124.191Z" fill="#DFE298"/>
<path fill-rule="evenodd" clip-rule="evenodd" d="M393.478 66.8332C372.985 66.8332 356.378 83.4454 356.378 103.949C356.378 118.712 365.787 135.473 375.542 148.799C380.377 155.405 385.217 161.061 388.85 165.066C390.665 167.068 392.176 168.654 393.231 169.737C393.314 169.823 393.394 169.905 393.471 169.984C393.55 169.902 393.633 169.816 393.718 169.728C394.773 168.634 396.285 167.033 398.101 165.016C401.734 160.979 406.575 155.284 411.412 148.652C416.252 142.014 421.062 134.473 424.654 126.742C428.255 118.994 430.578 111.175 430.578 103.949C430.578 83.4454 413.971 66.8332 393.478 66.8332ZM393.478 172.824C392.085 174.259 392.084 174.258 392.084 174.258L392.082 174.256L392.075 174.25L392.052 174.227L391.963 174.14C391.886 174.064 391.773 173.952 391.627 173.806C391.333 173.514 390.906 173.084 390.365 172.528C389.281 171.415 387.737 169.794 385.887 167.754C382.188 163.676 377.253 157.91 372.314 151.162C362.519 137.78 352.378 120.103 352.378 103.949C352.378 81.2378 370.774 62.8332 393.478 62.8332C416.181 62.8332 434.578 81.2378 434.578 103.949C434.578 111.981 432.012 120.401 428.282 128.428C424.544 136.472 419.578 144.242 414.644 151.009C409.705 157.78 404.772 163.583 401.074 167.692C399.224 169.747 397.681 171.382 396.597 172.505C396.056 173.066 395.629 173.5 395.336 173.795C395.19 173.942 395.077 174.055 395 174.132L394.911 174.219L394.888 174.242L394.879 174.251C394.879 174.251 394.878 174.252 393.478 172.824ZM393.478 172.824L394.878 174.252C394.103 175.012 392.864 175.015 392.085 174.259L393.478 172.824Z" fill="#DFE298"/>
<path fill-rule="evenodd" clip-rule="evenodd" d="M393.478 88.6628C384.204 88.6628 376.685 96.1838 376.685 105.463C376.685 114.742 384.204 122.263 393.478 122.263C402.751 122.263 410.271 114.742 410.271 105.463C410.271 96.1838 402.751 88.6628 393.478 88.6628ZM372.685 105.463C372.685 93.9762 381.993 84.6628 393.478 84.6628C404.962 84.6628 414.271 93.9762 414.271 105.463C414.271 116.95 404.962 126.263 393.478 126.263C381.993 126.263 372.685 116.95 372.685 105.463Z" fill="#DFE298"/>
<path fill-rule="evenodd" clip-rule="evenodd" d="M402.401 21.0372C403.485 20.8248 404.535 21.5314 404.748 22.6154L408.796 43.2752H427.991C429.095 43.2752 429.991 44.1706 429.991 45.2752C429.991 46.3798 429.095 47.2752 427.991 47.2752H407.149C406.193 47.2752 405.371 46.5982 405.187 45.6597L400.822 23.3844C400.61 22.3005 401.317 21.2496 402.401 21.0372Z" fill="#DFE298"/>
<path fill-rule="evenodd" clip-rule="evenodd" d="M407.831 55.2313C408.211 54.7694 408.778 54.5019 409.376 54.5019H431.152C432.257 54.5019 433.152 55.3973 433.152 56.5019C433.152 57.6064 432.257 58.5019 431.152 58.5019H411.807L413.877 69.036C414.09 70.1198 413.384 71.1711 412.3 71.384C411.216 71.597 410.165 70.891 409.952 69.8071L407.413 56.8874C407.298 56.3007 407.452 55.6931 407.831 55.2313Z" fill="#DFE298"/>
<path fill-rule="evenodd" clip-rule="evenodd" d="M430.578 105.107C430.578 104.002 431.473 103.107 432.578 103.107H457.382C458.487 103.107 459.382 104.002 459.382 105.107C459.382 106.211 458.487 107.107 457.382 107.107H432.578C431.473 107.107 430.578 106.211 430.578 105.107Z" fill="#DFE298"/>
<path fill-rule="evenodd" clip-rule="evenodd" d="M425.234 125.912C425.234 124.807 426.129 123.912 427.234 123.912H463.216C464.321 123.912 465.216 124.807 465.216 125.912C465.216 127.017 464.321 127.912 463.216 127.912H427.234C426.129 127.912 425.234 127.017 425.234 125.912Z" fill="#DFE298"/>
<path fill-rule="evenodd" clip-rule="evenodd" d="M423.864 130.097C424.947 129.884 425.999 130.59 426.212 131.674L434.4 173.274H491.004C492.109 173.274 493.004 174.169 493.004 175.274C493.004 176.378 492.109 177.274 491.004 177.274H432.756C431.8 177.274 430.978 176.598 430.793 175.66L422.287 132.446C422.074 131.362 422.78 130.311 423.864 130.097Z" fill="#DFE298"/>
<path fill-rule="evenodd" clip-rule="evenodd" d="M437.49 205.768C437.87 205.306 438.437 205.039 439.035 205.039H499.911C501.016 205.039 501.911 205.934 501.911 207.039C501.911 208.143 501.016 209.039 499.911 209.039H441.467L449.28 248.708C449.494 249.792 448.788 250.843 447.704 251.057C446.621 251.27 445.569 250.565 445.356 249.481L437.072 207.425C436.957 206.838 437.11 206.23 437.49 205.768Z" fill="#DFE298"/>
<path fill-rule="evenodd" clip-rule="evenodd" d="M285 207.039C285 205.934 285.895 205.039 287 205.039H347.921C348.519 205.039 349.086 205.306 349.466 205.768C349.845 206.23 349.999 206.838 349.883 207.425L341.6 249.481C341.387 250.565 340.335 251.27 339.251 251.057C338.167 250.843 337.462 249.792 337.675 248.708L345.488 209.039H287C285.895 209.039 285 208.143 285 207.039Z" fill="#DFE298"/>
<path fill-rule="evenodd" clip-rule="evenodd" d="M363.049 130.231C364.132 130.445 364.837 131.497 364.623 132.581L356.118 175.661C355.932 176.599 355.111 177.274 354.155 177.274H295.907C294.802 177.274 293.907 176.379 293.907 175.274C293.907 174.169 294.802 173.274 295.907 173.274H352.512L360.699 131.806C360.913 130.722 361.965 130.017 363.049 130.231Z" fill="#DFE298"/>
<path fill-rule="evenodd" clip-rule="evenodd" d="M321.695 125.912C321.695 124.807 322.59 123.912 323.695 123.912H359.633C360.738 123.912 361.633 124.807 361.633 125.912C361.633 127.017 360.738 127.912 359.633 127.912H323.695C322.59 127.912 321.695 127.017 321.695 125.912Z" fill="#DFE298"/>
<path fill-rule="evenodd" clip-rule="evenodd" d="M327.529 105.107C327.529 104.002 328.424 103.107 329.529 103.107H354.378C355.483 103.107 356.378 104.002 356.378 105.107C356.378 106.211 355.483 107.107 354.378 107.107H329.529C328.424 107.107 327.529 106.211 327.529 105.107Z" fill="#DFE298"/>
<path fill-rule="evenodd" clip-rule="evenodd" d="M353.803 56.5019C353.803 55.3973 354.699 54.5019 355.803 54.5019H377.535C378.133 54.5019 378.7 54.7694 379.08 55.2313C379.459 55.6931 379.613 56.3007 379.498 56.8874L376.959 69.8071C376.746 70.891 375.695 71.597 374.611 71.384C373.527 71.1711 372.821 70.1198 373.034 69.036L375.104 58.5019H355.803C354.699 58.5019 353.803 57.6064 353.803 56.5019Z" fill="#DFE298"/>
<path fill-rule="evenodd" clip-rule="evenodd" d="M384.559 21.038C385.642 21.2524 386.347 22.3047 386.132 23.3882L381.724 45.6635C381.538 46.6002 380.717 47.2752 379.762 47.2752H358.92C357.816 47.2752 356.92 46.3798 356.92 45.2752C356.92 44.1706 357.816 43.2752 358.92 43.2752H378.119L382.208 22.6116C382.423 21.528 383.475 20.8235 384.559 21.038Z" fill="#DFE298"/>
</svg>
