<svg width="118" height="118" viewBox="0 0 118 118" fill="none" xmlns="http://www.w3.org/2000/svg">
<path d="M39.9592 1.92041H1.92572V115.754H39.9592V1.92041Z" fill="white"/>
<path d="M116.026 1.92041H77.9926V115.754H116.026V1.92041Z" fill="white"/>
<path d="M19.7886 40.3612L19.7886 78.2896H95.1334V40.3612L19.7886 40.3612Z" fill="white"/>
<path d="M116.074 117.674H78.0408C76.9816 117.674 76.1151 116.81 76.1151 115.754V105.287C76.1151 104.231 76.9816 103.367 78.0408 103.367H90.3174V87.0912C90.3174 86.371 90.7026 85.6989 91.3766 85.3628L105.29 78.2092C106.253 77.7291 107.408 78.1132 107.89 79.0254C108.371 79.9376 107.986 81.1379 107.071 81.618L94.217 88.2435V105.287C94.217 106.343 93.3505 107.208 92.2913 107.208H79.9184V113.833H114.1V77.9212C107.601 77.4891 103.942 75.0405 100.668 72.832C97.2501 70.5275 94.0245 68.3671 87.4769 68.3671C80.9294 68.3671 77.7038 70.5275 74.2856 72.832C70.723 75.2326 66.6789 77.9692 58.9278 77.9692C51.2248 77.9692 47.1326 75.2326 43.57 72.832C40.1518 70.5275 36.9261 68.3671 30.3786 68.3671C23.8311 68.3671 20.6055 70.5275 17.1873 72.832C13.9135 75.0405 10.2546 77.4891 3.7552 77.9212V113.833H19.0649V91.7482C19.0649 90.692 19.9315 89.8278 20.9906 89.8278C22.0498 89.8278 22.9164 90.692 22.9164 91.7482V115.754C22.9164 116.81 22.0498 117.674 20.9906 117.674H1.92574C0.866585 117.674 0 116.81 0 115.754V76.0968C0 75.0405 0.866585 74.1763 1.92574 74.1763C8.47328 74.1763 11.6989 72.0159 15.1171 69.7114C18.6797 67.3108 22.7238 64.5742 30.4749 64.5742C38.226 64.5742 42.2701 67.3108 45.8327 69.7114C49.2509 72.0159 52.4765 74.1763 59.0241 74.1763C65.5716 74.1763 68.7972 72.0159 72.2154 69.7114C75.778 67.3108 79.8221 64.5742 87.5732 64.5742C95.2762 64.5742 99.3684 67.3108 102.931 69.7114C106.349 72.0159 109.575 74.1763 116.122 74.1763C117.182 74.1763 118.048 75.0405 118.048 76.0968V115.754C118 116.81 117.133 117.674 116.074 117.674Z" fill="#365419"/>
<path d="M116.074 65.7264C108.371 65.7264 104.279 62.9898 100.716 60.5893C97.2982 58.2848 94.0726 56.1243 87.5251 56.1243C80.9775 56.1243 77.7519 58.2848 74.3337 60.5893C70.7711 62.9898 66.727 65.7264 58.9759 65.7264C51.2729 65.7264 47.1807 62.9898 43.6181 60.5893C40.1999 58.2848 36.9743 56.1243 30.4268 56.1243C23.8792 56.1243 20.6536 58.2848 17.2354 60.5893C13.6728 62.9898 9.62871 65.7264 1.87759 65.7264C0.818428 65.7264 -0.0481567 64.8622 -0.0481567 63.806C-0.0481567 62.7498 0.818428 61.8856 1.87759 61.8856C8.42512 61.8856 11.6507 59.7251 15.0689 57.4206C18.6316 55.0201 22.6756 52.2834 30.4268 52.2834C38.1779 52.2834 42.2219 55.0201 45.7846 57.4206C49.2028 59.7251 52.4284 61.8856 58.9759 61.8856C65.5234 61.8856 68.7491 59.7251 72.1673 57.4206C75.7299 55.0201 79.774 52.2834 87.5251 52.2834C95.2281 52.2834 99.3203 55.0201 102.883 57.4206C106.301 59.7251 109.527 61.8856 116.074 61.8856C117.133 61.8856 118 62.7498 118 63.806C118 64.8622 117.133 65.7264 116.074 65.7264Z" fill="#365419"/>
<path d="M20.8943 110.664C13.4802 110.664 7.41409 104.615 7.41409 97.2213C7.41409 94.1486 9.48427 90.0197 13.6246 85.0266C16.5614 81.4738 19.45 78.7372 19.5463 78.6412C20.2684 77.921 21.472 77.921 22.1942 78.6412C22.3386 78.7372 25.2272 81.4738 28.1158 85.0266C32.2562 90.0197 34.3264 94.1486 34.3264 97.2213C34.3745 104.615 28.3566 110.664 20.8943 110.664ZM20.8943 82.6741C16.7058 86.899 11.2656 93.5725 11.2656 97.2213C11.2656 102.502 15.5985 106.823 20.8943 106.823C26.1901 106.823 30.523 102.502 30.523 97.2213C30.523 93.5725 25.0828 86.899 20.8943 82.6741Z" fill="#365419"/>
<path d="M98.0204 98.0376C96.9613 98.0376 96.0947 97.1734 96.0947 96.1171V92.0842C96.0947 91.028 96.9613 90.1638 98.0204 90.1638C99.0796 90.1638 99.9462 91.028 99.9462 92.0842V96.1171C99.9462 97.1734 99.1277 98.0376 98.0204 98.0376Z" fill="#365419"/>
<path d="M103.894 98.0376C102.835 98.0376 101.968 97.1734 101.968 96.1171V92.0842C101.968 91.028 102.835 90.1638 103.894 90.1638C104.953 90.1638 105.82 91.028 105.82 92.0842V96.1171C105.82 97.1734 104.953 98.0376 103.894 98.0376Z" fill="#365419"/>
<path d="M109.767 98.0376C108.708 98.0376 107.842 97.1734 107.842 96.1171V92.0842C107.842 91.028 108.708 90.1638 109.767 90.1638C110.827 90.1638 111.693 91.028 111.693 92.0842V96.1171C111.693 97.1734 110.827 98.0376 109.767 98.0376Z" fill="#365419"/>
<path d="M97.2501 31.927C91.9061 31.927 87.5732 27.606 87.5732 22.2768C87.5732 16.9477 91.9061 12.6267 97.2501 12.6267C102.594 12.6267 106.927 16.9477 106.927 22.2768C106.927 27.606 102.594 31.927 97.2501 31.927ZM97.2501 16.4676C94.0245 16.4676 91.4247 19.0601 91.4247 22.2768C91.4247 25.4936 94.0245 28.0861 97.2501 28.0861C100.476 28.0861 103.075 25.4936 103.075 22.2768C103.075 19.0601 100.476 16.4676 97.2501 16.4676Z" fill="#365419"/>
<path d="M97.2019 10.5143C96.1428 10.5143 95.2762 9.65013 95.2762 8.5939V1.92042C95.2762 0.864191 96.1428 0 97.2019 0C98.2611 0 99.1277 0.864191 99.1277 1.92042V8.5939C99.1277 9.69814 98.2611 10.5143 97.2019 10.5143Z" fill="#365419"/>
<path d="M87.9102 13.7309C87.4288 13.7309 86.9474 13.5389 86.5622 13.1548L76.6446 3.26464C75.8743 2.49647 75.8743 1.2962 76.6446 0.528032C77.4149 -0.240138 78.6185 -0.240138 79.3888 0.528032L89.3064 10.4182C90.0767 11.1864 90.0767 12.3867 89.3064 13.1548C88.8731 13.5389 88.3917 13.7309 87.9102 13.7309Z" fill="#365419"/>
<path d="M84.155 24.0533H77.9926C76.9335 24.0533 76.0669 23.1891 76.0669 22.1328C76.0669 21.0766 76.9335 20.2124 77.9926 20.2124H84.1069C85.166 20.2124 86.0326 21.0766 86.0326 22.1328C86.0326 23.1891 85.2142 24.0533 84.155 24.0533Z" fill="#365419"/>
<path d="M77.9926 37.8322C77.4631 37.8322 76.9335 37.5921 76.5483 37.208C75.8262 36.4399 75.9225 35.1916 76.6928 34.5194L83.7217 28.2781C84.492 27.5579 85.7438 27.6539 86.4178 28.4221C87.1399 29.1903 87.0436 30.4385 86.2733 31.1107L79.2444 37.3521C78.9074 37.6881 78.4741 37.8322 77.9926 37.8322Z" fill="#365419"/>
<path d="M31.9674 25.4455H9.29172C9.00285 25.4455 8.71399 25.3975 8.47327 25.2534C4.81436 23.5731 2.79233 21.0765 2.79233 18.3879C2.79233 15.6513 4.81436 13.1548 8.23256 11.7145C8.81028 11.4744 9.33986 11.2343 9.91758 11.0423C10.736 10.7542 11.4582 10.4662 12.1322 10.1301C12.2285 10.0821 12.3248 10.0341 12.3729 9.98607C13.8172 9.2179 14.9245 8.11366 15.9837 6.43328C16.5133 5.6171 16.8984 4.94496 17.1873 4.27281L17.2354 4.17679C18.4871 1.48819 19.1612 0.335938 20.6055 0.335938C22.0979 0.335938 22.7719 1.63222 23.9274 4.12878L24.0718 4.2248C24.3607 4.84893 24.794 5.56909 25.2754 6.38527C26.3346 8.06565 27.4419 9.16989 28.8862 9.93806C28.9825 9.98607 29.0787 10.0341 29.1269 10.0821C29.8009 10.4182 30.5712 10.7062 31.3415 10.9943C31.8711 11.1863 32.4488 11.4264 33.0265 11.6664C36.4447 13.1548 38.5149 15.6513 38.5149 18.3879C38.5149 21.1245 36.4929 23.5731 32.8339 25.3015C32.5451 25.3975 32.2562 25.4455 31.9674 25.4455ZM9.72501 21.6046H31.5341C33.508 20.5964 34.6634 19.3961 34.6634 18.3399C34.6634 17.2357 33.4117 15.9874 31.5341 15.1712C31.0526 14.9792 30.5231 14.7871 29.9935 14.5471C29.1269 14.211 28.2603 13.8749 27.4419 13.4428C27.2974 13.3948 27.2011 13.2988 27.0567 13.2508C24.4088 11.8105 22.9164 9.79403 22.0016 8.35371C21.4239 7.48952 20.9906 6.67334 20.6055 5.95318C20.2203 6.67334 19.787 7.48952 19.2093 8.35371C18.2946 9.79403 16.8021 11.8105 14.1542 13.2508C14.0098 13.2988 13.9135 13.3948 13.7691 13.4428C12.9025 13.8749 12.0359 14.211 11.1693 14.5471C10.6397 14.7391 10.1102 14.9312 9.62872 15.1712C7.75112 15.9874 6.49939 17.2357 6.49939 18.3399C6.64382 19.4442 7.79926 20.6444 9.72501 21.6046Z" fill="#365419"/>
<path d="M116.074 53.4358C108.371 53.4358 104.279 50.6992 100.716 48.2986C97.2982 45.9941 94.0726 43.8336 87.5251 43.8336C80.9775 43.8336 77.7519 45.9941 74.3337 48.2986C70.7711 50.6992 66.727 53.4358 58.9759 53.4358C51.2729 53.4358 47.1807 50.6992 43.6181 48.2986C40.1999 45.9941 36.9743 43.8336 30.4268 43.8336C23.8792 43.8336 20.6536 45.9941 17.2354 48.2986C13.6728 50.6992 9.62871 53.4358 1.87759 53.4358C0.818428 53.4358 -0.0481567 52.5716 -0.0481567 51.5153V39.7047C-0.0481567 38.6485 0.818428 37.7843 1.87759 37.7843H7.0771V24.5334C7.0771 23.4771 7.94368 22.6129 9.00284 22.6129C10.062 22.6129 10.9286 23.4771 10.9286 24.5334V39.7047C10.9286 40.761 10.062 41.6251 9.00284 41.6251H3.85148V49.4989C9.14727 49.1148 12.0359 47.1464 15.1171 45.0819C18.6797 42.6814 22.7238 39.9448 30.4749 39.9448C38.226 39.9448 42.2219 42.7294 45.7846 45.1299C49.2028 47.4344 52.4284 49.5949 58.9759 49.5949C65.5234 49.5949 68.7491 47.4344 72.1673 45.1299C75.7299 42.7294 79.774 39.9928 87.5251 39.9928C95.2281 39.9928 99.3203 42.7294 102.883 45.1299C105.964 47.1944 108.853 49.1628 114.148 49.5469V6.19332L106.734 12.7228C105.916 13.4429 104.712 13.3469 104.038 12.5787C103.316 11.7625 103.412 10.5623 104.183 9.89013L114.774 0.528065C115.352 0.0479594 116.171 -0.0960724 116.845 0.191991C117.519 0.480055 118 1.20021 118 1.92037V51.5153C118 52.5716 117.133 53.4358 116.074 53.4358Z" fill="#365419"/>
<path d="M32.2562 36.8242C31.1971 36.8242 30.3305 35.96 30.3305 34.9038V24.5335C30.3305 23.4772 31.1971 22.613 32.2562 22.613C33.3154 22.613 34.182 23.4772 34.182 24.5335V34.9038C34.182 35.96 33.3154 36.8242 32.2562 36.8242Z" fill="#365419"/>
<path d="M20.6536 36.8241C19.5944 36.8241 18.7278 35.9599 18.7278 34.9037V29.1904C18.7278 28.1342 19.5944 27.27 20.6536 27.27C21.7127 27.27 22.5793 28.1342 22.5793 29.1904V34.9037C22.5793 35.9599 21.7127 36.8241 20.6536 36.8241Z" fill="#365419"/>
<path d="M14.3949 36.8241C13.3358 36.8241 12.4692 35.9599 12.4692 34.9037V29.1904C12.4692 28.1342 13.3358 27.27 14.3949 27.27C15.4541 27.27 16.3207 28.1342 16.3207 29.1904V34.9037C16.3207 35.9599 15.4541 36.8241 14.3949 36.8241Z" fill="#365419"/>
<path d="M26.9123 36.8241C25.8531 36.8241 24.9865 35.9599 24.9865 34.9037V29.1904C24.9865 28.1342 25.8531 27.27 26.9123 27.27C27.9714 27.27 28.838 28.1342 28.838 29.1904V34.9037C28.838 35.9599 27.9714 36.8241 26.9123 36.8241Z" fill="#365419"/>
<path d="M44.0995 117.674C43.0404 117.674 42.1738 116.81 42.1738 115.754V82.3381C42.1738 81.2819 43.0404 80.4177 44.0995 80.4177H73.9486C75.0077 80.4177 75.8743 81.2819 75.8743 82.3381C75.8743 83.3944 75.0077 84.2586 73.9486 84.2586H46.0253V115.754C46.0253 116.81 45.1587 117.674 44.0995 117.674Z" fill="#365419"/>
</svg>
