<svg width="500" height="272" viewBox="0 0 500 272" fill="none" xmlns="http://www.w3.org/2000/svg">
<path d="M418.576 124.667V122.667H416.576H412.79H411.83L411.231 123.414L411.231 123.415L411.231 123.415L411.23 123.416L411.226 123.42L411.201 123.452C411.176 123.481 411.138 123.528 411.085 123.591C410.979 123.716 410.817 123.906 410.6 124.151C410.165 124.64 409.513 125.348 408.657 126.202C406.943 127.913 404.424 130.198 401.219 132.482C394.792 137.064 385.729 141.556 374.933 141.556C357.105 141.556 342.862 127.336 342.862 109.556C342.862 102.602 346.377 95.4561 350.096 89.8888C351.934 87.1378 353.775 84.8413 355.156 83.2337C355.845 82.431 356.418 81.8027 356.815 81.3783C357.013 81.1662 357.167 81.0052 357.27 80.8991C357.322 80.846 357.36 80.8067 357.385 80.7815L357.412 80.7545L357.417 80.749L357.418 80.7485L357.418 80.7484L357.428 80.7382L357.439 80.7271L418.01 18.3938L418.041 18.3627L418.068 18.3323L418.068 18.3321L418.069 18.3314L418.07 18.3303L418.071 18.3282L418.095 18.3021C418.118 18.2768 418.156 18.2361 418.208 18.181C418.312 18.0707 418.473 17.9027 418.691 17.6852C419.127 17.2502 419.789 16.6177 420.668 15.8533C422.428 14.3236 425.055 12.2713 428.487 10.2159C435.352 6.10597 445.411 2 458.219 2C471.095 2 480.973 5.66638 487.615 11.8524C494.242 18.0252 497.862 26.9048 497.862 37.7778V234.222C497.862 245.095 494.242 253.975 487.615 260.148C480.973 266.334 471.095 270 458.219 270C445.343 270 435.465 266.334 428.823 260.148C422.196 253.975 418.576 245.095 418.576 234.222V124.667Z" stroke="#BEC531" stroke-opacity="0.3" stroke-width="4"/>
<path d="M206.955 42.8037H19.7347V230.024H206.955V42.8037Z" stroke="#BEC531" stroke-opacity="0.3" stroke-width="4" stroke-miterlimit="10" stroke-linecap="round" stroke-linejoin="round"/>
<path d="M185.23 136.375L113.333 64.478L41.4353 136.375L113.333 208.273L185.23 136.375Z" stroke="#BEC531" stroke-opacity="0.3" stroke-width="4" stroke-miterlimit="10" stroke-linecap="round" stroke-linejoin="round"/>
<path d="M36.701 25.0691H2V59.7701H36.701V25.0691Z" stroke="#BEC531" stroke-opacity="0.3" stroke-width="4" stroke-miterlimit="10" stroke-linecap="round" stroke-linejoin="round"/>
<path d="M223.862 25.0691H189.161V59.7701H223.862V25.0691Z" stroke="#BEC531" stroke-opacity="0.3" stroke-width="4" stroke-miterlimit="10" stroke-linecap="round" stroke-linejoin="round"/>
<path d="M36.701 212.23H2V246.931H36.701V212.23Z" stroke="#BEC531" stroke-opacity="0.3" stroke-width="4" stroke-miterlimit="10" stroke-linecap="round" stroke-linejoin="round"/>
<path d="M223.862 212.23H189.161V246.931H223.862V212.23Z" stroke="#BEC531" stroke-opacity="0.3" stroke-width="4" stroke-miterlimit="10" stroke-linecap="round" stroke-linejoin="round"/>
</svg>
