<svg width="424" height="270" viewBox="0 0 424 270" fill="none" xmlns="http://www.w3.org/2000/svg">
<path d="M422.938 151.015C421.867 153.05 420.628 154.703 418.583 156.055C416.026 157.787 414.061 160.414 411.842 162.615C411.629 162.827 411.33 163.081 411.202 163.335C409.058 168.172 403.869 169.256 400.202 172.216C397.004 174.796 393.595 177.162 390.355 179.657C387.584 181.771 384.898 184.012 382.212 186.212C381.061 187.142 379.655 187.902 378.843 189.088C376.321 192.776 372.615 195.098 369.246 197.805C368.223 198.608 367.242 199.539 366.388 200.513C363.571 203.732 360.246 206.099 356.33 207.741C355.521 208.077 354.667 209.009 354.409 209.858C353.979 211.174 353.212 211.681 352.02 212.271C350.018 213.24 348.228 214.593 346.395 215.903C342.56 218.566 338.64 221.185 334.931 224.06C333.14 225.455 331.773 227.405 330.364 228.972C331.257 228.89 332.49 228.555 333.68 228.688C336.186 228.91 338.649 229.472 341.198 229.653C342.855 229.787 344.556 229.453 346.256 229.418C347.234 229.379 348.254 229.426 349.231 229.472C350.591 229.563 351.992 229.738 353.352 229.914C354.796 230.089 356.197 230.435 357.641 230.568C358.576 230.657 359.511 230.491 360.447 230.409C361.849 230.33 363.253 230.123 364.655 230.256C366.779 230.435 368.901 231.123 371.03 230.112C371.626 229.816 372.517 230.203 373.281 230.333C374.683 230.551 376.042 230.854 377.401 230.987C379.27 231.164 381.182 231.3 383.052 231.307C385.474 231.317 387.94 231.199 390.362 231.124C391.467 231.086 392.616 230.75 393.678 230.967C396.396 231.488 399.032 231.116 401.709 231.084C403.962 231.051 406.211 231.867 408.634 231.664C410.632 231.502 412.713 232.021 414.751 232.284C415.176 232.328 415.6 232.712 415.981 232.926C415.555 233.137 415.086 233.517 414.704 233.473C411.179 232.864 407.694 232.893 404.123 233.346C403.655 233.387 403.146 233.045 402.637 232.958C401.787 232.827 400.896 232.653 400.003 232.65C398.643 232.644 397.197 233.106 395.923 232.846C392.611 232.153 389.378 232.82 386.105 233.062C385.127 233.143 384.065 233.054 383.131 232.795C381.093 232.277 379.095 232.354 377.012 232.558C375.652 232.723 374.251 232.207 372.85 231.989C372.255 231.901 371.534 231.516 371.066 231.727C368.639 232.737 366.304 232.26 363.926 231.741C363.119 231.568 362.185 231.479 361.461 231.773C359.12 232.742 356.87 232.095 354.576 231.873C350.413 231.432 346.21 230.395 342.04 231.781C341.699 231.907 341.316 232.033 340.976 231.989C339.235 231.642 337.537 231.168 335.796 230.906C334.182 230.644 332.567 230.596 330.953 230.504C330.57 230.46 330.23 230.544 329.848 230.542C327.001 230.446 326.063 231.122 325.074 234.136C325.243 234.221 325.413 234.349 325.625 234.35C330.426 234.667 335.228 234.814 340.028 235.385C341.727 235.605 343.294 236.843 344.949 237.53C345.373 237.702 346.053 237.662 346.479 237.451C347.501 237.03 352.771 236.924 353.959 237.481C353.788 237.693 353.617 237.99 353.447 237.989C351.534 238.194 349.663 238.399 347.75 238.561C345.964 238.681 344.179 238.844 342.394 238.88C339.971 238.955 337.507 238.86 335.084 238.936C334.234 238.975 333.382 239.439 332.489 239.563C330.108 239.893 327.684 240.181 325.261 240.341C323.391 240.461 323.135 240.715 323.51 242.544C323.594 242.927 323.336 243.606 323.037 243.86C322.44 244.367 321.716 244.96 320.993 245.042C318.399 245.286 317.201 247.449 315.495 248.93C314.855 249.48 314.342 250.285 313.914 251.091C313.357 252.151 312.717 252.871 311.402 252.313C310.171 251.798 309.026 251.199 309.798 249.502C309.927 249.247 309.97 248.993 310.014 248.738C310.36 247.124 309.853 246.442 308.153 246.435C307.473 246.433 306.792 246.642 306.112 246.64C305.772 246.638 305.391 246.424 305.051 246.296C305.222 245.956 305.267 245.489 305.565 245.235C305.821 244.981 306.289 245.025 306.587 244.814C307.099 244.391 307.61 243.926 307.91 243.374C308.338 242.654 308.639 241.847 308.939 241.084C309.669 239.344 310.61 237.648 311.042 235.865C311.258 234.973 310.625 233.865 310.374 232.887C310.289 233.057 310.161 233.184 310.075 233.353C309.014 233.051 307.995 232.707 306.934 232.406C306.424 232.276 305.915 232.104 305.405 232.102C299.54 232.206 293.718 232.268 287.852 232.457C284.197 232.57 280.583 232.895 276.971 232.966C275.313 233.002 273.657 232.57 272.001 232.394C272.002 232.181 272.002 232.011 272.003 231.799C272.938 231.717 273.916 231.636 274.851 231.64C277.061 231.606 279.271 231.658 281.523 231.667C282.883 231.672 284.285 231.763 285.645 231.683C287.516 231.563 289.387 231.188 291.257 231.111C294.02 230.994 296.782 231.09 299.502 231.059C300.607 231.063 301.712 230.982 302.775 230.902C303.03 230.86 303.414 230.607 303.457 230.394C303.5 230.182 303.332 229.756 303.12 229.585C300.537 227.45 298.124 224.933 295.198 223.391C293.587 222.535 291.076 223.205 288.993 223.409C285.847 223.737 282.7 224.319 279.553 224.731C279.171 224.772 278.789 224.601 278.407 224.514C278.365 224.344 278.323 224.174 278.281 224.004C278.878 223.709 279.432 223.243 280.027 223.161C283.004 222.748 286.023 222.377 289.041 222.049C289.891 221.968 290.402 221.715 290.491 220.738C290.535 220.355 291.303 219.678 291.685 219.722C293.172 219.898 294.701 220.159 296.144 220.633C298.054 221.278 299.755 220.86 301.629 219.975C299.729 216.78 297.616 213.881 296.184 210.645C294.794 207.495 292.127 204.807 291.93 201.151C292.1 201.067 292.313 200.983 292.483 200.856C294.382 204.263 296.281 207.628 298.18 211.036C298.392 210.994 298.563 210.952 298.775 210.868C298.651 209.975 298.74 208.956 298.319 208.189C297.18 205.932 295.872 203.717 294.52 201.586C294.056 200.862 293.165 200.476 292.53 199.879C291.344 198.769 290.116 197.659 289.016 196.422C286.985 194.076 284.312 193.088 281.468 192.312C279.94 191.881 278.411 191.492 276.926 190.934C276.459 190.762 275.909 190.08 275.869 189.612C275.788 188.464 275.237 188.25 274.301 188.458C269.452 189.544 264.953 188.166 260.882 185.94C257.405 184.056 254.398 181.239 251.178 178.889C250.839 178.632 250.372 178.46 249.991 178.246C249.776 178.671 249.35 179.136 249.348 179.561C249.205 183.343 250.041 186.874 252.281 189.985C252.999 191.008 253.718 192.074 254.351 193.181C254.52 193.437 254.56 193.989 254.432 194.244C253.064 196.236 252.67 199.039 249.777 199.75C249.352 199.876 248.925 200.214 248.584 200.553C247.176 201.907 245.558 202.751 243.601 203.211C242.368 203.503 241.26 204.264 240.11 204.897C237.767 206.162 235.383 207.343 233.167 208.736C229.162 211.228 225.877 214.487 223.227 218.429C222.243 219.87 220.92 221.267 219.429 222.196C216.191 224.266 213.081 226.336 211.239 229.941C210.767 230.874 209.49 231.422 208.68 232.268C208.295 232.692 207.867 233.498 208.035 233.966C208.203 234.476 209.008 235.075 209.476 235.034C210.114 234.994 210.711 234.359 211.265 233.894C211.436 233.724 211.311 233.214 211.481 233.002C211.738 232.621 212.164 232.282 212.506 231.944C212.717 232.327 212.97 232.668 213.181 233.051C213.434 233.477 213.73 233.861 214.026 234.287C214.156 233.778 214.37 233.269 214.415 232.759C214.458 232.461 214.205 232.12 214.291 231.823C214.378 231.441 214.634 231.145 214.848 230.806C215.229 231.02 215.739 231.149 215.95 231.49C216.372 232.129 216.837 232.853 216.919 233.576C217.002 234.087 216.616 235.02 216.19 235.188C214.7 235.777 213.083 236.281 211.51 236.572C210.574 236.738 209.682 236.735 209.507 237.882C209.332 239.071 209.881 240.093 210.985 240.183C213.28 240.319 215.575 240.158 217.87 240.125C218.72 240.128 219.571 240.004 220.42 240.093C222.969 240.358 225.517 240.751 228.066 241.058C228.321 241.102 228.619 240.975 228.874 241.019C234.521 242.316 240.305 241.192 245.998 241.64C246.465 241.684 246.931 242.026 247.44 242.241C247.014 242.536 246.587 243.002 246.12 243.043C244.419 243.163 242.72 243.072 241.019 243.15C236.046 243.385 231.073 243.578 226.1 243.898C222.954 244.098 219.765 244.468 216.619 244.795C216.151 244.836 215.684 244.919 215.216 244.959C211.645 245.285 208.032 245.398 204.545 246.022C202.589 246.354 200.756 247.537 198.884 248.294C197.223 249.01 195.605 249.726 193.946 250.357C193.648 250.483 193.053 250.268 192.799 250.055C191.613 249.03 190.805 249.409 190.12 250.597C189.606 251.53 189.135 252.463 188.494 253.268C187.341 254.623 185.893 255.425 183.983 254.907C183.473 254.778 182.836 254.732 182.41 254.943C179.94 256.293 177.561 256.071 175.059 254.871C174.21 254.486 172.848 255.075 171.742 255.198C172.157 257.707 172.666 258.134 174.92 257.548C176.537 257.13 178.069 256.668 179.68 257.525C179.977 257.696 180.445 257.613 180.785 257.487C184.232 256.481 187.673 256.622 191.155 257.358C192.641 257.662 194.3 257.328 195.873 257.25C196.426 257.209 196.978 257.126 197.531 257.086C197.615 257.256 197.7 257.384 197.742 257.554C197.358 257.85 196.973 258.401 196.591 258.4C194.381 258.476 192.171 258.467 189.961 258.458C187.751 258.45 185.584 258.441 183.374 258.517C181.588 258.552 179.846 258.631 178.06 258.751C176.275 258.871 174.489 259.162 172.704 259.282C171.896 259.321 171.089 259.063 170.282 258.975C169.73 258.93 169.135 258.97 168.583 258.883C168.073 258.839 167.564 258.709 167.096 258.622C167.523 258.284 167.907 257.903 168.418 257.65C169.269 257.228 170.163 256.977 171.014 256.64C170.972 256.47 170.931 256.3 170.889 256.13C170.634 256.001 170.338 255.703 170.125 255.744C168.253 256.247 166.941 255.094 165.456 254.323C164.82 253.981 163.8 253.891 163.12 254.144C161.29 254.774 159.545 255.235 157.55 254.717C156.743 254.501 155.679 255.092 154.743 255.385C154.317 255.511 153.933 255.977 153.508 256.018C153.167 256.059 152.616 255.844 152.489 255.546C152.363 255.291 152.578 254.654 152.791 254.485C154.75 253.388 156.667 252.376 159.086 253.108C161.166 253.711 162.914 252.315 164.745 251.6C164.915 251.516 165.046 250.709 164.876 250.496C164.496 250.027 163.903 249.429 163.436 249.47C161.65 249.718 159.913 248.224 158.082 249.279C157.826 249.448 157.232 249.233 156.893 249.019C155.96 248.463 155.236 248.8 154.427 249.349C153.915 249.687 152.98 249.896 152.556 249.639C151.58 249.04 150.9 249.165 150.132 249.842C148.981 250.9 147.832 251.235 146.263 250.464C145.499 250.078 144.265 250.541 143.287 250.665C142.692 250.747 141.967 251.169 141.501 250.955C140.186 250.312 139.249 250.819 138.311 251.58C137.416 252.299 136.564 252.678 135.42 251.993C135.08 251.779 134.272 251.904 133.846 252.199C132.866 252.876 132.013 253.765 131.032 254.441C130.564 254.779 129.883 254.861 129.288 254.901C128.098 254.939 126.866 254.764 125.676 254.887C124.826 254.968 123.974 255.475 123.123 255.727C122.612 255.895 122.101 256.062 121.592 256.06C118.362 256.005 115.132 255.95 111.903 255.809C110.968 255.763 110.034 255.462 109.1 255.458C108.505 255.456 107.781 255.623 107.313 255.918C106.247 256.679 105.228 256.548 104.168 255.991C103.108 255.392 102.299 255.601 101.277 256.319C100.126 257.08 98.7219 257.499 97.3603 257.919C97.105 258.003 96.5539 257.66 96.3426 257.362C96.216 257.149 96.3878 256.682 96.559 256.386C96.8157 255.962 97.1995 255.623 97.4985 255.242C97.4567 255.072 97.4149 254.901 97.3731 254.731C94.4841 254.507 91.6387 254.028 88.7485 254.102C86.751 254.136 84.7492 255.233 82.7513 255.353C80.371 255.471 78.0741 255.972 75.7772 256.473C73.4803 256.973 71.1829 257.602 68.8449 257.762C67.2295 257.883 65.5322 257.239 63.8756 257.02C62.4316 256.802 60.9874 256.626 59.5001 256.578C56.483 256.523 53.4659 256.468 50.4056 256.584C45.8152 256.735 41.2245 256.972 36.6336 257.251C33.4455 257.451 30.2997 257.693 27.111 258.021C25.368 258.184 23.7087 258.645 21.9651 258.935C19.7113 259.309 17.4989 259.937 15.2467 259.886C11.7196 259.829 8.2724 261.048 4.66303 260.311C3.34663 260.051 1.85669 260.682 0.453432 260.889C0.470061 256.724 0.486519 252.602 0.503147 248.437C1.35156 248.823 2.19981 249.251 3.04839 249.595C4.1093 249.981 5.21202 250.538 6.27428 250.585C8.99375 250.681 11.7567 250.522 14.4767 250.49C14.7742 250.492 15.1144 250.45 15.412 250.409C19.9617 249.79 24.5118 249.085 29.0611 248.594C30.7618 248.388 32.5868 248.99 34.2879 248.699C40.9645 247.579 47.6787 247.69 54.3931 247.76C59.9177 247.782 65.4418 247.931 70.924 247.953C72.8363 247.961 74.7497 247.714 76.6206 247.466C77.6411 247.343 77.8133 246.791 77.0517 245.938C75.5286 244.232 75.7008 243.68 77.237 242.114C79.7973 239.489 82.6104 237.418 86.3114 236.497C87.3324 236.246 88.0603 234.889 89.124 234.554C94.3162 232.704 97.8583 228.978 100.893 224.571C101.62 223.511 102.982 222.879 103.964 221.948C105.926 220.128 108.058 218.394 109.808 216.404C112.626 213.185 115.232 209.753 117.838 206.363C119.675 203.991 121.3 201.447 123.179 199.117C123.862 198.228 124.843 197.382 125.822 197.003C128.971 195.911 130.978 193.581 132.9 191.124C135.121 188.285 137.385 185.489 139.649 182.693C140.46 181.677 141.357 180.66 142.041 179.558C142.255 179.176 142.046 178.368 141.835 177.857C140.445 174.919 139.011 171.981 137.621 169.043C137.073 167.851 136.696 166.532 135.124 166.228C133.893 165.968 133.981 165.118 134.113 164.141C134.506 161.381 135.283 158.579 135.081 155.858C134.837 153.009 133.233 150.453 131.202 148.235C128.07 144.78 124.769 141.452 122.107 137.659C120.163 134.931 118.944 131.569 117.639 128.419C117.049 127.014 116.971 125.398 116.595 123.867C116.302 122.633 115.797 121.441 115.547 120.208C114.963 117.315 114.422 114.423 113.924 111.489C113.8 110.638 113.547 110.255 112.612 110.124C109.724 109.687 106.837 109.038 103.949 108.474C103.694 108.431 103.44 108.345 103.185 108.344C99.956 108.076 96.7267 107.935 93.5408 107.583C90.9071 107.275 88.3167 106.797 85.7265 106.234C83.0514 105.671 80.42 104.81 77.7451 104.205C77.0233 104.032 76.1727 104.198 75.407 104.365C72.8123 104.95 71.8803 104.224 71.8483 101.589C71.8517 100.739 71.4284 100.312 70.6619 100.691C69.2568 101.366 68.8346 100.684 68.712 99.451C68.4254 96.7299 67.8841 93.9228 69.5512 91.5069C70.2777 90.4899 71.5557 89.73 72.7478 89.1822C74.4507 88.424 76.3225 87.964 78.1097 87.3762C81.5566 86.2424 83.6505 83.3608 86.2516 81.1612C87.0618 80.4845 88.1682 80.1064 89.1054 79.5576C89.4887 79.3467 90.2122 79.0946 90.2132 78.8396C90.3073 76.545 92.3476 76.4681 93.7093 76.0061C96.6457 74.9978 99.2863 73.5633 101.927 72.0014C104.739 70.3552 106.831 67.9835 109.134 65.8252C109.603 65.4021 110.625 64.9387 110.922 65.1524C111.812 65.7509 111.214 66.471 110.659 67.1488C110.403 67.4453 110.188 67.8694 110.102 68.2941C110.058 68.5489 110.142 68.9742 110.354 69.1026C110.523 69.2308 110.991 69.1476 111.204 68.9785C111.844 68.4285 112.357 67.7081 112.996 67.2006C113.422 66.8624 114.018 66.7372 114.529 66.5268C114.484 67.0366 114.482 67.5466 114.353 68.0561C113.878 69.9241 112.298 71.7028 114.075 73.6649C114.244 73.8781 114.413 74.1762 114.625 74.2196C117.471 74.6134 119.416 77.2562 122.561 77.0562C124.176 76.9777 125.873 77.7919 127.529 78.1811C128.845 78.4838 130.204 78.8717 131.521 78.962C133.602 79.0978 135.643 78.9359 137.726 78.9018C139.256 78.8654 140.571 79.3806 141.758 80.1928C141.757 80.3628 141.714 80.4902 141.713 80.6602C141.288 80.701 140.82 80.9116 140.438 80.8251C137.721 80.1342 134.999 80.6334 132.237 80.5798C131.004 80.5749 129.773 80.1875 128.542 80.0126C128.244 79.9689 127.82 79.7122 127.65 79.839C125.35 81.1898 123.104 79.3959 120.851 79.7269C120.34 79.8098 119.575 79.8068 119.404 80.1461C118.591 81.6303 117.862 83.1574 117.218 84.7273C117.132 84.982 117.597 85.6638 117.978 85.9203C118.996 86.6469 119.205 87.4552 118.775 88.686C117.873 91.0624 116.886 93.3959 116.409 95.859C116.148 97.3029 116.736 98.9627 116.985 100.494C117.152 101.344 117.489 102.153 117.74 103.004C117.868 103.047 118.038 103.048 118.165 103.091C118.594 102.03 119.023 100.969 119.453 99.9086C119.665 99.9519 119.877 99.9953 120.132 100.081C120.087 100.676 120.085 101.271 119.912 101.823C119.567 103.224 118.966 104.582 118.833 105.984C118.745 106.706 119.166 107.855 119.759 108.24C120.734 108.924 121.206 107.905 121.549 107.099C121.72 106.718 121.892 106.336 122.318 106.082C122.776 108.507 124.219 108.98 126.086 109.625C129.524 110.786 133.006 111.48 136.574 111.792C138.316 111.926 139.971 112.57 141.669 112.96C142.264 113.09 142.859 113.134 143.453 113.222C143.539 113.095 143.667 112.925 143.752 112.798C142.779 111.689 141.891 110.538 140.79 109.556C138.546 107.55 136.302 105.586 133.929 103.706C133.548 103.407 132.697 103.701 131.889 103.741C131.087 102.505 130.116 100.886 129.017 99.3093C127.665 97.3064 126.185 95.3455 124.834 93.3001C124.58 92.9166 124.753 92.2373 124.713 91.6847C125.136 91.9839 125.688 92.1986 125.941 92.5821C127.294 94.4574 128.518 96.4598 129.956 98.293C130.844 99.4016 132.115 100.299 133.217 101.239C133.513 101.495 133.852 101.624 134.149 101.88C138.087 105.465 141.982 109.136 145.963 112.679C146.598 113.234 147.785 114.047 148.083 113.835C149.148 113.117 150.087 112.058 150.857 110.956C151.412 110.194 151.544 109.132 151.972 108.283C152.529 107.181 153.129 106.12 153.813 105.103C154.283 104.425 154.754 103.577 155.477 103.24C159.182 101.3 160.215 98.0313 160.018 94.2056C159.939 92.7178 160.157 91.4862 161.266 90.4281C161.564 90.1318 161.567 89.5793 161.738 89.155C161.996 88.5186 162.169 87.7543 162.638 87.3311C163.662 86.3577 163.748 85.9756 162.519 85.2482C160.611 84.0931 158.618 83.1076 156.795 81.8254C153.913 79.8589 151.202 77.6806 148.363 75.6293C146.837 74.5607 145.312 73.5346 143.7 72.5932C140.563 70.7532 137.34 69.0828 134.245 67.2005C130.217 64.7619 126.233 62.196 122.248 59.7152C117.118 56.5497 111.989 53.3418 106.817 50.2187C104.019 48.5075 101.135 46.9235 98.337 45.2124C97.0652 44.4423 96.0075 43.2481 94.6495 42.7752C89.5991 41.055 85.7466 37.3422 81.2949 34.6894C77.6487 32.5499 73.8312 30.7072 70.1421 28.6525C68.6156 27.7964 67.2603 26.6435 65.7763 25.7876C63.6985 24.6318 61.5349 23.6882 59.4571 22.5324C56.5737 20.9059 53.776 19.1097 50.6387 17.2272C50.4216 18.3738 50.2479 19.3081 49.9877 20.6246C49.3101 20.0269 48.759 19.6847 48.3784 19.2157C45.7153 15.6351 42.0267 13.4529 38.296 11.1855C35.286 9.34601 32.5326 7.08254 29.6083 5.07338C28.4216 4.26115 27.1493 3.61858 25.9624 2.84885C25.6233 2.635 25.1568 2.37814 24.9882 2.03747C24.9481 1.44232 24.9929 0.847502 24.9103 0.252178C25.3774 0.339042 25.9727 0.25642 26.3542 0.51294C30.6359 3.16501 35.0889 5.47776 39.8416 7.23922C42.0483 8.05552 44.0827 9.42363 46.1607 10.5369C51.5039 13.4057 56.89 16.1897 62.1906 19.1008C67.0671 21.7978 71.8154 24.6642 76.6066 27.4458C79.6594 29.2005 82.7549 30.9128 85.8076 32.71C88.0545 34.0789 90.2158 35.6175 92.4627 36.9865C94.6671 38.3553 96.9144 39.6392 99.119 40.9655C99.7126 41.3079 100.263 41.7351 100.814 42.1623C102.466 43.5289 104.033 44.8101 106.24 45.4989C108.533 46.1881 110.566 47.9386 112.643 49.2644C116.458 51.7446 120.23 54.3097 124.087 56.705C128.2 59.2289 132.355 61.583 136.553 63.9372C140.496 66.163 144.696 68.0072 148.34 70.8267C151.814 73.4756 155.459 75.9976 159.146 78.3923C161.266 79.7607 163.641 80.8327 166.018 81.6922C167.079 82.0789 168.567 81.7874 169.717 81.367C170.823 80.9889 170.53 79.9252 169.98 79.1155C169.474 78.3485 168.542 77.5373 168.629 76.9002C168.717 76.3055 170.036 75.9283 170.633 75.2932C172.084 73.854 173.365 72.2441 174.858 70.8901C176.01 69.8322 177.289 68.8173 178.694 68.2279C184.78 65.8298 190.909 63.5593 197.038 61.2887C198.187 60.8683 199.336 60.5754 200.654 60.1982C201.628 61.0946 200.428 63.6823 203.319 63.3538C203.024 62.7151 202.772 62.1616 202.604 61.6085C202.52 61.3106 202.564 60.9283 202.523 60.5882C202.863 60.5895 203.373 60.4216 203.543 60.5922C204.432 61.4033 205.24 61.1515 206.177 60.7302C206.645 60.5196 207.538 60.4807 207.834 60.7794C210.036 62.9131 213.096 62.8828 215.641 64.1255C215.81 64.2112 216.15 64.2125 216.234 64.3829C216.488 64.7664 216.614 65.2344 216.782 65.66C216.357 65.7008 215.888 65.9115 215.506 65.8249C214.785 65.6096 214.149 65.182 213.216 64.6683C213.298 65.3061 213.212 65.6458 213.339 65.7313C215.076 67.1832 216.727 68.7623 218.634 70.0024C220.287 71.114 221.813 72.0975 223.124 73.8028C224.688 75.849 226.464 78.236 229.737 77.9941C231.31 77.8729 231.895 80.2127 230.741 81.9081C229.63 83.5611 229.673 83.4763 231.496 84.4186C232.217 84.804 232.937 85.5293 233.359 86.2535C233.907 87.1907 234.544 87.4907 235.605 87.6649C236.88 87.84 238.153 88.3126 239.298 88.8697C241.037 89.7691 242.647 90.923 244.386 91.8225C245.404 92.3365 245.529 92.847 245.058 93.8226C244.844 94.2468 244.84 95.1392 245.136 95.4379C245.983 96.2913 247.043 96.9755 248.017 97.7019C248.102 97.7447 248.272 97.7454 248.314 97.8306C249.748 100.641 253.151 99.8474 255.184 101.598C255.904 102.238 256.54 102.623 256.068 103.599C255.597 104.617 255.977 105.129 256.953 105.515C258.778 106.245 260.559 107.059 262.255 108.001C262.722 108.258 262.888 109.109 263.184 109.705C263.394 110.173 263.477 110.811 263.816 111.067C264.832 111.879 265.977 112.606 267.122 113.248C267.546 113.505 268.098 113.549 268.607 113.679C269.117 113.851 270.093 114.067 270.093 114.237C270.047 115.087 269.788 115.979 269.572 116.785C269.572 116.828 268.808 116.74 268.511 116.526C268.257 116.355 268.258 115.93 268.132 115.59C267.92 115.631 267.75 115.63 267.537 115.672C267.62 116.182 267.532 116.905 267.829 117.118C268.888 117.93 270.032 118.785 271.263 119.257C273.427 120.073 274.524 121.862 275.622 123.652C276.256 124.674 276.719 125.824 277.267 126.888C277.983 128.336 277.641 128.972 276.109 129.519C274.96 129.939 273.852 130.572 272.745 131.12C272.829 131.333 272.871 131.546 272.955 131.716C273.38 131.76 273.847 131.805 274.272 131.849C275.334 131.938 275.928 132.323 275.498 133.469C275.111 134.53 275.706 134.66 276.556 134.62C277.491 134.582 278.426 134.585 279.404 134.547C279.701 134.548 280.126 134.592 280.297 134.38C280.809 133.83 281.025 132.896 282.086 133.24C283.699 133.799 285.483 134.104 286.924 134.959C289.341 136.414 291.586 138.25 293.874 139.917C294.171 140.131 294.553 140.217 294.892 140.304C296.803 140.609 298.756 141.127 300.669 141.092C303.814 141.062 306.572 142.135 309.286 143.464C309.711 143.678 310.177 143.935 310.602 143.936C313.79 143.864 316.548 144.895 319.133 146.648C320.066 147.289 321.211 147.761 322.315 148.148C324.988 149.009 326.511 150.885 327.138 153.522C327.682 155.692 328.95 157.269 330.389 158.848C333.055 161.748 336.104 164.395 337.533 168.311C337.87 169.205 338.929 169.889 339.777 170.445C342.066 171.984 344.568 173.227 346.644 174.977C347.999 176.13 348.799 177.918 349.813 179.495C349.94 179.708 349.64 180.217 349.554 180.556C349.215 180.343 348.748 180.213 348.621 179.915C347.778 178.212 346.978 176.466 345.24 175.397C343.247 174.199 341.383 172.746 339.347 171.718C337.608 170.819 336.509 169.497 335.793 167.794C334.657 164.985 332.965 162.938 329.951 162.033C328.763 161.689 328.256 160.922 328.049 159.391C327.759 157.52 327.472 155.054 324.882 154.363C324.712 154.32 324.585 154.234 324.458 154.149C321.789 152.013 318.777 150.599 315.509 149.693C315.169 149.607 314.702 149.435 314.533 149.179C313.436 147.22 311.438 147.467 309.654 147.162C307.276 146.77 304.898 146.166 302.521 145.604C302.266 145.56 302.098 145.135 301.886 144.879C302.142 144.667 302.399 144.286 302.696 144.245C303.632 144.121 304.609 144.082 305.588 143.746C303.085 142.716 300.581 141.856 297.604 142.354C299.676 144.955 301.409 147.427 304.892 147.823C306.846 148.044 308.456 149.113 309.597 150.775C309.851 151.116 310.274 151.457 310.699 151.587C314.391 152.961 317.827 154.59 320.492 157.661C321.634 158.94 323.459 159.627 324.985 160.611C325.621 160.996 326.427 161.297 326.764 161.893C328.158 164.151 330.447 165.478 332.225 167.355C334.129 169.402 335.862 171.662 336.318 174.639C336.401 175.191 336.909 175.661 337.034 176.214C337.118 176.597 336.861 177.021 336.732 177.403C336.35 177.274 335.798 177.229 335.671 177.016C334.702 174.845 332.665 174.199 330.756 173.256C329.526 172.657 328.553 171.505 327.495 170.566C326.986 170.139 326.564 169.457 325.97 169.242C323.806 168.511 322.452 166.976 321.269 165.186C321.058 164.845 320.677 164.589 320.337 164.375C319.404 163.861 318.514 163.305 317.538 162.961C315.459 162.188 313.379 161.457 311.3 160.726C311.172 160.853 311.086 161.023 310.958 161.15C311.168 161.831 311.42 162.469 311.63 163.15C311.798 163.746 311.838 164.426 312.09 164.979C312.47 165.704 312.849 166.64 313.485 166.983C316.326 168.566 319.424 169.684 322.051 171.479C323.704 172.633 325.316 173.405 327.226 174.05C330.027 174.996 332.613 176.621 334.387 179.348C335.401 180.882 336.968 182.036 338.281 183.359C338.237 183.529 338.194 183.699 338.151 183.868C337.556 183.866 336.875 184.076 336.451 183.819C335.222 183.134 334.078 182.237 332.891 181.467C332.425 181.168 331.831 180.783 331.321 180.866C328.812 181.239 326.648 180.38 324.57 179.267C323.68 178.796 322.961 177.9 322.369 177.09C321.735 176.28 321.655 174.963 320.167 174.999C320.169 174.574 320.044 174.064 320.215 173.809C320.386 173.513 320.939 173.472 321.79 173.136C320.221 172.237 318.991 171.509 317.719 170.782C316.405 170.012 315.048 169.284 313.734 168.514C312.971 168.043 312.377 167.743 311.778 168.761C311.222 169.693 310.544 169.138 310.121 168.584C309.233 167.476 308.43 166.282 307.628 165.089C306.149 162.916 304.713 160.7 303.234 158.527C303.107 158.314 302.853 158.143 302.727 157.887C301.886 155.631 300.062 154.689 297.983 153.831C296.668 153.273 295.525 152.206 294.509 151.139C292.901 149.433 290.692 149.212 288.697 148.481C288.273 148.31 287.849 148.053 287.34 147.796C287.639 147.5 287.767 147.288 287.81 147.288C291.206 148.151 294.688 148.803 297.398 151.406C298.456 152.388 299.771 153.115 301.043 153.801C301.891 154.271 302.276 153.593 302.152 152.87C301.902 151.466 301.61 150.063 301.106 148.786C300.643 147.509 299.709 147.335 298.516 148.095C297.408 148.814 294.777 147.996 293.55 146.546C292.746 145.607 291.857 144.754 291.266 143.732C290.507 142.411 289.276 142.024 287.96 141.508C286.645 141.036 285.458 140.223 284.186 139.623C283.634 139.366 283.04 139.236 282.148 138.935C282.737 140.51 283.157 141.744 283.62 142.936C284.586 145.66 285.553 148.426 286.562 151.15C286.772 151.704 287.238 152.215 287.49 152.769C287.659 153.195 287.699 153.662 287.783 154.088C287.315 154.001 286.593 154.125 286.339 153.827C285.747 153.102 285.24 152.25 284.904 151.399C283.304 147.482 281.79 143.566 280.233 139.608C279.939 138.799 279.815 137.906 279.35 137.224C278.97 136.67 278.164 136.412 277.57 135.984C277.27 136.621 276.673 137.256 276.756 137.851C276.837 138.617 277.343 139.766 277.895 139.938C280.059 140.627 280.435 142.328 280.343 144.07C280.25 145.983 281.095 147.303 282.152 148.668C282.448 149.051 282.446 149.646 282.614 150.157C282.061 150.155 281.423 150.407 280.999 150.151C279.642 149.423 279.044 150.1 278.614 151.246C277.197 155.023 275.737 158.757 274.32 162.534C274.191 162.831 273.977 163.212 274.104 163.425C275.369 165.683 275.316 168.53 277.39 170.493C279.465 172.499 281.753 174.123 284.212 175.621C285.696 176.476 286.752 178.096 288.236 178.909C289.89 179.851 291.8 180.368 293.667 180.971C295.068 181.401 296 182.128 296.292 183.616C296.5 184.595 296.922 185.404 298.197 185.409C298.452 185.41 298.918 185.794 298.959 186.092C299.25 187.793 299.583 189.494 299.619 191.194C299.657 192.257 299.527 192.979 300.928 193.197C302.797 193.502 303.682 195.333 303.207 197.201C303.035 197.795 302.862 198.475 302.987 199.07C303.698 202.091 304.28 205.195 305.373 208.132C306.635 211.537 308.364 214.732 309.966 218.01C310.556 219.203 311.575 219.674 312.978 219.51C316.251 219.183 319.524 219.026 322.84 218.827C323.52 218.787 324.199 218.96 325.346 219.092C324.792 219.557 324.621 219.854 324.408 219.853C321.9 220.141 319.391 220.386 316.883 220.673C316.245 220.755 315.607 220.795 315.012 220.921C314.289 221.088 313.608 221.382 312.884 221.635C313.306 222.316 313.558 223.167 314.109 223.594C316.439 225.261 318.088 227.435 319.395 229.99C319.522 230.288 320.329 230.377 320.796 230.336C323.432 230.049 325.52 228.697 327.482 226.963C332.685 222.394 337.677 217.526 343.26 213.468C346.926 210.806 349.321 206.99 353.113 204.583C355.413 203.105 357.672 201.456 359.846 199.807C363.043 197.355 366.325 194.988 369.184 192.237C371.189 190.333 372.601 187.831 374.183 185.5C374.525 184.991 374.485 184.183 374.616 183.546C374.875 182.485 374.964 181.295 375.478 180.405C376.462 178.751 377.743 177.226 378.939 175.701C379.751 174.685 380.685 174.901 380.977 176.177C381.185 177.24 381.053 178.387 381.092 179.45C381.132 179.917 381.216 180.343 381.256 180.81C381.682 180.685 382.192 180.644 382.533 180.391C384.238 179.08 386.028 177.77 387.606 176.288C388.374 175.526 388.719 174.338 389.402 173.491C390 172.728 390.811 172.009 391.62 171.502C396.69 168.462 401.167 164.74 405.56 160.805C408.033 158.605 410.93 156.832 413.531 154.802C416.003 152.899 418.349 150.784 420.779 148.881C421.333 148.458 422.226 148.377 422.949 148.167C422.945 149.315 422.941 150.165 422.938 151.015ZM137.014 246.56C137.313 246.136 137.7 245.075 138.125 245.034C140.208 244.915 142.214 242.713 144.373 244.804C144.627 245.06 145.307 244.893 145.775 244.852C146.668 244.813 147.561 244.689 148.453 244.693C152.533 244.582 156.737 245.448 160.696 243.722C161.207 243.511 161.929 243.769 162.566 243.857C163.797 244.074 164.775 243.951 165.714 242.934C166.397 242.214 167.419 241.624 168.398 241.415C170.524 240.956 171.334 240.279 171.768 238.198C171.855 237.646 172.24 237.053 172.708 236.757C172.964 236.588 173.941 236.847 173.94 236.932C173.98 237.485 173.766 238.036 173.721 238.631C173.676 239.184 173.717 239.736 173.799 240.247C173.799 240.332 174.436 240.462 174.479 240.419C174.778 239.953 175.163 239.445 175.165 238.935C175.171 237.405 174.922 235.916 175.013 234.386C175.373 229.203 173.735 224.436 171.926 219.754C171.043 217.456 170.202 215.115 169.362 212.774C168.731 211.029 168.101 209.369 166.576 208.046C165.644 207.192 164.631 205.658 164.762 204.596C164.981 202.939 164.686 202.428 163.156 202.422C162.901 202.421 162.604 202.335 162.435 202.164C161.46 201.353 160.61 201.477 159.545 202.153C158.309 202.955 157.077 202.823 156.02 201.628C155.131 200.605 154.154 200.474 152.75 200.85C149.39 201.73 145.944 202.651 142.5 202.934C140.29 203.096 138.545 203.726 136.882 205.08C135.944 205.841 135.392 205.669 135.142 204.478C134.974 203.797 134.935 203.074 134.853 202.351C134.599 202.138 134.302 201.967 134.048 201.753C133.791 202.305 133.661 202.899 133.319 203.365C131.141 205.992 128.412 208.148 125.222 209.028C122.967 209.656 121.348 210.712 119.939 212.364C116.608 216.219 113.193 219.987 109.99 223.927C107.983 226.384 106.738 229.524 103.841 231.255C103.245 231.635 102.817 232.356 102.475 232.992C101.747 234.349 101.104 235.749 100.503 237.149C99.6883 238.973 98.1143 239.392 96.5466 238.196C95.4026 237.341 94.1681 237.846 94.0349 239.291C93.9897 239.97 94.3266 240.737 94.1117 241.331C93.3811 243.368 94.653 244.138 96.1807 244.697C96.69 244.869 97.3278 244.786 97.8801 244.831C99.4943 245.007 101.066 245.226 102.68 245.36C103.275 245.405 103.913 245.28 104.509 245.112C106.381 244.61 108.295 244.065 110.167 243.562C110.55 243.479 110.974 243.608 111.697 243.654C111.141 244.331 110.842 244.713 110.416 245.178C111.774 245.524 113.049 245.486 113.395 244.085C113.697 242.897 114.293 242.601 115.271 242.605C116.418 242.567 117.607 242.742 118.755 242.662C119.733 242.623 120.753 242.542 121.689 242.291C122.795 241.955 123.775 241.364 124.882 240.944C125.307 240.775 125.817 240.862 126.285 240.822C126.028 241.203 125.729 241.585 125.515 242.009C125.344 242.348 125.215 242.73 125.086 243.112C125.425 243.198 125.764 243.455 126.062 243.371C128.273 242.997 130.527 242.624 132.739 242.123C134.823 241.621 136.823 240.991 138.944 242.02C139.199 242.148 139.581 242.065 139.879 242.024C143.027 241.144 146.218 240.306 149.324 239.341C150.643 238.922 153.574 239.358 154.589 240.51C153.994 240.55 153.569 240.718 153.144 240.632C151.403 240.242 149.83 240.406 148.254 241.335C147.615 241.715 146.764 241.839 145.999 242.006C144.467 242.424 142.935 242.971 141.362 243.135C139.619 243.298 137.787 244.565 136.094 242.816C135.967 242.688 135.499 242.814 135.201 242.897C134.35 243.107 133.457 243.315 132.606 243.482C131.5 243.69 130.395 243.898 128.991 244.105C129.415 244.447 129.542 244.617 129.711 244.703C130.263 245.003 130.856 245.303 131.408 245.56C130.727 245.855 130.046 246.149 129.322 246.401C129.152 246.486 128.897 246.357 128.685 246.399C127.622 246.522 126.559 246.645 125.496 246.811C124.73 246.936 123.879 247.272 123.2 247.057C122.563 246.842 122.228 245.778 121.591 245.521C119.682 244.79 117.686 244.272 116.073 243.756C115.602 244.732 115.385 245.878 114.96 245.962C112.918 246.378 110.793 246.455 108.752 246.787C108.284 246.87 107.857 247.336 107.431 247.632C107.811 248.143 108.106 248.824 108.573 249.081C109.463 249.51 110.483 249.599 111.417 249.9C112.138 250.115 112.733 250.118 112.652 249.097C112.529 247.992 113.167 247.824 114.017 247.955C114.442 248 114.866 248.129 115.291 248.13C120.221 248.108 125.151 248.085 130.081 248.019C131.101 247.981 132.122 247.645 133.143 247.437C134.334 247.186 135.61 246.894 137.014 246.56ZM187.118 236.177C187.202 236.348 187.286 236.475 187.371 236.646C188.521 235.97 189.798 235.466 190.736 234.619C193.466 232.123 196.533 230.222 200.023 228.961C201.981 228.247 203.643 227.021 205.095 225.369C207.016 223.124 209.234 221.178 211.451 219.232C213.626 217.371 215.504 215.381 216.45 212.622C217.224 210.288 218.506 208.508 221.017 207.71C221.74 207.501 222.423 206.739 222.851 206.06C224.519 203.432 226.017 200.675 227.728 198.047C229.352 195.589 231.189 193.216 232.941 190.843C234.309 188.979 234.355 188.001 232.575 186.719C230.668 185.352 229.741 183.351 228.516 181.518C228.221 181.049 227.713 180.367 227.373 180.409C225.205 180.697 222.782 180.688 220.951 181.658C218.992 182.713 217.462 182.749 215.894 181.51C215.005 180.827 214.366 181.037 213.473 181.288C211.26 181.917 209.006 182.46 206.71 182.664C203.777 182.907 200.761 182.555 197.827 182.841C193.618 183.291 189.494 183.827 185.205 183.088C181.892 182.48 179.815 181.069 178.68 178.132C178.133 176.685 176.732 176.381 175.754 176.505C174.989 176.587 174.261 177.944 173.747 178.835C173.405 179.428 173.444 180.278 173.271 180.958C172.796 182.953 170.876 184.815 172.737 186.99C172.822 187.076 172.736 187.288 172.735 187.458C172.683 189.795 172.717 192.133 172.622 194.47C172.528 196.679 172.945 198.679 173.872 200.765C174.673 202.51 174.962 204.594 175.209 206.55C175.498 208.591 175.192 210.715 175.652 212.714C176.697 217.138 178.039 221.479 179.254 225.818C179.338 226.074 179.422 226.329 179.506 226.584C180.18 228.117 180.939 229.65 180.422 231.433C180.336 231.73 180.547 232.114 180.715 232.454C181.136 233.391 181.643 234.285 181.936 235.264C182.441 236.711 183.331 237.182 184.821 236.678C185.544 236.426 186.352 236.344 187.118 236.177ZM130.268 137.351C130.522 137.437 130.777 137.481 131.032 137.567C131.246 137.185 131.544 136.846 131.631 136.422C131.89 135.445 131.979 134.426 132.28 133.492C132.452 133.025 133.006 132.73 133.39 132.349C133.557 132.945 133.98 133.584 133.85 134.093C133.592 134.985 133.036 135.79 132.565 136.638C131.495 138.546 131.657 140.587 133.057 141.315C134.074 141.872 135.477 141.92 135.172 143.661C135.172 143.746 135.468 143.96 135.638 144.045C136.486 144.644 137.376 145.242 138.223 145.798C139.325 146.525 139.153 147.162 138.427 148.136C136.846 150.17 136.412 152.463 137.549 154.975C138.103 154.722 138.614 154.512 138.912 154.386C139.714 155.749 140.516 156.9 141.149 158.177C141.613 159.071 141.821 160.05 142.115 161.028C142.283 161.497 142.281 162.049 142.535 162.348C144.649 164.863 146.764 167.379 148.965 169.768C150.234 171.176 151.759 172.329 153.114 173.652C153.41 173.951 153.662 174.759 153.491 175.056C152.55 176.582 151.566 178.108 150.371 179.379C149.134 180.649 147.6 181.663 146.193 182.804C145.937 183.016 145.765 183.398 145.295 184.118C148.017 183.534 148.011 185.192 147.917 187.274C152.694 183 157.636 179.875 161.777 175.302C161.14 175.214 160.885 175.213 160.673 175.127C160.206 174.955 159.739 174.741 159.23 174.527C159.614 174.146 159.956 173.722 160.382 173.384C160.851 173.003 161.532 172.751 161.789 172.242C162.56 170.8 163.161 169.272 163.762 167.787C164.32 166.43 165.088 165.498 166.788 165.632C166.445 166.395 165.677 166.987 165.547 167.624C165.154 170.3 162.468 172.415 163.519 175.436C163.603 175.649 163.474 175.946 163.431 176.243C163.16 180.237 161.785 183.887 160.283 187.536C160.111 187.96 160.152 188.513 160.107 189.022C160.66 189.025 161.296 189.24 161.722 189.029C162.233 188.776 162.959 187.929 162.832 187.716C161.904 185.97 163.31 185.21 164.248 184.449C165.868 183.138 167.742 182.126 169.489 180.942C170 180.605 170.342 180.053 170.812 179.588C170.642 179.417 170.516 179.204 170.347 179.033C169.282 179.624 168.217 180.215 167.11 180.763C166.769 180.932 166.344 180.887 165.962 180.928C166.048 180.504 166.008 179.994 166.222 179.697C166.521 179.316 167.032 179.02 167.543 178.81C168.82 178.305 170.138 177.928 171.416 177.338C171.969 177.085 172.354 176.534 173.036 175.899C170.745 175.083 169.543 178.138 167.678 176.728C168.361 176.008 169.426 175.375 169.472 174.652C169.607 172.741 170.799 172.065 172.247 171.391C173.141 171.012 173.95 170.548 174.845 170.084C174.803 169.914 174.761 169.744 174.719 169.573C174.166 169.656 173.613 169.782 173.018 169.779C172.636 169.778 172.041 169.733 171.83 169.477C170.73 168.07 170.825 165.605 172.02 164.42C172.233 164.209 173.168 164.255 173.252 164.468C173.926 165.873 174.609 165.196 175.334 164.561C173.648 161.197 177.556 161.637 178.626 159.687C177.946 159.769 177.563 159.767 177.265 159.894C176.158 160.399 175.136 161.033 173.987 161.453C173.518 161.621 172.882 161.406 172.329 161.362C172.629 160.98 172.801 160.471 173.184 160.302C174.887 159.417 176.59 158.659 178.294 157.773C178.634 157.604 178.891 157.18 179.19 156.841C178.765 156.712 178.214 156.328 177.916 156.454C176.809 157.002 175.786 157.763 174.679 158.311C174.296 158.522 173.743 158.477 173.276 158.518C173.362 158.093 173.322 157.498 173.621 157.244C175.882 155.171 178.184 153.182 180.445 151.109C180.744 150.855 180.831 150.346 181.002 149.964C180.534 150.004 179.94 149.917 179.641 150.171C178.661 150.932 177.807 151.906 176.784 152.709C176.358 153.005 175.72 153.045 175.21 153.171C175.424 152.619 175.596 152.067 175.896 151.601C176.11 151.262 176.62 151.136 176.919 150.882C177.43 150.502 177.899 150.079 178.795 149.275C176.588 148.586 174.891 147.772 173.191 147.723C172.427 147.677 171.656 149.204 170.845 150.051C170.674 150.263 170.503 150.517 170.248 150.601C169.652 150.811 169.014 150.978 168.418 151.146C168.251 150.465 168.083 149.785 168.001 149.104C167.96 148.807 168.216 148.51 168.302 148.213C168.691 146.685 168.1 145.747 166.571 145.444C165.042 145.098 164.706 144.161 165.731 142.975C166.414 142.171 167.182 141.451 167.823 140.604C168.335 139.926 168.721 139.12 169.32 138.06C168.512 138.142 168.257 138.183 168.002 138.14C167.28 138.094 166.601 138.006 165.878 137.919C166.306 137.368 166.606 136.689 167.16 136.309C168.651 135.252 170.27 134.281 171.847 133.31C173.806 132.128 173.894 131.406 172.115 130.039C170.25 128.586 168.344 127.176 166.437 125.808C165.844 125.381 165.165 125.123 164.486 124.823C163.086 124.18 160.917 124.596 160.757 122.173C160.757 121.961 160.291 121.661 160.036 121.66C158.804 121.57 157.614 121.481 156.382 121.476C156.085 121.475 155.658 121.813 155.572 122.068C154.757 124.062 154.026 126.099 153.211 128.093C152.567 129.663 152.517 131.533 150.599 132.928C150.645 132.035 150.562 131.482 150.734 131.016C151.766 128.13 152.84 125.244 153.914 122.358C154.172 121.594 155.025 120.705 153.922 120.148C153.117 119.763 152.054 119.801 151.119 119.755C150.609 119.71 150.099 119.921 149.588 120.004C149.718 119.367 149.763 118.729 149.978 118.135C150.107 117.753 150.406 117.372 150.62 117.033C147.17 119.017 143.978 120.066 140.46 117.842C140.121 117.628 139.653 117.627 139.229 117.455C136.725 116.552 133.922 116.116 131.846 114.62C129.218 112.74 126.245 112.473 123.4 111.654C121.957 111.266 121.188 112.283 121.565 113.729C121.732 114.325 121.985 114.836 122.322 115.73C123.176 114.586 123.817 113.738 124.415 112.891C124.585 112.976 124.755 113.062 124.924 113.19C124.752 113.827 124.622 114.464 124.407 115.058C124.02 116.119 123.506 117.095 123.162 118.156C122.388 120.32 122.81 121.087 125.189 121.351C126.463 121.526 126.377 121.993 126.117 123.055C125.685 124.881 125.592 126.793 125.415 128.662C125.414 128.832 125.753 129.088 126.219 129.558C126.392 128.836 126.478 128.411 126.565 127.987C126.869 126.373 127.173 124.802 127.519 123.188C127.606 122.806 128.032 122.553 128.331 122.214C128.499 122.639 128.922 123.151 128.835 123.533C128.619 124.552 128.105 125.528 127.931 126.547C127.626 128.416 127.406 130.285 127.313 132.155C127.312 132.495 127.948 132.88 128.286 133.263C128.543 132.925 128.927 132.586 129.013 132.161C129.575 129.741 130.01 127.278 130.615 124.858C130.744 124.348 131.256 123.925 131.598 123.459C131.808 124.013 132.316 124.61 132.229 125.119C131.795 127.37 131.064 129.535 130.672 131.786C130.537 133.612 130.487 135.482 130.268 137.351ZM270.156 151.595C270.198 151.765 270.282 151.893 270.324 152.063C270.026 152.317 269.769 152.656 269.429 152.824C266.959 154.047 264.531 155.397 262.02 156.45C259.082 157.67 256.061 158.678 253.082 159.729C251.465 160.275 250.824 161.165 251.242 162.952C251.618 164.483 251.999 164.825 253.489 164.151C254.596 163.645 255.661 163.097 256.81 162.634C260.088 161.287 263.365 160.025 266.643 158.636C267.111 158.425 267.453 157.959 268.136 157.367C267.328 157.363 266.945 157.447 266.606 157.36C266.224 157.231 265.885 156.975 265.503 156.761C265.886 156.55 266.228 156.169 266.611 156.128C267.121 156.045 267.673 156.09 268.183 156.219C268.862 156.392 269.54 156.735 270.177 157.035C269.749 157.628 269.449 158.477 268.852 158.857C267.616 159.659 266.212 160.206 264.934 160.924C264.593 161.092 264.166 161.643 264.25 161.856C264.419 162.197 264.842 162.623 265.225 162.667C265.946 162.798 266.712 162.631 267.434 162.719C267.859 162.763 268.24 163.062 268.622 163.276C268.365 163.657 268.236 164.167 267.895 164.378C265.978 165.603 264.061 166.785 262.101 167.925C261.249 168.389 260.271 168.683 259.334 169.061C259.758 169.318 260.013 169.277 260.311 169.193C261.545 168.773 262.094 169.795 262.516 170.519C262.685 170.775 262.128 171.75 261.66 172.088C260.637 172.806 259.487 173.397 258.38 173.987C257.571 174.409 256.719 174.746 255.868 175.125C255.909 175.338 255.951 175.508 255.993 175.72C256.801 175.596 257.651 175.6 258.374 175.347C260.588 174.464 260.63 174.464 260.961 176.718C261.343 176.762 261.768 176.806 262.193 176.765C262.874 176.725 263.554 176.686 264.191 176.646C264.189 177.283 264.144 177.963 264.183 178.601C264.182 178.898 264.436 179.154 264.52 179.452C264.646 179.792 264.942 180.219 264.814 180.431C263.829 182.169 264.891 182.258 266.209 182.306C266.634 182.308 267.057 182.735 267.524 182.821C269.817 183.341 271.676 185.983 274.489 184.039C275.767 183.194 276.023 183.025 274.922 181.916C274.16 181.105 273.48 181.145 272.585 181.779C272.116 182.117 271.097 182.113 270.588 181.814C270.079 181.514 269.531 180.449 269.745 180.025C270.688 177.989 269.375 176.794 268.147 175.811C266.579 174.573 266.797 173.256 267.525 171.899C270.436 166.513 271.395 160.652 271.759 154.619C271.897 151.857 271.908 149.137 271.877 146.374C271.801 144.121 270.571 143.351 268.528 144.108C266.996 144.697 265.464 145.244 263.932 145.832C261.378 146.842 258.866 147.895 256.312 148.904C255.589 149.199 254.865 149.494 254.1 149.661C251.93 150.247 249.76 150.791 247.548 151.292C247.123 151.375 246.614 151.246 246.146 151.244C246.403 150.777 246.533 150.14 246.916 149.929C247.896 149.423 248.96 149.045 250.023 148.752C251.938 148.207 253.937 147.832 255.852 147.203C258.915 146.237 261.979 145.187 265.001 144.094C266.618 143.506 268.194 142.704 269.897 141.946C267.188 139.3 268.038 139.091 264.931 140.269C261.825 141.404 258.591 142.284 255.527 143.504C254.207 144.009 252.466 143.747 251.652 145.358C251.566 145.486 251.014 145.398 250.674 145.397C250.718 145.1 250.677 144.717 250.848 144.463C251.062 144.124 251.403 143.912 251.701 143.659C251.659 143.488 251.617 143.318 251.618 143.106C250.938 143.103 250.258 143.143 249.578 143.098C248.049 143.007 246.305 143.382 245.075 142.74C242.361 141.241 239.765 142.123 237.171 142.581C235.768 142.83 235.807 143.595 236.823 144.704C237.88 145.941 238.852 147.262 239.697 148.626C239.95 149.052 239.946 150.029 239.605 150.325C239.306 150.664 238.413 150.745 237.862 150.573C235.103 149.755 232.3 149.191 229.408 149.605C229.068 149.646 228.645 149.262 228.221 149.047C228.52 148.666 228.82 148.03 229.16 148.031C230.733 147.952 232.305 147.959 233.877 148.092C235.109 148.182 236.297 148.527 237.486 148.787C237.572 148.617 237.615 148.49 237.701 148.32C237.447 147.979 237.194 147.596 236.897 147.297C236.136 146.444 235.289 145.633 234.57 144.738C233.851 143.885 233.345 142.948 231.985 142.9C231.56 142.898 230.968 142.173 230.758 141.62C230.674 141.365 231.271 140.857 231.57 140.476C231.826 140.137 232.295 139.884 232.381 139.544C232.727 138.015 232.946 136.444 233.25 134.66C232.188 134.571 230.534 133.927 229.979 134.477C228.784 135.62 227.634 136.295 225.977 136.246C225.34 136.243 224.659 136.283 224.022 136.323C224.322 135.729 224.664 135.136 224.964 134.542C225.007 134.457 224.965 134.329 224.966 134.032C223.903 134.028 222.883 134.151 221.864 133.977C220.335 133.716 218.85 133.158 217.321 132.854C215.962 132.551 214.561 132.333 213.159 132.2C212.692 132.155 212.18 132.536 211.712 132.704C212.051 133.045 212.346 133.557 212.771 133.643C213.79 133.86 214.852 133.907 215.914 134.038C216.424 134.083 217.019 134.085 217.443 134.257C218.97 134.943 220.497 135.672 221.981 136.528C222.405 136.784 222.913 137.381 222.868 137.849C222.867 138.274 222.311 139.036 221.886 139.077C220.483 139.242 219.08 139.321 217.678 139.188C215.597 139.01 213.516 138.619 211.434 138.44C210.967 138.396 210.157 139.03 210.027 139.497C209.639 141.026 209.463 142.597 209.286 144.169C209.023 146.293 209.743 146.976 211.868 146.815C212.081 146.815 212.336 146.646 212.464 146.689C212.887 146.946 213.481 147.203 213.565 147.544C213.899 149.033 213.045 149.964 211.473 149.958C210.411 149.954 209.264 149.822 208.96 151.265C208.527 153.389 208.178 155.555 207.66 157.635C207.271 159.206 206.67 160.776 206.154 162.304C205.552 164.087 204.865 165.826 204.348 167.609C203.744 169.732 203.311 171.898 202.665 174.02C202.363 175.081 202.531 175.507 203.722 175.427C206.485 175.183 209.206 174.939 211.969 174.695C214.477 174.492 216.901 174.289 218.61 171.959C219.037 171.365 220.058 171.072 220.866 170.948C223.247 170.66 225.628 170.542 228.008 170.424C228.476 170.383 229.154 170.683 229.45 171.067C230.507 172.431 231.357 172.52 232.34 171.079C233.58 169.213 235.199 168.2 237.494 168.209C239.066 168.215 239.068 167.875 238.436 166.343C237.636 164.427 237.05 162.385 236.42 160.385C236.336 160.087 236.593 159.706 236.679 159.408C237.018 159.537 237.443 159.539 237.613 159.752C239.092 161.798 240.656 163.844 241.922 166.017C243.062 167.934 243.656 168.191 245.659 166.839C245.532 166.584 245.449 166.286 245.237 166.03C244.18 164.793 242.994 163.641 241.979 162.362C240.457 160.486 238.935 158.567 237.54 156.607C237.202 156.138 237.248 155.331 237.123 154.693C237.674 154.95 238.396 155.038 238.735 155.464C240.933 158.278 243.047 161.176 245.245 163.99C245.668 164.502 246.304 164.887 247.067 165.527C247.202 163.615 246.823 162.551 245.039 162.459C245.767 160.975 246.919 159.789 246.587 157.918C246.076 158.171 245.82 158.382 245.565 158.424C245.012 158.549 244.459 158.59 243.907 158.672C244.164 158.163 244.378 157.569 244.762 157.231C245.231 156.808 245.87 156.598 246.423 156.345C248.765 155.249 251.107 154.196 253.491 153.101C254.555 152.637 255.577 152.047 256.642 151.626C261.11 149.986 265.579 148.431 270.047 146.834C270.303 146.75 270.6 146.837 271.11 146.839C270.55 148.749 268.933 149.125 267.657 149.587C263.784 151.017 259.827 152.148 255.954 153.493C254.082 154.166 252.081 154.88 251.52 157.173C251.433 157.555 251.516 158.15 251.77 158.449C251.896 158.619 252.534 158.494 252.917 158.411C253.726 158.159 254.492 157.822 255.301 157.528C259.728 155.676 264.155 153.781 268.582 151.886C269.178 151.676 269.688 151.678 270.156 151.595ZM192.768 151.456C192.727 151.201 192.643 150.945 192.601 150.69C193.58 150.439 194.558 150.23 195.494 149.894C199.196 148.634 202.899 147.331 206.559 145.986C207.027 145.818 207.454 145.352 207.796 144.928C207.881 144.801 207.671 144.163 207.544 144.162C206.992 144.118 206.439 144.115 205.928 144.283C204.822 144.661 203.8 145.252 202.736 145.546C199.758 146.426 196.737 147.264 193.717 147.975C192.653 148.225 191.588 148.901 190.444 148.174C191.083 147.709 191.764 147.499 192.445 147.289C196.742 146.074 201.082 144.817 205.379 143.644C207.591 143.058 208.06 142.549 208.283 140.085C208.505 137.494 206.939 136 204.388 136.33C202.942 136.537 201.496 136.701 200.093 136.95C198.945 137.158 197.796 137.408 196.648 137.744C195.499 138.122 194.391 138.712 193.242 139.09C188.732 140.602 184.263 142.114 179.753 143.584C179.284 143.752 178.732 143.707 178.222 143.748C178.18 143.578 178.138 143.407 178.097 143.237C180.908 141.549 184.014 140.583 187.079 139.491C190.185 138.398 193.629 138.157 196.525 136.468C196.441 136.171 196.358 135.873 196.274 135.575C189.002 136.608 182.359 140.024 174.873 141.737C175.857 140.126 177.089 140.131 178.238 139.838C181.556 138.916 184.832 137.909 188.067 136.775C189.003 136.438 190.279 136.273 190.54 134.702C184.157 136.717 177.945 138.689 171.732 140.619C171.648 140.492 171.606 140.364 171.521 140.236C172.075 139.856 172.588 139.263 173.226 139.053C177.268 137.837 181.352 136.705 185.395 135.489C185.735 135.405 185.949 134.981 186.205 134.727C185.866 134.513 185.57 134.13 185.23 134.128C183.912 134.166 182.553 134.16 181.319 134.453C179.532 134.871 177.829 135.799 176.043 136.047C173.577 136.419 171.83 137.517 170.631 139.722C170.16 140.571 169.435 141.333 168.921 142.181C168.75 142.477 168.875 143.2 169.087 143.329C169.977 143.885 170.91 144.441 171.886 144.742C174.263 145.517 176.683 146.079 179.06 146.811C180.503 147.242 181.439 146.948 182.294 145.634C182.807 144.871 183.532 144.194 184.342 143.73C185.236 143.181 186.258 142.887 187.279 142.551C189.619 141.753 191.96 140.955 194.343 140.2C197.322 139.234 200.258 138.268 203.236 137.303C203.492 137.219 203.831 137.433 204.128 137.476C204.213 137.604 204.255 137.774 204.339 137.902C204.084 138.029 203.871 138.155 203.615 138.239C199.189 139.752 194.764 141.221 190.338 142.776C188.423 143.448 186.508 144.078 184.677 144.879C184.337 145.047 184.291 145.897 184.118 146.449C184.586 146.451 185.095 146.623 185.521 146.497C187.648 145.868 189.691 145.069 191.818 144.482C193.392 144.063 195.05 144.027 196.582 143.524C199.476 142.6 202.328 141.422 205.222 140.371C205.647 140.202 206.115 140.247 206.582 140.164C206.667 140.334 206.708 140.547 206.793 140.717C206.111 141.097 205.472 141.604 204.748 141.856C202.322 142.696 199.855 143.452 197.387 144.164C194.068 145.129 190.75 146.008 187.431 146.929C186.666 147.139 185.9 147.391 185.134 147.643C185.769 148.198 186.404 148.71 186.997 149.265C187.293 149.521 187.632 149.82 187.673 150.16C187.715 150.373 187.246 150.839 186.991 150.88C185.758 151.003 185.67 151.725 185.581 152.745C185.447 154.316 185.186 155.888 184.797 157.416C184.71 157.841 184.029 158.093 183.603 158.432C183.52 157.921 183.395 157.453 183.397 156.943C183.398 156.476 183.57 156.009 183.657 155.542C183.53 155.456 183.403 155.413 183.276 155.328C182.977 155.539 182.552 155.707 182.38 156.004C181.781 157.149 181.181 158.337 180.709 159.525C180.623 159.78 180.833 160.333 181.087 160.504C183.586 162.639 183.491 165.231 181.954 166.925C180.417 168.704 179.007 170.568 177.598 172.432C177.128 173.068 176.742 173.874 178.016 174.007C179.631 174.141 181.288 174.062 182.946 174.069C185.496 174.036 188.005 173.537 190.508 174.566C191.484 174.953 192.546 175.085 193.608 175.174C194.033 175.218 194.672 174.838 194.844 174.456C195.444 173.099 195.832 171.698 196.39 170.34C196.648 169.661 197.117 169.068 197.46 168.389C197.63 168.475 197.757 168.56 197.927 168.646C197.792 170.346 198.083 172.089 196.802 173.572C196.503 173.91 196.499 174.845 196.753 175.186C197.303 175.826 200.707 174.862 200.965 174.013C201.567 172.188 202.127 170.32 202.645 168.452C203.248 166.245 203.768 163.952 204.456 161.745C204.844 160.514 205.613 159.369 206.128 158.139C206.772 156.612 206.223 155.759 204.565 155.795C203.673 155.792 202.78 155.958 201.886 156.125C200.313 156.373 198.739 156.665 197.166 156.871C195.933 156.993 195.043 156.437 194.452 155.33C194.241 154.947 193.946 154.52 193.564 154.306C192.674 153.793 191.698 153.449 190.807 152.893C190.426 152.679 190.173 152.168 189.877 151.784C190.218 151.488 190.56 151.022 190.9 151.023C191.325 151.025 191.961 151.368 192.087 151.708C192.591 153.113 193.527 152.904 194.548 152.568C195.016 152.442 195.443 152.146 195.868 152.063C196.251 152.022 196.632 152.236 197.014 152.323C196.843 152.662 196.714 153.001 196.543 153.341C196.329 153.722 195.859 154.231 195.943 154.486C196.154 154.869 196.662 155.296 197.087 155.383C197.724 155.513 198.447 155.346 199.127 155.264C201.253 155.06 203.337 154.77 205.462 154.651C206.312 154.612 206.908 154.53 207.081 153.595C207.168 153.043 207.426 152.449 207.513 151.897C207.774 150.326 207.096 149.813 205.607 150.317C205.054 150.485 204.501 150.653 203.947 150.82C202.884 151.071 201.821 151.194 200.8 151.573C199.991 151.867 199.438 151.907 199.23 150.972C199.021 149.951 198.469 149.821 197.618 150.158C197.022 150.368 196.426 150.663 195.831 150.788C194.809 151.209 193.789 151.29 192.768 151.456ZM108.187 68.8389C107.932 69.0079 107.634 69.1342 107.42 69.3034C103.625 72.5182 99.8301 75.733 94.8105 76.9454C92.7686 77.4473 92.2536 78.7202 93.4799 80.2551C92.797 80.9749 92.1983 81.9075 91.346 82.4991C88.9594 84.1895 86.4885 85.7096 84.1022 87.3151C81.801 88.8784 78.9075 89.8018 77.6636 92.6868C77.535 92.9413 77.2369 93.1101 76.9386 93.3214C75.2341 94.4621 73.53 95.5178 72.7989 97.6823C72.455 98.6585 72.3679 99.1681 73.258 99.7666C73.5971 99.9805 73.6366 100.746 73.677 101.256C73.7175 101.766 73.3318 102.572 73.5859 102.785C73.8822 103.084 74.647 103.13 75.1573 103.047C75.8378 102.922 76.4766 102.584 77.3279 102.248C76.8621 101.821 76.6507 101.565 76.3962 101.437C75.124 100.752 75.3399 99.9025 76.1085 98.9705C76.9199 97.9963 77.4713 98.2535 78.0197 99.2757C78.104 99.446 78.6558 99.6182 78.7837 99.5337C79.0393 99.3647 79.424 98.8138 79.3395 98.6859C78.4107 97.1523 79.6054 95.967 79.9081 94.6508C80.3407 92.74 80.809 92.5294 82.7639 92.5372C83.8688 92.5416 84.9753 92.1635 86.0814 91.8704C87.3576 91.5355 88.5916 91.158 89.868 90.7806C90.719 90.529 91.6541 90.4902 92.4207 90.0683C94.9337 88.6758 97.4458 87.4958 100.253 86.7846C101.062 86.5753 101.789 85.4732 102.344 84.6254C103.883 82.3791 105.338 80.0474 106.877 77.7586C107.048 77.5043 107.431 77.2508 107.643 77.2942C109.979 77.8135 110.239 76.5395 110.034 74.6687C109.993 74.3286 110.292 73.9048 110.506 73.5231C110.806 72.9294 111.233 72.3361 111.491 71.6996C111.62 71.3176 111.494 70.8496 111.496 70.4246C111.07 70.5079 110.476 70.4206 110.22 70.717C109.58 71.352 109.194 72.2004 108.596 72.8355C107.956 73.513 107.231 74.1051 106.507 74.6547C106.379 74.7392 105.869 74.6946 105.827 74.5669C105.7 74.3115 105.66 73.9288 105.788 73.7168C105.959 73.42 106.3 73.2088 106.598 72.9975C107.664 72.1943 108.522 70.0728 108.187 68.8389ZM90.9463 97.4573C89.8004 97.0702 88.9512 96.8968 88.2302 96.5115C87.2547 96.0401 86.5315 96.2072 85.6366 96.8411C84.4007 97.6862 82.8266 98.1049 81.6332 98.9926C80.9512 99.4999 80.522 100.561 80.2211 101.409C80.1351 101.664 80.8123 102.347 81.2364 102.561C82.1695 103.032 83.1883 103.334 84.1643 103.678C85.3102 104.065 86.4974 104.749 87.6454 104.627C92.1519 104.177 96.4826 105.214 100.901 105.614C103.96 105.882 107.018 106.276 110.034 106.586C111.563 106.72 111.692 106.465 111.315 105.019C110.688 102.424 109.081 100.505 107.218 98.7547C106.117 97.7304 105.143 96.8765 106.678 95.4801C106.806 95.3531 106.68 95.0126 106.682 94.5027C104.468 95.6413 102.466 96.7383 100.38 97.7075C99.5284 98.0866 98.5494 98.4651 97.6571 98.4191C95.2776 98.3246 93.1086 98.7409 91.1478 100.221C90.8494 100.432 90.466 100.685 90.1687 100.642C89.7013 100.597 89.0647 100.382 88.8536 100.041C88.6845 99.8282 89.0273 99.1071 89.3262 98.7683C89.6678 98.3447 90.179 98.0492 90.9463 97.4573ZM136.547 161.304C136.672 161.772 136.881 162.707 137.217 163.601C138.69 167.262 140.163 170.966 141.763 174.584C142.227 175.649 142.987 176.757 143.962 177.398C144.386 177.655 145.579 176.81 146.431 176.43C146.729 176.304 146.984 176.135 147.282 176.009C148.901 175.165 148.945 174.783 147.675 173.503C145.177 171.028 142.936 168.342 142.057 164.811C141.639 163.194 141.135 161.534 140.376 160.044C139.871 159.022 138.853 158.295 138.049 157.442C137.621 158.375 137.15 159.309 136.721 160.284C136.593 160.369 136.634 160.582 136.547 161.304ZM333.731 173.226C333.945 173.057 334.158 172.888 334.328 172.761C333.399 171.27 332.812 169.312 331.498 168.414C327.811 165.977 325.404 162.143 321.332 160.171C318.575 158.843 316.929 155.776 313.788 154.829C312.515 154.441 311.285 153.884 310.055 153.326C309.376 153.026 308.57 152.683 308.232 152.087C307.304 150.383 305.82 149.612 304.036 149.223C303.612 149.136 302.974 149.176 302.76 149.43C302.547 149.727 302.587 150.364 302.713 150.747C302.965 151.513 303.387 152.195 303.639 152.918C303.933 153.897 304.483 154.282 305.504 154.201C307.289 154.038 308.902 154.512 310.428 155.58C311.911 156.606 313.523 157.505 315.178 158.064C317.767 158.925 320.057 159.996 321.237 162.636C321.448 163.062 321.999 163.362 322.38 163.703C323.142 164.429 323.819 165.239 324.581 165.922C326.317 167.459 327.669 169.504 330.345 169.727C330.898 169.772 331.404 170.709 331.912 171.264C332.589 171.989 333.181 172.629 333.731 173.226ZM160.593 184.307C160.256 183.753 160.087 183.37 160.002 183.37C159.662 183.411 159.322 183.537 159.066 183.748C157.573 185.102 156.207 186.627 154.63 187.811C152.072 189.755 149.388 191.53 146.703 193.346C146.021 193.811 145.212 194.148 144.531 194.613C142.017 196.133 139.461 197.61 137.032 199.3C136.052 199.976 136.47 201.763 137.531 202.15C138.55 202.494 141.318 200.975 141.322 199.87C141.375 197.448 142.949 196.816 144.864 196.314C149.246 195.142 153.755 194.14 156.576 190.028C157.901 188.079 159.311 186.172 160.593 184.307ZM272.693 133.5C272.098 133.625 271.503 133.538 271.289 133.792C270.478 134.809 269.501 134.762 268.397 134.545C268.184 134.502 267.972 134.544 267.759 134.585C264.27 135.549 260.739 136.427 257.293 137.561C255.803 138.065 254.482 139.122 253.161 140.009C252.905 140.178 252.859 141.156 252.944 141.156C253.877 141.542 254.894 142.141 255.83 142.018C257.106 141.853 258.256 141.135 259.49 140.672C262.852 139.496 266.214 138.319 269.619 137.143C269.917 137.059 270.257 136.89 270.428 136.636C271.154 135.746 271.796 134.771 272.693 133.5ZM146.729 186.972C146.305 186.502 146.053 185.949 145.671 185.82C144.907 185.562 144.058 185.346 143.25 185.343C142.74 185.341 142.059 185.72 141.717 186.102C139.752 188.644 137.83 191.228 135.949 193.813C135.65 194.237 135.605 194.832 135.433 195.341C135.944 195.258 136.581 195.346 136.964 195.05C139.82 193.064 142.632 191.078 145.403 188.964C145.957 188.583 146.215 187.777 146.729 186.972ZM252.405 169.586C254.742 169.723 264.832 165.301 265.39 163.901C264.499 163.345 261.559 165.245 263.189 161.512C260.509 162.351 258.422 163.32 256.378 164.46C256.25 164.544 256.164 164.714 256.164 164.884C256.069 167.263 254.195 168.276 252.405 169.586ZM248.228 193.837C246.822 194.766 245.67 195.994 244.309 196.371C242.096 196.915 241.665 198.655 240.978 200.268C240.549 201.243 241.099 201.841 242.163 201.632C242.886 201.508 243.567 201.213 244.29 201.046C246.843 200.334 249.11 196.56 248.228 193.837ZM272.84 160.53C273.01 160.574 273.137 160.574 273.307 160.617C273.435 160.448 273.606 160.321 273.649 160.151C274.894 157.011 276.181 153.914 277.342 150.731C277.513 150.307 277.176 149.498 276.795 149.156C275.99 148.516 275.015 148.087 273.912 147.445C273.555 151.863 273.197 156.197 272.84 160.53ZM303.24 220.831C302.22 221.04 301.54 221.037 301.156 221.333C300.857 221.587 300.641 222.521 300.811 222.691C302.377 224.27 304.07 225.807 305.764 227.301C306.103 227.557 306.698 227.517 307.166 227.604C307.253 227.052 307.595 226.416 307.384 226.033C306.794 224.755 306.162 223.435 305.274 222.327C304.725 221.644 303.791 221.258 303.24 220.831ZM297.718 188.212C296.099 189.268 294.779 190.028 293.542 191C293.287 191.212 293.198 192.104 293.409 192.402C294.254 193.68 295.227 194.832 296.2 196.026C296.453 196.367 296.877 196.581 297.513 197.093C297.993 193.823 297.962 190.933 297.718 188.212ZM278.383 145.38C278.813 143.979 278.732 143.002 277.672 142.36C275.934 141.29 275.176 139.715 275.099 137.717C275.1 137.42 275.144 136.952 274.932 136.824C274.424 136.397 273.789 135.884 273.194 135.84C272.854 135.796 272.425 136.686 272.126 137.195C271.912 137.534 271.825 138.002 271.824 138.384C271.822 138.767 271.862 139.319 272.117 139.533C273.725 141.112 275.376 142.648 277.028 144.185C277.409 144.526 277.832 144.868 278.383 145.38ZM289.708 140.24C289.961 140.666 290.045 140.922 290.214 141.092C291.569 142.5 292.838 143.908 294.278 145.231C294.997 145.914 295.845 146.47 296.694 146.856C297.16 147.07 297.841 146.775 298.437 146.693C298.311 146.182 298.314 145.545 297.975 145.118C296.116 142.561 293.145 141.529 290.516 140.074C290.389 140.031 290.133 140.157 289.708 140.24ZM192.493 241.596C192.454 240.746 192.457 240.066 192.332 239.386C192.248 239.045 191.953 238.619 191.698 238.533C190.891 238.317 190.084 238.272 189.277 238.226C187.959 238.178 186.684 238.216 185.367 238.21C185.153 238.549 184.939 238.931 184.725 239.27C185.277 239.485 185.786 239.699 186.337 239.957C187.016 240.299 187.908 240.473 188.246 241.027C189.513 242.902 190.961 242.185 192.493 241.596ZM128.325 251.327C127.561 251.197 126.966 251.067 126.414 251.022C122.419 250.921 118.383 250.82 114.388 250.762C114.006 250.76 113.664 251.226 113.28 251.48C113.576 251.863 113.83 252.247 114.168 252.546C114.338 252.674 114.678 252.59 114.933 252.591C116.719 252.429 118.505 252.138 120.29 252.103C122.202 252.068 124.157 252.246 126.111 252.424C126.96 252.512 127.768 252.558 128.325 251.327ZM241.751 187.521C241.835 187.819 241.791 188.329 242.044 188.712C242.931 190.118 243.818 191.524 244.832 192.888C244.959 193.016 245.767 192.934 245.981 192.68C246.749 191.833 246.753 190.856 246.077 189.918C245.062 188.512 244.048 187.148 242.948 185.826C242.821 185.698 242.098 185.78 242.013 185.949C241.841 186.374 241.839 186.884 241.751 187.521ZM117.293 119.28C117.165 119.364 117.037 119.406 116.91 119.491C117.035 119.916 117.119 120.342 117.33 120.725C118.551 123.45 119.815 126.217 121.079 128.942C121.29 129.368 121.714 129.625 122.052 129.966C122.182 129.499 122.524 128.948 122.356 128.565C121.302 126.223 120.249 123.882 119.069 121.582C118.647 120.73 117.927 120.047 117.293 119.28ZM157.675 191.52C156.012 192.916 154.392 194.27 152.814 195.666C152.643 195.793 152.683 196.473 152.725 196.473C153.744 196.732 154.847 197.289 155.74 197.037C156.889 196.702 158.052 192.839 157.675 191.52ZM70.5193 93.8483C74.7245 94.3751 76.6059 91.4926 78.6138 88.8657C76.1022 89.9181 73.6748 91.1834 71.2895 92.5339C70.9487 92.745 70.8188 93.3395 70.5193 93.8483ZM306.646 155.48C306.56 155.693 306.517 155.905 306.431 156.074C310.331 158.555 314.188 161.078 319.242 161.863C318.777 161.436 318.523 161.095 318.184 160.924C316.741 160.281 315.256 159.765 313.856 159.079C311.948 158.094 310.125 156.939 308.259 155.912C307.75 155.697 307.155 155.652 306.646 155.48ZM91.8577 39.4915C91.4409 37.4499 84.1495 32.8733 81.5579 32.693C84.4773 35.9346 88.5951 37.056 91.8577 39.4915ZM250.443 171.278C250.86 173.405 252.767 174.815 254.086 174.353C255.576 173.806 257.107 173.345 258.513 172.628C259.449 172.164 260.218 171.317 261.07 170.641C260.986 170.513 260.901 170.428 260.817 170.3C258.944 171.015 257.114 171.772 255.241 172.445C254.092 172.865 252.857 173.54 251.928 171.922C251.717 171.623 251.122 171.536 250.443 171.278ZM315.054 146.547C315.302 148.162 316.235 148.634 317.296 149.02C319.758 149.923 322.433 150.358 324.294 152.533C324.421 152.704 324.719 152.663 324.974 152.749C325.102 152.622 325.187 152.494 325.315 152.41C324.596 151.6 323.962 150.577 323.072 150.064C320.994 148.908 318.788 148.006 316.624 147.063C316.158 146.806 315.691 146.719 315.054 146.547ZM254.331 134.234C254.882 134.619 255.816 134.963 255.941 135.473C256.234 136.622 256.83 136.454 257.596 136.202C259.255 135.741 260.957 135.281 262.616 134.777C262.956 134.694 263.213 134.312 263.511 134.101C263.129 133.929 262.748 133.588 262.408 133.629C259.815 133.746 257.265 133.948 254.671 134.151C254.502 134.107 254.288 134.277 254.331 134.234ZM238.692 134.087C238.522 134.256 237.925 134.721 237.967 134.891C238.473 135.871 239.064 136.851 239.698 137.746C239.825 137.916 240.377 137.918 240.675 137.792C241.186 137.582 241.697 137.286 242.166 136.906C242.507 136.652 242.976 136.186 242.935 135.889C242.894 135.549 242.429 135.037 242.047 134.908C241.113 134.564 240.051 134.39 238.692 134.087ZM118.695 55.536C118.823 55.324 118.952 55.0696 119.08 54.8576C115.604 52.7187 112.128 50.5374 108.651 48.3985C108.523 48.6105 108.395 48.8225 108.266 48.992C111.871 51.0038 114.834 53.9906 118.695 55.536ZM187.678 180.93C187.678 180.973 187.678 180.973 187.678 181.015C188.145 181.017 188.655 181.147 189.08 180.978C189.591 180.81 189.975 180.387 190.444 180.091C189.978 179.792 189.512 179.237 189.045 179.236C187.472 179.272 185.899 179.436 184.326 179.642C183.943 179.683 183.601 180.191 183.26 180.487C183.684 180.702 184.107 181.128 184.532 181.13C185.552 181.177 186.615 181.011 187.678 180.93ZM82.407 86.1183C82.5338 86.2888 82.6607 86.4593 82.7876 86.5873C86.023 85.1978 91.1815 81.1384 91.4011 79.3543C88.1615 81.8063 85.263 83.9622 82.407 86.1183ZM330.65 178.696C329 176.692 327.05 175.409 324.415 175.569C324.16 175.568 323.691 175.863 323.733 176.033C323.774 176.331 323.942 176.842 324.197 176.928C326.32 177.531 328.485 178.092 330.65 178.696ZM157.864 80.1721C158.033 80.4703 158.075 80.6405 158.16 80.7258C160.322 82.0519 162.484 83.3781 164.646 84.7042C164.858 84.8325 165.368 84.7921 165.454 84.6649C165.582 84.4529 165.541 84.0703 165.414 83.8148C165.163 83.0063 158.885 80.0487 157.864 80.1721ZM272.191 174.17C272.233 174.34 272.316 174.723 272.485 174.979C272.569 175.107 272.995 175.066 273.207 174.982C274.23 174.433 275.048 171.632 274.5 170.609C274.331 170.354 273.992 170.097 273.695 170.011C273.525 169.968 273.183 170.349 273.097 170.604C272.753 171.707 272.493 172.854 272.191 174.17ZM235.839 135.733C235.412 136.029 234.774 136.324 234.432 136.79C234.176 137.129 234.172 138.064 234.426 138.192C234.85 138.449 235.531 138.367 236.083 138.369C236.381 138.37 236.72 138.371 237.018 138.245C237.529 138.077 237.998 137.824 238.466 137.613C238.128 137.187 237.832 136.718 237.451 136.377C237.069 136.163 236.56 136.033 235.839 135.733ZM209.834 70.8597C209.878 70.5624 209.921 70.2651 209.965 69.9678C208.777 69.4955 207.589 68.9808 206.4 68.6361C205.976 68.5069 205.379 68.9295 204.869 69.0974C205.164 69.6086 205.416 70.4596 205.798 70.5461C207.114 70.8489 208.474 70.8118 209.834 70.8597ZM299.876 201.268C300.046 201.269 300.216 201.312 300.428 201.313C300.732 199.826 301.12 198.383 301.339 196.854C301.383 196.429 301.003 195.875 300.664 195.491C300.537 195.363 299.687 195.53 299.686 195.572C299.636 197.484 299.203 199.438 299.876 201.268ZM130.708 144.153C130.58 144.323 130.452 144.492 130.323 144.661C130.492 144.96 130.661 145.258 130.872 145.514C132.014 146.878 133.157 148.2 134.299 149.522C134.595 149.864 134.934 150.162 135.315 150.376C135.358 150.419 135.912 149.911 135.87 149.784C135.744 149.358 135.533 148.975 135.237 148.634C134.264 147.482 133.334 146.373 132.276 145.307C131.81 144.88 131.216 144.58 130.708 144.153ZM114.449 97.2111C113.126 98.4383 112.738 99.8393 113.157 101.413C113.241 101.711 113.537 102.01 113.791 102.181C113.918 102.266 114.302 102.055 114.43 101.886C115.027 101.251 115.04 98.106 114.449 97.2111ZM207.647 75.696C207.945 75.5271 208.456 75.3592 208.542 75.062C208.628 74.8074 208.333 74.2112 208.036 74.04C207.231 73.6118 206.382 73.2684 205.533 73.0525C205.151 72.966 204.682 73.3466 204.256 73.5149C204.467 73.9408 204.592 74.6213 204.931 74.7926C205.737 75.2208 206.628 75.3944 207.647 75.696ZM302.484 218.576C302.958 217.005 300.339 213.085 298.725 212.823C299.95 214.741 301.217 216.658 302.484 218.576ZM187.916 110.637C187.874 110.637 188.086 110.68 188.299 110.638C188.767 110.513 189.192 110.387 189.618 110.219C189.364 109.878 189.111 109.494 188.814 109.195C188.603 108.982 188.307 108.641 188.052 108.64C187.372 108.68 186.691 108.762 186.095 109.057C185.797 109.183 185.667 109.778 185.453 110.159C186.048 110.289 186.599 110.462 187.194 110.591C187.321 110.634 187.491 110.635 187.916 110.637ZM81.0027 97.2476C82.4078 96.5732 83.5574 96.0253 84.7074 95.3924C84.8352 95.3079 84.7961 94.4578 84.669 94.3723C83.4809 93.9 81.1371 95.5057 81.0027 97.2476ZM286.487 137.975C285.689 135.677 283.483 134.521 281.398 135.277C283.179 136.219 284.664 136.99 286.487 137.975ZM120.98 132.342C121.737 134.385 122.282 136.342 124.018 137.879C124.195 136.18 122.549 133.198 120.98 132.342ZM180.777 163.69C179.966 164.749 179.154 165.724 178.513 166.741C178.385 166.911 178.891 167.763 179.061 167.763C180.166 167.725 181.409 165.01 180.777 163.69ZM250.119 156.615C247.993 157.116 247.392 158.559 248.362 160.348C250.234 159.76 249.858 158.144 250.119 156.615ZM116.273 108.651C116.614 108.397 116.912 108.143 117.253 107.89C116.919 106.571 116.669 105.252 116.291 103.976C116.208 103.721 115.783 103.591 115.486 103.378C115.358 103.717 115.016 104.098 115.1 104.439C115.266 105.417 115.602 106.353 115.853 107.289C115.979 107.757 116.105 108.183 116.273 108.651ZM234.805 96.5442C235.658 95.8676 236.34 95.3178 237.022 94.768C236.641 94.4265 236.091 93.7868 235.878 93.871C235.069 94.2502 234.387 94.8425 233.62 95.3919C233.916 95.6906 234.255 95.9895 234.805 96.5442ZM250.043 165.157C249.92 164.094 249.923 163.286 249.713 162.52C249.63 162.18 249.163 161.923 248.867 161.625C248.653 162.006 248.184 162.387 248.225 162.727C248.307 163.535 248.516 164.386 248.81 165.194C248.894 165.45 249.361 165.749 249.616 165.708C249.828 165.623 250 165.199 250.043 165.157ZM164.281 186.829C165.983 186.156 167.517 185.312 168.503 183.191C166.205 183.819 165.179 185.26 164.281 186.829ZM172.551 116.568C172.465 116.653 172.422 116.78 172.337 116.865C172.167 116.864 171.997 116.821 171.87 116.863C171.444 117.031 171.018 117.242 170.592 117.453C170.974 117.709 171.355 118.008 171.737 118.265C171.864 118.35 172.034 118.393 172.204 118.351C172.927 118.184 173.65 117.975 174.331 117.807C173.738 117.38 173.144 116.995 172.551 116.568ZM230.279 112.421C230.363 112.761 230.404 113.059 230.488 113.399C231.423 113.36 232.401 113.364 233.336 113.198C233.591 113.157 233.976 112.563 233.935 112.266C233.936 112.011 233.343 111.583 233.087 111.625C232.109 111.791 231.173 112.127 230.279 112.421ZM199.144 108.429C198.975 108.258 198.806 108.13 198.636 107.96C197.997 108.425 197.273 108.804 196.676 109.312C196.378 109.566 196.418 110.161 196.288 110.585C196.798 110.63 197.605 110.93 197.818 110.676C198.416 110.041 198.716 109.192 199.144 108.429ZM193.346 240.92C193.387 241.26 193.471 241.558 193.512 241.898C194.532 241.859 195.51 241.821 196.53 241.697C196.743 241.656 197.085 241.19 197.043 241.019C196.959 240.722 196.578 240.295 196.365 240.337C195.345 240.46 194.367 240.711 193.346 240.92ZM181.76 247.588C181.972 247.547 182.228 247.505 182.44 247.506C182.996 246.701 183.594 245.853 182.62 244.957C182.324 244.701 181.6 244.91 181.09 244.908C181.342 245.759 181.551 246.695 181.76 247.588ZM169.085 207.673C169.298 207.546 169.511 207.42 169.724 207.293C169.26 206.314 168.882 205.335 168.375 204.398C168.249 204.185 167.866 204.141 167.612 204.012C167.483 204.309 167.099 204.775 167.226 204.946C167.775 205.84 168.451 206.736 169.085 207.673ZM162.079 120.861C163.096 121.63 163.944 122.271 164.876 122.87C165.088 122.998 165.513 122.957 165.726 122.831C165.854 122.746 165.898 122.321 165.814 122.108C165.52 121.215 163.186 120.355 162.079 120.861ZM198.393 104.984C199.033 104.391 199.503 103.883 200.015 103.375C199.761 103.119 199.38 102.565 199.253 102.607C198.486 102.944 197.762 103.409 197.038 103.831C197.377 104.13 197.758 104.429 198.393 104.984ZM172.174 168.458C172.258 168.671 172.342 168.842 172.426 169.054C173.576 168.506 174.726 167.916 175.875 167.368C174.349 166.427 173.115 166.975 172.174 168.458ZM177.325 134.309C177.283 134.054 177.199 133.799 177.158 133.544C176.393 133.583 175.543 133.452 174.862 133.704C174.479 133.83 174.349 134.595 174.092 135.104C174.219 135.232 174.388 135.403 174.515 135.531C175.451 135.152 176.388 134.731 177.325 134.309ZM150.347 174.831C150.779 173.005 149.68 171.641 147.556 171.208C148.571 172.529 149.332 173.51 150.347 174.831ZM174.372 86.2305C174.243 86.5275 174.072 86.8243 173.944 87.0788C174.707 87.5068 175.512 88.02 176.318 88.3632C176.488 88.4489 176.871 88.1955 177.085 88.0263C177.17 87.9841 177.086 87.5588 176.959 87.4733C176.111 87.0449 175.22 86.6589 174.372 86.2305ZM175.536 92.6951C175.537 92.5251 175.58 92.3552 175.581 92.1852C175.072 91.9282 174.606 91.5439 174.054 91.4567C173.756 91.413 173.372 91.8789 173.031 92.1326C173.497 92.4744 173.92 92.9861 174.429 93.1581C174.726 93.2868 175.153 92.906 175.536 92.6951ZM201.223 130.707C201.224 130.452 201.225 130.155 201.226 129.9C200.121 129.938 199.016 130.018 197.911 130.056C197.91 130.269 197.909 130.481 197.908 130.694C199.056 130.699 200.118 130.703 201.223 130.707ZM101.763 251.646C100.915 251.133 100.449 250.749 99.9393 250.619C99.7695 250.576 99.4277 251.042 99.1292 251.296C99.51 251.722 99.8479 252.234 100.314 252.491C100.526 252.576 101.038 252.111 101.763 251.646ZM174.836 172.251C174.709 172.081 174.582 171.868 174.456 171.697C173.518 172.289 172.623 172.88 171.686 173.471C171.813 173.684 171.939 173.897 172.109 174.068C172.877 173.221 174.617 173.823 174.836 172.251ZM276.712 180.606C276.796 180.988 276.795 181.286 276.922 181.371C277.473 181.714 278.024 181.971 278.618 182.186C278.746 182.229 279.002 181.805 279.173 181.593C278.665 181.251 278.199 180.909 277.647 180.609C277.478 180.524 277.222 180.608 276.712 180.606ZM169.85 250.303C169.509 250.344 169.169 250.385 168.829 250.427C168.996 251.192 169.12 251.958 169.287 252.723C169.543 252.639 170.053 252.514 170.054 252.429C170.014 251.749 169.932 251.026 169.85 250.303ZM134.34 64.6934C135.48 66.5679 136.328 66.9538 137.733 66.3644C136.461 65.7219 135.4 65.2076 134.34 64.6934ZM106.485 250.433C106.11 248.476 105.135 247.92 103.771 248.849C104.661 249.405 105.51 249.876 106.485 250.433ZM239.391 193.376C239.645 193.547 239.899 193.761 240.196 193.932C240.666 193.382 241.135 192.831 241.562 192.323C241.223 192.151 240.672 191.767 240.587 191.851C240.118 192.274 239.775 192.825 239.391 193.376ZM142.2 246.07C142.116 245.9 142.032 245.73 141.99 245.56C141.181 245.896 140.415 246.191 139.606 246.527C140.961 247.68 141.56 246.875 142.2 246.07ZM230.737 178.892C230.521 179.571 230.222 179.952 230.349 180.165C230.56 180.591 230.941 180.933 231.237 181.317C231.408 181.02 231.834 180.639 231.75 180.426C231.582 179.958 231.201 179.574 230.737 178.892ZM213.318 71.1286C212.767 70.7439 212.428 70.4876 212.046 70.1886C211.875 70.4854 211.449 70.8662 211.533 70.994C211.787 71.42 212.168 71.719 212.506 72.0604C212.72 71.8487 212.976 71.5948 213.318 71.1286ZM244.061 194.585C243.977 194.287 243.893 194.032 243.767 193.734C243.086 193.986 242.405 194.238 241.723 194.533C241.807 194.789 241.891 195.044 241.976 195.257C242.656 195.047 243.38 194.795 244.061 194.585ZM126.48 245.073C126.396 244.817 126.312 244.562 126.228 244.307C125.462 244.601 124.696 244.853 123.93 245.147C124.014 245.36 124.098 245.616 124.182 245.828C124.948 245.576 125.714 245.325 126.48 245.073ZM219.955 101.117C219.361 100.775 219.023 100.434 218.768 100.475C218.47 100.516 218.213 100.94 217.957 101.194C218.254 101.451 218.55 101.877 218.889 101.963C219.102 102.006 219.443 101.54 219.955 101.117Z" fill="#365419"/>
<path d="M422.48 265.762C420.568 265.456 418.657 265.109 416.746 264.804C416.491 264.76 416.194 264.802 415.982 264.673C415.6 264.459 415.261 264.16 414.922 263.904C415.348 263.693 415.775 263.312 416.2 263.314C418.282 263.322 420.407 263.416 422.489 263.509C422.486 264.274 422.483 265.039 422.48 265.762Z" fill="#365419"/>
<path d="M422.602 235.162C421.837 235.074 421.03 235.071 420.265 234.941C419.671 234.811 419.077 234.596 418.611 234.211C418.399 234.041 418.444 233.488 418.403 233.106C418.785 233.107 419.168 233.024 419.55 233.068C420.57 233.199 421.631 233.416 422.651 233.548C422.606 234.1 422.604 234.652 422.602 235.162Z" fill="#365419"/>
<path d="M208.362 56.234C206.743 57.205 205.512 56.9026 204.239 56.5575C202.838 56.1694 201.394 55.9086 199.907 55.8177C199.524 55.7737 198.841 56.5359 198.755 57.0031C198.538 58.0222 198.111 58.488 197.132 58.8666C192.238 60.717 187.385 62.6951 182.532 64.6307C181.809 64.9254 181.255 65.2206 180.919 64.1993C180.835 63.9015 180.454 63.6025 180.2 63.4314C179.14 62.7047 178.718 61.9805 179.573 60.6665C180.472 59.2676 179.799 57.3949 178.358 56.4967C177.255 55.8123 177.046 55.0889 177.9 54.0724C178.711 53.0981 179.48 52.0812 180.249 51.0643C181.018 50.0474 180.81 48.9415 179.665 48.427C177.501 47.4833 175.293 46.9645 172.912 47.465C172.486 47.5483 171.935 47.2061 171.426 47.0766C171.809 46.8231 172.193 46.4847 172.619 46.2739C175.429 45.0526 178.448 44.5547 181.005 42.6099C182.583 41.4262 183.226 40.0688 183.615 38.3279C184.005 36.3744 184.608 34.4219 185.168 32.5116C185.254 32.2145 185.639 31.706 185.851 31.7493C187.168 31.9246 187.385 30.863 187.898 30.1C188.582 29.0403 189.266 27.9805 189.993 26.9209C191.36 24.9714 192.041 24.7191 194.291 25.2806C195.608 25.5834 196.924 25.8436 198.24 26.2739C198.622 26.4029 199.129 27.1274 199.043 27.4246C198.44 29.3771 199.967 30.1482 200.982 31.2998C200.858 30.5343 200.733 29.7688 200.609 28.9183C202.901 29.6074 204.296 31.653 204.032 33.8619C203.857 35.0512 203.385 36.1543 203.083 37.3006C202.522 39.3808 201.961 41.4611 201.443 43.5415C201.357 43.8386 201.356 44.2211 201.482 44.4766C202.2 45.712 202.917 46.9473 203.72 48.098C203.931 48.3964 204.654 48.3567 205.121 48.4861C205.503 48.6151 205.885 48.7017 206.139 48.9577C206.224 49.043 206.008 49.7221 205.753 49.8486C204.518 50.5662 204.939 51.3753 205.105 52.5235C205.395 54.3946 206.411 55.4187 208.362 56.234ZM198.445 28.0172C197.852 27.6323 197.683 27.4191 197.428 27.3331C196.155 26.988 194.924 26.5581 193.65 26.383C193.055 26.2957 192.162 26.4621 191.82 26.8857C190.624 28.3684 189.174 29.8501 188.657 31.5906C187.838 34.3923 186.723 36.9803 185.268 39.5244C184.283 41.2205 184.621 41.8593 186.7 42.7176C188.482 43.4472 189.461 43.0686 190.062 41.4986C190.319 40.8621 190.747 40.3113 191.131 39.7603C191.901 38.6159 192.67 37.514 193.397 36.3269C193.996 35.3943 194.084 34.7147 192.64 34.4964C191.196 34.2782 190.943 33.6397 191.417 32.1541C193.495 33.1824 193.495 33.1824 193.759 30.8034C193.891 29.699 194.234 28.9779 195.679 29.1111C196.486 29.1993 197.339 28.4802 198.445 28.0172ZM181.494 58.5067C182.346 58.1701 183.749 58.0057 184.347 57.2431C185.501 55.6752 187.076 54.874 188.61 53.9026C189.249 53.4802 189.635 52.6742 190.147 52.0388C189.469 51.6961 188.833 51.311 188.154 50.9683C188.027 50.8828 187.857 50.8397 187.73 50.7966C186.67 50.2824 185.777 50.2789 185.007 51.4658C184.366 52.4407 183.729 52.2682 183.224 51.1187C183.055 50.778 182.759 50.4793 182.548 50.1385C182.249 50.3923 181.866 50.6032 181.652 50.9424C180.883 51.9168 180.114 52.9337 179.43 53.9935C179.216 54.3326 179.044 54.9694 179.213 55.2676C179.846 56.2901 180.649 57.3133 181.494 58.5067ZM193.789 55.2408C193.662 55.1553 193.578 55.0274 193.451 54.9419C191.962 55.3185 190.43 55.6524 188.941 56.1564C188.516 56.2822 188.258 56.9612 187.916 57.3848C188.425 57.6843 189.102 58.367 189.443 58.2409C190.719 57.7785 191.912 57.0608 193.105 56.3855C193.404 56.0892 193.533 55.5798 193.789 55.2408ZM187.778 60.0192C188.117 60.3181 188.328 60.6589 188.456 60.6169C190.285 60.1992 192.071 59.7814 193.858 59.2785C193.986 59.2365 194.115 58.8546 194.073 58.7694C193.946 58.5564 193.692 58.3429 193.522 58.3422C193.012 58.3827 192.502 58.4656 191.991 58.5911C190.928 58.8843 189.906 59.1777 188.885 59.5137C188.502 59.6396 188.204 59.8084 187.778 60.0192ZM185.319 47.8121C185.831 47.4316 186.129 47.1778 186.47 46.9242C185.877 46.5818 185.326 46.1546 184.69 45.9396C184.477 45.8537 184.05 46.362 183.709 46.6156C184.218 47.0002 184.684 47.3845 185.319 47.8121ZM193.945 48.144C194.882 47.7227 195.563 47.428 196.244 47.1332C196.033 46.8773 195.865 46.4092 195.61 46.4082C194.675 46.2769 194.036 46.6569 193.945 48.144ZM194.131 44.1073C194.217 43.8526 194.303 43.6405 194.389 43.3858C193.838 43.1711 193.329 42.9141 192.734 42.7842C192.607 42.7412 192.35 43.2502 192.137 43.4618C192.816 43.677 193.495 43.8922 194.131 44.1073Z" fill="#365419"/>
<path d="M147.29 88.8423C146.779 89.0103 146.268 89.3907 145.801 89.3889C144.483 89.2986 143.081 89.3355 141.893 88.8633C139.262 87.7478 136.585 87.7371 133.948 88.1941C132.077 88.5266 130.331 89.5821 128.542 90.3825C126.967 91.0987 126.543 90.8845 126.21 89.1406C126.043 88.3325 125.706 87.5662 125.497 86.7578C125.413 86.46 125.372 86.0773 125.543 85.8655C125.671 85.696 126.139 85.6129 126.394 85.6989C128.77 86.5584 131.109 86.1002 133.406 85.5994C136.426 84.9315 139.446 84.2636 142.459 85.5506C144.198 86.3225 145.809 87.3914 147.462 88.2905C147.419 88.4603 147.333 88.63 147.29 88.8423Z" fill="#365419"/>
<path d="M145.617 92.7456C145.653 94.4032 144.758 95.1646 143.653 94.9902C143.313 94.9463 142.932 94.8173 142.592 94.646C139.581 93.0615 136.899 94.1557 134.259 95.6327C133.705 95.9705 132.981 96.2226 132.344 96.1775C131.834 96.133 131.029 95.6623 130.903 95.1943C130.777 94.8113 131.248 93.9632 131.717 93.71C132.866 93.0771 134.101 92.5721 135.335 92.152C138.144 91.2282 140.953 90.092 143.922 91.4638C144.686 91.7643 145.236 92.4465 145.617 92.7456Z" fill="#365419"/>
<path d="M139.641 99.3516C140.535 99.1002 141.47 98.9339 142.321 98.5973C143.982 97.8815 144.743 98.862 145.588 99.9704C146.476 101.164 146.344 102.268 145.49 103.285C144.764 104.132 144.299 103.45 144.26 102.77C144.139 100.942 143.034 101.065 141.673 101.23C140.526 101.353 139.294 101.22 138.105 101.003C137.68 100.916 137.428 100.235 137.047 99.8088C137.515 99.5981 137.984 99.3025 138.494 99.1346C138.835 99.0509 139.217 99.1374 139.599 99.139C139.599 99.1815 139.641 99.2666 139.641 99.3516Z" fill="#365419"/>
<path d="M148.788 107.633C147.343 107.457 145.899 107.197 145.424 109.192C145.208 110.041 144.572 109.784 144.192 109.187C143.643 108.293 144.16 106.552 145.308 106.344C147.307 106.012 149.346 106.063 151.386 105.986C151.556 105.987 151.937 106.456 151.894 106.626C151.85 106.923 151.551 107.347 151.296 107.431C150.445 107.555 149.638 107.551 148.788 107.633Z" fill="#365419"/>
<path d="M347.359 187.433C345.697 188.446 342.389 186.733 341.889 184.308C343.839 185.464 345.578 186.448 347.359 187.433Z" fill="#365419"/>
<path d="M122.741 85.1319C123.589 85.7302 124.853 88.4977 124.595 89.2192C124.509 89.4314 124.338 89.7282 124.125 89.7698C123.955 89.8541 123.488 89.7248 123.489 89.5548C123.111 88.2358 122.734 86.8743 122.4 85.5555C122.4 85.428 122.656 85.259 122.741 85.1319Z" fill="#365419"/>
<path d="M401.162 261.597C398.91 261.588 397.04 261.623 395.17 261.53C394.831 261.486 394.323 260.847 394.198 260.379C393.946 259.485 393.649 259.357 392.882 259.821C392.329 260.116 391.648 260.369 391.053 260.366C387.78 260.396 384.465 260.467 381.194 260.242C375.331 259.878 369.511 259.26 363.648 258.812C362.161 258.678 360.673 258.715 359.187 258.581C350.265 257.738 341.388 256.47 332.421 256.605C330.593 256.64 328.764 257.058 326.937 257.05C324.557 257.083 322.177 256.946 319.841 256.724C319.289 256.68 318.824 255.955 318.316 255.528C318.869 255.233 319.467 254.683 319.977 254.685C322.866 254.824 325.754 255.176 328.686 255.315C331.363 255.453 334.083 255.336 336.803 255.347C339.778 255.401 342.753 255.286 345.727 255.595C349.975 255.995 354.221 256.819 358.469 257.261C361.613 257.571 364.843 257.542 367.987 257.639C369.475 257.688 370.962 257.693 372.45 257.572C375.978 257.331 379.508 256.793 383.035 256.807C386.392 256.82 389.79 257.301 393.145 257.782C394.377 257.957 395.479 258.854 396.71 259.156C397.686 259.373 398.75 259.122 399.77 259.083C401.088 259.046 402.406 258.754 403.68 258.929C406.101 259.279 408.479 259.841 410.857 260.318C411.239 260.404 411.622 260.406 411.918 260.619C412.215 260.833 412.553 261.302 412.509 261.599C412.466 261.854 411.912 262.192 411.572 262.191C411.062 262.189 410.553 261.974 410.043 261.844C408.855 261.457 407.751 261.155 406.642 262.213C406.301 262.552 405.451 262.464 404.857 262.376C403.455 262.201 402.139 261.813 401.162 261.597Z" fill="#365419"/>
<path d="M381.751 237.847C380.82 236.781 379.974 235.885 379.212 234.947C378.959 234.648 378.961 234.138 378.835 233.713C379.302 233.672 380.069 233.378 380.28 233.591C381.846 235.212 384.437 235.478 385.662 237.565C385.873 237.906 386.552 238.036 387.062 238.081C387.699 238.168 388.337 238.171 388.974 238.131C390.462 238.052 391.779 238.057 391.558 240.223C391.514 240.606 392.149 241.203 392.573 241.46C393.633 242.144 394.778 242.701 395.838 243.428C396.134 243.599 396.218 244.067 396.429 244.408C396.088 244.576 395.704 244.872 395.364 244.871C391.88 244.73 388.396 244.503 384.954 244.405C384.232 244.402 383.508 244.654 382.827 244.949C381.805 245.412 380.869 245.706 379.809 245.064C379.513 244.893 378.917 245.145 378.492 245.101C377.982 245.057 377.515 244.97 377.005 244.883C377.22 244.331 377.266 243.566 377.649 243.313C378.501 242.806 379.521 242.683 380.458 242.304C380.841 242.136 381.14 241.754 381.481 241.458C381.142 241.244 380.846 240.946 380.464 240.859C379.657 240.686 378.595 240.639 378.896 239.578C379.069 238.941 379.963 238.52 380.602 238.055C380.943 237.929 381.41 237.93 381.751 237.847Z" fill="#365419"/>
<path d="M251.695 241.025C252.417 241.155 253.392 241.712 254.03 241.417C255.946 240.66 257.73 240.964 259.684 241.014C261.851 241.108 264.065 240.139 266.357 240.999C266.781 241.17 267.591 240.451 268.103 239.986C268.785 239.436 269.298 238.673 269.98 238.081C270.236 237.827 270.875 237.659 271.087 237.787C271.383 238.001 271.594 238.555 271.592 238.98C271.632 239.617 271.417 240.254 271.457 240.849C271.456 241.146 271.837 241.403 272.006 241.701C272.262 241.447 272.73 241.194 272.774 240.897C272.947 240.132 272.823 239.282 273.038 238.56C273.168 238.093 273.722 237.756 274.063 237.374C274.231 237.843 274.527 238.311 274.525 238.779C274.564 239.544 274.434 240.351 274.388 241.158C274.254 242.858 272.677 243.956 271.106 243.483C270.937 243.439 270.767 243.269 270.682 243.311C268.255 244.406 266.436 242.316 264.227 242.095C263.76 242.051 263.25 241.964 262.825 242.004C260.317 242.292 257.808 242.622 255.257 242.867C254.364 242.948 253.472 242.817 252.58 242.771C251.815 242.725 251.008 242.722 250.243 242.592C249.776 242.505 249.352 242.291 248.885 242.161C249.227 241.823 249.526 241.356 249.909 241.145C250.462 241.063 251.057 241.107 251.695 241.025Z" fill="#365419"/>
<path d="M403.808 248.22C404.444 248.605 405.123 248.948 405.673 249.417C406.097 249.801 406.605 250.313 406.688 250.824C406.729 251.079 405.962 251.543 405.451 251.796C403.493 252.723 401.492 253.608 399.491 254.45C399.065 254.618 398.342 254.743 398.046 254.487C397.071 253.76 396.347 254.14 395.453 254.646C395.027 254.9 394.263 254.642 393.626 254.597C393.84 254.045 393.928 253.365 394.312 253.027C395.847 251.715 397.466 250.617 399.63 251.646C399.672 251.688 399.714 251.688 399.799 251.689C401.031 251.906 402.095 251.4 402.312 250.296C402.399 249.787 401.34 248.975 400.62 248.462C400.111 248.078 399.304 248.074 398.71 247.774C398.456 247.603 398.373 247.093 398.204 246.752C398.587 246.669 399.056 246.373 399.31 246.502C401.77 247.702 403.563 245.669 405.648 245.167C406.754 244.917 407.818 244.411 408.882 244.118C409.094 244.076 409.603 244.418 409.687 244.673C409.771 244.886 409.514 245.438 409.259 245.522C408.322 245.9 407.682 246.45 407.466 247.554C407.422 247.809 406.486 248.018 405.934 248.016C405.296 248.013 404.617 247.756 403.98 247.625C403.98 247.795 403.894 248.008 403.808 248.22Z" fill="#365419"/>
<path d="M284.707 253.694C281.725 255.51 278.626 254.647 275.569 253.955C275.017 253.826 274.423 253.653 273.87 253.694C270.938 253.767 267.962 253.882 265.03 254.041C263.712 254.12 262.394 254.285 261.076 254.365C255.72 254.769 250.321 255.214 244.964 255.576C244.029 255.657 243.053 255.398 242.076 255.309C242.034 255.096 242.035 254.884 241.993 254.671C242.504 254.503 243.015 254.25 243.567 254.21C249.008 254.019 254.448 253.998 259.889 253.638C264.565 253.359 269.242 252.74 273.919 252.291C274.344 252.25 274.812 252.125 275.151 252.296C278.036 253.498 281.097 253.255 284.071 253.437C284.283 253.438 284.496 253.523 284.665 253.567C284.708 253.567 284.708 253.652 284.707 253.694Z" fill="#365419"/>
<path d="M221.247 235.081C221.678 233.765 222.527 233.939 223.377 234.027C225.161 234.247 226.902 234.551 228.686 234.643C232.256 234.785 235.825 234.757 239.438 234.814C240.585 234.818 240.969 234.437 240.719 233.289C240.552 232.438 240.005 230.991 241.238 230.868C242.556 230.746 242.04 232.274 242.122 233.124C242.202 234.23 242.198 235.335 242.151 236.439C242.15 236.737 241.978 237.076 241.808 237.246C241.68 237.373 241.213 237.286 241.128 237.158C239.522 234.856 237.095 235.994 235.056 235.859C230.807 235.587 226.515 235.57 222.224 235.425C221.926 235.466 221.672 235.253 221.247 235.081Z" fill="#365419"/>
<path d="M74.7418 260.293C74.7906 258.721 74.8749 258.891 76.4031 259.322C77.252 259.581 78.7416 259.034 79.382 258.314C80.1077 257.51 80.4911 257.256 81.4239 257.813C81.8903 258.069 82.5704 258.03 83.0796 258.244C83.5039 258.416 83.8851 258.715 84.2666 258.971C83.9253 259.31 83.5833 259.819 83.1579 259.902C81.2864 260.319 79.4153 260.609 77.5439 260.984C77.0761 261.068 76.608 261.236 76.1823 261.404C74.9052 261.951 74.6934 261.781 74.7418 260.293Z" fill="#365419"/>
<path d="M213.556 256.173C214.066 256.132 214.576 256.092 215.044 256.051C218.403 255.767 221.761 255.483 225.119 255.199C225.162 255.199 225.247 255.157 225.29 255.157C225.884 255.244 226.479 255.332 227.073 255.504C227.116 255.504 227.114 256.014 227.028 256.056C226.475 256.267 225.879 256.477 225.284 256.559C223.371 256.807 221.289 256.628 219.544 257.302C217.245 258.227 215.464 257.328 213.512 256.597C213.555 256.47 213.556 256.3 213.556 256.173Z" fill="#365419"/>
<path d="M254.017 234.064C252.232 234.057 250.447 234.093 248.663 234.001C248.323 233.999 247.984 233.658 247.645 233.486C247.986 233.233 248.285 232.724 248.625 232.725C251.176 232.608 253.683 232.618 256.233 232.586C256.956 232.589 257.721 232.549 258.443 232.68C258.74 232.723 258.993 233.149 259.29 233.405C258.992 233.574 258.693 233.871 258.395 233.869C256.908 233.906 255.42 233.9 253.933 233.894C254.018 233.937 254.018 233.979 254.017 234.064Z" fill="#365419"/>
<path d="M287.724 253.876C291.889 253.85 296.057 252.975 300.433 253.46C300.218 253.841 300.175 254.096 300.09 254.096C298.007 254.3 295.966 254.504 293.883 254.666C292.693 254.746 291.503 254.656 290.355 254.949C288.738 255.325 287.847 255.067 287.724 253.876Z" fill="#365419"/>
<path d="M91.9572 259.342C91.6594 259.426 91.2332 259.722 90.7658 259.72C89.8307 259.759 88.8544 259.457 87.9613 259.624C87.0255 259.832 86.6862 259.661 86.6474 258.726C86.6068 258.258 86.481 257.833 86.3979 257.365C86.3146 256.94 86.2313 256.514 86.1055 256.089C86.7008 256.006 87.3391 255.796 87.9339 255.841C88.1887 255.885 88.5686 256.524 88.5673 256.864C88.6054 257.969 89.0293 258.225 89.924 257.677C91.1589 257.044 91.922 257.515 91.9572 259.342Z" fill="#365419"/>
<path d="M95.0002 263.562C93.8081 264.109 92.6583 264.7 91.4242 265.12C90.9135 265.288 90.2344 265.073 89.6396 265.028C89.9392 264.519 90.112 263.797 90.5809 263.459C91.4758 262.825 92.4555 262.277 93.5193 261.941C94.1151 261.731 94.9647 261.819 95.5588 262.034C96.0256 262.206 96.3207 262.802 96.7016 263.186C96.1906 263.439 95.722 263.735 95.211 263.988C95.1265 263.86 95.0422 263.689 95.0002 263.562Z" fill="#365419"/>
<path d="M82.5013 264.702C83.3954 264.28 84.2474 263.774 85.1411 263.48C85.6942 263.312 86.3308 263.527 86.9256 263.572C86.5837 264.038 86.3685 264.717 85.9002 264.928C84.2398 265.686 82.5374 266.317 80.7928 266.862C80.3673 266.988 79.7739 266.603 79.2644 266.474C79.5212 266.007 79.6936 265.413 80.0771 265.16C80.7163 264.737 81.5247 264.485 82.2909 264.191C82.3327 264.361 82.417 264.531 82.5013 264.702Z" fill="#365419"/>
<path d="M158.721 259.481C157.234 259.39 156.214 259.429 155.237 259.297C154.897 259.253 154.601 258.785 154.262 258.486C154.561 258.232 154.818 257.723 155.115 257.724C156.688 257.688 158.303 257.78 159.875 257.871C160.087 257.872 160.425 258.34 160.467 258.638C160.508 258.851 160.167 259.232 159.954 259.316C159.443 259.442 158.848 259.439 158.721 259.481Z" fill="#365419"/>
<path d="M347.221 243.234C347.774 243.109 348.327 242.983 348.922 242.901C350.155 242.778 351.388 242.656 352.621 242.618C353.003 242.62 353.427 242.834 353.809 242.963C353.553 243.302 353.381 243.768 353.04 243.937C351.082 244.864 349.17 244.602 347.304 243.702C347.305 243.532 347.263 243.362 347.221 243.234Z" fill="#365419"/>
<path d="M363.457 242.704C361.757 242.697 360.482 242.734 359.208 242.644C358.91 242.643 358.614 242.217 358.275 242.003C358.531 241.749 358.745 241.452 359.043 241.326C359.682 241.031 360.405 240.779 361.086 240.527C361.682 240.274 363.929 241.558 363.884 242.195C363.798 242.493 363.415 242.746 363.457 242.704Z" fill="#365419"/>
<path d="M298.417 247.417C298.325 249.116 297.473 249.708 295.902 249.234C295.35 249.062 294.626 249.441 293.989 249.524C293.521 249.564 293.054 249.435 292.587 249.348C292.843 249.009 293.015 248.542 293.314 248.289C293.612 248.035 294.08 247.952 294.505 247.868C295.823 247.746 297.056 247.581 298.417 247.417Z" fill="#365419"/>
<path d="M210.833 257.097C209.425 258.494 204.537 258.474 202.801 257.065C205.563 257.076 208.028 257.086 210.833 257.097Z" fill="#365419"/>
<path d="M339.304 246.39C339.005 246.644 338.664 247.067 338.536 246.982C337.306 246.382 336.321 248.46 335.093 247.265C334.966 247.137 335.052 246.755 335.138 246.543C335.568 245.482 337.907 244.897 338.797 245.623C338.966 245.793 339.093 246.049 339.304 246.39Z" fill="#365419"/>
<path d="M74.9295 266.499C74.5872 267.093 74.329 267.899 73.775 268.279C73.3488 268.575 72.5421 268.402 71.9044 268.442C72.119 267.933 72.2486 267.381 72.5478 266.957C72.847 266.533 73.231 266.152 73.6573 265.814C73.8705 265.645 74.253 265.646 74.5076 265.732C74.6774 265.775 74.7186 266.116 74.9295 266.499Z" fill="#365419"/>
<path d="M368.564 240.854C369.546 239.753 370.101 239.075 370.699 238.44C370.87 238.271 371.338 238.103 371.507 238.231C371.762 238.359 372.1 238.828 372.056 239.041C371.841 239.677 371.625 240.611 371.114 240.822C370.476 241.159 369.542 240.901 368.564 240.854Z" fill="#365419"/>
<path d="M69.7022 266.521C68.7215 267.324 68.0817 267.917 67.3151 268.339C67.1447 268.423 66.6368 267.911 66.2977 267.697C66.9803 267.02 67.663 266.343 68.3878 265.75C68.4732 265.666 68.9814 266.093 69.7022 266.521Z" fill="#365419"/>
<path d="M340.974 243.166C341.694 243.764 342.287 244.234 342.88 244.704C342.539 244.958 342.112 245.423 341.858 245.38C341.136 245.165 340.458 244.694 339.737 244.351C340.078 244.013 340.42 243.674 340.974 243.166Z" fill="#365419"/>
<path d="M121.327 258.354C122.05 258.145 122.731 257.935 123.454 257.768C123.538 258.066 123.749 258.492 123.663 258.661C123.107 259.509 122.3 259.421 121.537 259.078C121.453 258.865 121.369 258.61 121.327 258.354Z" fill="#365419"/>
<path d="M94.2522 259.309C93.8281 259.095 93.1065 258.879 93.065 258.624C92.9824 258.029 93.2401 257.35 93.3277 256.713C93.4976 256.713 93.6675 256.757 93.8375 256.757C94.0472 257.438 94.2993 258.161 94.5091 258.842C94.4234 259.012 94.3379 259.139 94.2522 259.309Z" fill="#365419"/>
<path d="M98.8652 264.13C99.5882 264.005 100.311 263.838 101.034 263.756C101.119 263.756 101.245 264.224 101.329 264.479C100.563 264.646 99.7976 264.771 99.0745 264.938C98.9905 264.683 98.9067 264.385 98.8652 264.13Z" fill="#365419"/>
<path d="M235.148 255.494C234.509 255.874 234.167 256.212 233.87 256.169C233.53 256.125 233.234 255.784 232.895 255.57C233.194 255.316 233.493 254.892 233.833 254.809C234.088 254.767 234.469 255.151 235.148 255.494Z" fill="#365419"/>
<path d="M160.501 143.677C160.63 143.253 160.716 142.828 160.888 142.446C162.388 139.35 163.845 136.253 165.345 133.156C165.559 132.732 165.731 132.266 166.03 131.927C166.2 131.757 166.668 131.717 166.88 131.803C167.05 131.888 167.218 132.356 167.132 132.569C165.461 136.047 163.789 139.525 162.033 142.961C161.819 143.385 161.266 143.638 160.839 143.976C160.755 143.848 160.628 143.763 160.501 143.677Z" fill="#365419"/>
<path d="M158.377 132.789C159.187 132.112 159.997 131.435 160.935 130.674C161.057 131.949 159.947 133.39 157.687 135.166C156.586 134.099 156.081 133.034 157.234 131.637C158.472 130.154 159.626 128.586 160.864 127.061C161.078 126.807 161.503 126.724 161.844 126.598C161.842 126.98 161.968 127.491 161.797 127.745C160.771 129.101 159.661 130.371 158.636 131.685C158.422 131.939 158.294 132.236 158.123 132.533C158.165 132.575 158.25 132.661 158.377 132.789Z" fill="#365419"/>
<path d="M158.104 126.54C156.776 129.127 155.62 131.375 154.378 133.75C153.408 131.919 155.722 127.168 158.104 126.54Z" fill="#365419"/>
<path d="M95.2615 81.0272C95.8202 79.4569 97.053 79.3768 98.2422 79.5516C99.474 79.7265 99.8102 80.6628 99.7207 81.81C99.6321 82.7021 99.6707 83.6798 99.2852 84.4432C98.8996 85.2067 98.09 85.7559 97.4078 86.3057C97.28 86.3902 96.4742 85.962 96.4747 85.8345C96.5211 84.8572 96.6099 83.9225 96.8686 82.9886C96.9981 82.4791 97.5096 82.0986 97.8515 81.6325C97.2993 81.5453 96.7047 81.4579 96.1526 81.3707C95.8981 81.2422 95.6435 81.1562 95.2615 81.0272Z" fill="#365419"/>
<path d="M189.9 39.4155C188.963 40.0068 188.408 40.5145 187.813 40.6397C187.515 40.681 187.093 39.9993 186.712 39.6153C187.224 39.1498 187.694 38.5567 188.332 38.2618C188.545 38.2201 189.138 38.8175 189.9 39.4155Z" fill="#365419"/>
</svg>
