<svg width="212" height="212" viewBox="0 0 212 212" fill="none" xmlns="http://www.w3.org/2000/svg">
<path d="M174.413 184.207C156.112 200.19 132.218 209.926 106 209.926C79.7822 209.926 55.8883 200.263 37.5867 184.207" stroke="#BEC531" stroke-width="4" stroke-miterlimit="10"/>
<path d="M9.48045 144.613C4.68716 132.626 2.07263 119.621 2.07263 105.963C2.07263 48.5689 48.6257 2 106 2C163.374 2 209.927 48.5689 209.927 105.963C209.927 119.621 207.313 132.698 202.52 144.613" stroke="#BEC531" stroke-width="4" stroke-miterlimit="10"/>
<path d="M148.704 91.7233V55.1801L152.117 50.9664L153.207 43.6287H58.866L59.8828 50.9664L63.2962 55.1801V91.7233" stroke="#395527" stroke-width="4" stroke-miterlimit="10" stroke-linecap="round" stroke-linejoin="round"/>
<path d="M208.402 184.207V163.502L202.52 158.199V103.711L206.587 99.6422V95.4285L210 92.0139H2L5.41341 95.4285V99.6422L9.48045 103.711V158.199L3.59777 163.502V184.207H208.402Z" stroke="#395527" stroke-width="4" stroke-miterlimit="10" stroke-linecap="round" stroke-linejoin="round"/>
<path d="M9.11725 92.0139L63.2234 83.0779" stroke="#395527" stroke-width="4" stroke-miterlimit="10" stroke-linecap="round" stroke-linejoin="round"/>
<path d="M202.883 92.0139L148.777 83.0779" stroke="#395527" stroke-width="4" stroke-miterlimit="10" stroke-linecap="round" stroke-linejoin="round"/>
<path d="M69.6146 53.0733H142.386" stroke="#395527" stroke-width="4" stroke-miterlimit="10" stroke-linecap="round" stroke-linejoin="round"/>
<path d="M89.0056 65.6418C87.4078 64.9153 85.229 64.4794 82.7598 64.4794C80.2179 64.4794 77.9665 64.9153 76.3687 65.7145V81.1164H89.0056V65.6418Z" stroke="#395527" stroke-width="4" stroke-miterlimit="10" stroke-linecap="round" stroke-linejoin="round"/>
<path d="M112.318 65.6418C110.721 64.9153 108.542 64.4794 106.073 64.4794C103.531 64.4794 101.279 64.9153 99.6815 65.7145V81.1164H112.318V65.6418Z" stroke="#395527" stroke-width="4" stroke-miterlimit="10" stroke-linecap="round" stroke-linejoin="round"/>
<path d="M135.631 65.6418C134.034 64.9153 131.855 64.4794 129.385 64.4794C126.844 64.4794 124.592 64.9153 122.994 65.7145V81.1164H135.631V65.6418Z" stroke="#395527" stroke-width="4" stroke-miterlimit="10" stroke-linecap="round" stroke-linejoin="round"/>
<path d="M118.782 182.754V119.113C115.587 117.224 111.156 116.061 106.218 116.061C101.061 116.061 96.486 117.296 93.2905 119.33V182.754" stroke="#395527" stroke-width="4" stroke-miterlimit="10" stroke-linecap="round" stroke-linejoin="round"/>
<path d="M41.3631 124.997C39.6201 123.98 37.0782 123.326 34.3911 123.326C31.5587 123.326 28.9441 124.053 27.2011 125.143V153.985H41.4357V124.997H41.3631Z" stroke="#395527" stroke-width="4" stroke-miterlimit="10" stroke-linecap="round" stroke-linejoin="round"/>
<path d="M70.7039 124.997C68.9609 123.98 66.419 123.326 63.7318 123.326C60.8994 123.326 58.2849 124.053 56.5419 125.143V153.985H70.7765V124.997H70.7039Z" stroke="#395527" stroke-width="4" stroke-miterlimit="10" stroke-linecap="round" stroke-linejoin="round"/>
<path d="M155.458 124.997C153.715 123.98 151.173 123.326 148.486 123.326C145.654 123.326 143.039 124.053 141.296 125.143V153.985H155.531V124.997H155.458Z" stroke="#395527" stroke-width="4" stroke-miterlimit="10" stroke-linecap="round" stroke-linejoin="round"/>
<path d="M184.871 124.997C183.128 123.98 180.587 123.326 177.899 123.326C175.067 123.326 172.452 124.053 170.709 125.143V153.985H184.944V124.997H184.871Z" stroke="#395527" stroke-width="4" stroke-miterlimit="10" stroke-linecap="round" stroke-linejoin="round"/>
</svg>
