<svg width="208" height="208" viewBox="0 0 208 208" fill="none" xmlns="http://www.w3.org/2000/svg">
<g clip-path="url(#clip0_158_824)">
<path d="M175.713 175.742C215.344 136.112 215.344 71.857 175.713 32.226C136.082 -7.40497 71.8277 -7.40497 32.1967 32.226C-7.43429 71.857 -7.43429 136.112 32.1967 175.742C71.8277 215.373 136.082 215.373 175.713 175.742Z" stroke="#BEC531" stroke-width="4" stroke-miterlimit="10"/>
<path d="M135.594 70.2789V127.225C135.594 144.6 121.339 158.854 103.965 158.854C86.5898 158.854 72.3355 144.671 72.3355 127.296V70.2789H46.9471V127.225C46.9471 158.571 72.5482 184.172 103.894 184.172C135.239 184.172 160.84 158.571 160.84 127.225V70.2789H135.594Z" stroke="#365419" stroke-width="4" stroke-miterlimit="10" stroke-linecap="round" stroke-linejoin="round"/>
<path d="M46.9471 81.9803H72.3355" stroke="#365419" stroke-width="4" stroke-miterlimit="10" stroke-linecap="round" stroke-linejoin="round"/>
<path d="M135.665 81.9803H160.982" stroke="#365419" stroke-width="4" stroke-miterlimit="10" stroke-linecap="round" stroke-linejoin="round"/>
<path d="M72.1937 52.4078C81.1292 45.9543 92.1214 42.1248 103.965 42.1248C115.879 42.1248 126.8 45.9543 135.735 52.4078" stroke="#365419" stroke-width="4" stroke-miterlimit="10" stroke-linecap="round" stroke-linejoin="round"/>
<path d="M85.1715 65.3856C90.6321 62.0525 97.0856 60.1378 103.965 60.1378C110.843 60.1378 117.297 62.0525 122.758 65.3856" stroke="#365419" stroke-width="4" stroke-miterlimit="10" stroke-linecap="round" stroke-linejoin="round"/>
<path d="M59.074 39.2881C71.4136 29.5725 87.0153 23.6863 104.035 23.6863C120.985 23.6863 136.586 29.5015 148.997 39.2881" stroke="#365419" stroke-width="4" stroke-miterlimit="10" stroke-linecap="round" stroke-linejoin="round"/>
</g>
<defs>
<clipPath id="clip0_158_824">
<rect width="208" height="208" fill="white"/>
</clipPath>
</defs>
</svg>
