<svg width="53" height="34" viewBox="0 0 53 34" fill="none" xmlns="http://www.w3.org/2000/svg">
<path d="M0 0H52.7132V34H0V0Z" fill="#BEC531"/>
<path d="M11.954 12.5666H13.464V11.1999C13.464 10.7444 13.7685 10.4407 14.3015 10.4407C14.8344 10.4407 15.1389 10.7444 15.1389 11.1999V15.2745C15.1389 15.7301 14.8344 16.0338 14.3015 16.0338C13.7685 16.0338 13.464 15.7301 13.464 15.2745V13.9965H11.954V15.2745C11.954 15.7301 11.6495 16.0338 11.1165 16.0338C10.5836 16.0338 10.2791 15.7301 10.2791 15.2745V11.1999C10.2791 10.7444 10.5836 10.4407 11.1165 10.4407C11.6495 10.4407 11.954 10.7444 11.954 11.1999V12.5666Z" fill="#365419"/>
<path d="M21.3566 13.7687C21.3566 15.0468 20.3668 16.0338 18.8188 16.0338C17.2707 16.0338 16.281 15.0468 16.281 13.7687V12.7058C16.281 11.4277 17.2707 10.4407 18.8188 10.4407C20.3668 10.4407 21.3566 11.4277 21.3566 12.7058V13.7687ZM19.6562 12.7184C19.6562 12.111 19.2756 11.7314 18.8188 11.7314C18.362 11.7314 17.9813 12.111 17.9813 12.7184V13.7814C17.9813 14.3887 18.362 14.7684 18.8188 14.7684C19.2756 14.7684 19.6562 14.3887 19.6562 13.7814V12.7184Z" fill="#365419"/>
<path d="M24.846 10.4407C26.4322 10.4407 27.0412 11.0734 27.0412 11.9212C27.0412 12.7564 26.2038 12.9968 26.2038 12.9968V13.0727C26.2038 13.0727 27.3331 13.3132 27.3331 14.3887C27.3331 15.3125 26.6479 16.0211 25.0618 16.0211H23.3234C22.7904 16.0211 22.4859 15.7048 22.4859 15.2239V11.2379C22.4986 10.7571 22.7904 10.4407 23.3234 10.4407H24.846ZM24.1735 12.516H24.8587C25.1633 12.516 25.3155 12.3515 25.3155 12.1616C25.3155 11.9592 25.1633 11.8073 24.8587 11.8073H24.1735V12.516ZM24.1735 14.6671H25.0871C25.4297 14.6671 25.6201 14.4647 25.6201 14.2242C25.6201 13.9838 25.4297 13.7814 25.0871 13.7814H24.1735V14.6671Z" fill="#365419"/>
<path d="M30.6195 12.3135C32.1295 12.3135 32.967 13.1487 32.967 14.161C32.967 15.186 32.1295 16.0085 30.6195 16.0085H29.1857C28.6527 16.0085 28.3482 15.7048 28.3482 15.2492V11.1873C28.3482 10.7318 28.6527 10.4281 29.1857 10.4281C29.7186 10.4281 30.0232 10.7318 30.0232 11.1873V12.3135H30.6195ZM30.0105 13.6801V14.6671H30.6195C31.0002 14.6671 31.2286 14.4394 31.2286 14.1736C31.2286 13.9079 31.0002 13.6801 30.6195 13.6801H30.0105ZM35.1115 15.2745C35.1115 15.7301 34.8069 16.0338 34.274 16.0338C33.741 16.0338 33.4365 15.7301 33.4365 15.2745V11.2C33.4365 10.7444 33.741 10.4407 34.274 10.4407C34.8069 10.4407 35.1115 10.7444 35.1115 11.2V15.2745Z" fill="#365419"/>
<path d="M38.3345 10.2256C37.9538 10.2256 37.6873 9.97251 37.6873 9.51697C37.6873 9.06143 37.9411 8.80835 38.3345 8.80835H39.5653C39.946 8.80835 40.2124 9.06143 40.2124 9.51697C40.2124 9.97251 39.9587 10.2256 39.5653 10.2256H38.3345Z" fill="#365419"/>
<path d="M38.1949 13.0854L39.4765 11.1999C39.8191 10.7064 40.0855 10.4407 40.5424 10.4407C41.0753 10.4407 41.3798 10.7444 41.3798 11.1999V15.2745C41.3798 15.7301 41.0753 16.0338 40.5424 16.0338C40.0094 16.0338 39.7049 15.7301 39.7049 15.2745V13.3891H39.6287L38.3472 15.2745C38.0045 15.768 37.7381 16.0338 37.2813 16.0338C36.7483 16.0338 36.4438 15.7301 36.4438 15.2745V11.1999C36.4438 10.7444 36.7483 10.4407 37.2813 10.4407C37.8142 10.4407 38.1187 10.7444 38.1187 11.1999V13.0854H38.1949Z" fill="#365419"/>
<path d="M41.3798 17.3371H10.2918V22.9175H41.3798V17.3371Z" fill="white"/>
<path d="M14.2888 17.3498C14.8217 17.3498 15.1263 17.6535 15.1263 18.109C15.1263 18.5646 14.8217 18.8683 14.2888 18.8683H11.954V22.1709C11.954 22.6265 11.6495 22.9302 11.1165 22.9302C10.5836 22.9302 10.2791 22.6265 10.2791 22.1709V18.109C10.2791 17.6535 10.5836 17.3498 11.1165 17.3498H14.2888Z" fill="#365419"/>
<path d="M21.3185 20.6651C21.3185 21.9432 20.3288 22.9302 18.7807 22.9302C17.2327 22.9302 16.2429 21.9432 16.2429 20.6651V19.6022C16.2429 18.3241 17.2327 17.3371 18.7807 17.3371C20.3288 17.3371 21.3185 18.3241 21.3185 19.6022V20.6651ZM19.6182 19.6022C19.6182 18.9948 19.2375 18.6152 18.7807 18.6152C18.3239 18.6152 17.9432 18.9948 17.9432 19.6022V20.6651C17.9432 21.2725 18.3239 21.6521 18.7807 21.6521C19.2375 21.6521 19.6182 21.2725 19.6182 20.6651V19.6022Z" fill="#365419"/>
<path d="M24.1482 21.0447V22.1709C24.1482 22.6265 23.8436 22.9302 23.3107 22.9302C22.7778 22.9302 22.4732 22.6265 22.4732 22.1709V18.109C22.4732 17.6535 22.7778 17.3498 23.3107 17.3498H24.8207C26.3307 17.3498 27.1681 18.1849 27.1681 19.1973C27.1681 20.2096 26.3307 21.0447 24.8207 21.0447H24.1482ZM24.8334 19.6908C25.214 19.6908 25.4424 19.463 25.4424 19.1973C25.4424 18.9315 25.214 18.7038 24.8334 18.7038H24.1482V19.6908H24.8334Z" fill="#365419"/>
<path d="M33.1574 20.6651C33.1574 21.9432 32.1676 22.9302 30.6196 22.9302C29.0715 22.9302 28.0818 21.9432 28.0818 20.6651V19.6022C28.0818 18.3241 29.0715 17.3371 30.6196 17.3371C32.1676 17.3371 33.1574 18.3241 33.1574 19.6022V20.6651ZM31.457 19.6022C31.457 18.9948 31.0764 18.6152 30.6196 18.6152C30.1628 18.6152 29.7821 18.9948 29.7821 19.6022V20.6651C29.7821 21.2725 30.1628 21.6521 30.6196 21.6521C31.0764 21.6521 31.457 21.2725 31.457 20.6651V19.6022Z" fill="#365419"/>
<path d="M39.7303 21.3105H39.578L38.5502 18.2356C38.3599 17.6788 37.9919 17.3498 37.2559 17.3498C36.5199 17.3498 36.152 17.6788 35.9616 18.2356L34.9338 21.3105H34.7816C34.3374 21.3105 34.0456 21.6015 34.0456 22.1203C34.0456 22.6391 34.3374 22.9302 34.7816 22.9302H39.7303C40.1744 22.9302 40.4662 22.6391 40.4662 22.1203C40.4662 21.6015 40.1744 21.3105 39.7303 21.3105ZM37.2178 19.1846H37.294L37.8777 21.2978H36.6468L37.2178 19.1846Z" fill="#365419"/>
</svg>
