<svg width="502" height="272" viewBox="0 0 502 272" fill="none" xmlns="http://www.w3.org/2000/svg">
<path d="M408.525 109.684C420.213 109.684 429.689 100.209 429.689 88.5211C429.689 76.833 420.213 67.3579 408.525 67.3579C396.837 67.3579 387.361 76.833 387.361 88.5211C387.361 100.209 396.837 109.684 408.525 109.684Z" stroke="#BEC531" stroke-opacity="0.5" stroke-width="4" stroke-miterlimit="10" stroke-linecap="round" stroke-linejoin="round"/>
<path d="M435.606 128.139V117.608H381.394V128.139H389.117V238.469H381.394V249H435.606V238.469H427.883V128.139H435.606Z" stroke="#BEC531" stroke-opacity="0.5" stroke-width="4" stroke-miterlimit="10" stroke-linecap="round" stroke-linejoin="round"/>
<path d="M389.117 204.367C347.893 195.49 317 158.831 317 114.95C317 64.399 357.973 23.4268 408.525 23.4268C459.077 23.4268 500 64.399 500 114.95C500 158.831 469.107 195.49 427.883 204.417" stroke="#BEC531" stroke-opacity="0.5" stroke-width="4" stroke-miterlimit="10" stroke-linecap="round" stroke-linejoin="round"/>
<path d="M216.647 210.384H214.647V212.384V234.74C214.647 245.457 211.078 254.207 204.545 260.29C197.998 266.385 188.258 270 175.559 270C162.859 270 153.12 266.385 146.572 260.29C140.039 254.207 136.471 245.457 136.471 234.74V212.384V210.384H134.471H41.0882C28.3888 210.384 18.6491 206.769 12.1018 200.673C5.56892 194.591 2 185.841 2 175.123C2 166.292 5.55914 157.324 9.23432 150.45C11.0597 147.036 12.8862 144.189 14.2548 142.198C14.9384 141.203 15.5063 140.425 15.9003 139.898C16.0973 139.635 16.2507 139.435 16.3534 139.303C16.4047 139.237 16.4433 139.188 16.4682 139.156L16.4954 139.122L16.5011 139.115L16.5014 139.114L16.5018 139.114L16.5019 139.114L16.5197 139.091L16.5373 139.068L83.7726 50.0161L83.7727 50.016C95.1572 34.9363 105.258 22.9756 117.516 14.7483C129.701 6.5697 144.148 2 164.353 2C193.233 2 214.647 23.5607 214.647 48.4384V137.863V139.863H216.647C227.4 139.863 236.205 143.43 242.315 149.526C248.426 155.621 252 164.401 252 175.123C252 185.845 248.426 194.626 242.315 200.721C236.205 206.817 227.4 210.384 216.647 210.384ZM96.9853 137.863V139.863H98.9853H134.471H136.471V137.863V93.1507V91.1507H134.471H130.735H129.755L129.154 91.9259L97.4042 132.912L96.9853 133.453V134.137V137.863Z" stroke="#BEC531" stroke-opacity="0.5" stroke-width="4"/>
</svg>
