<svg width="502" height="272" viewBox="0 0 502 272" fill="none" xmlns="http://www.w3.org/2000/svg">
<path fill-rule="evenodd" clip-rule="evenodd" d="M114 194.464V190.81C114.423 190.541 114.849 190.273 115.279 190.008C125.57 183.646 137.657 178.399 149.954 173.06C185.857 157.472 223.547 141.109 223.547 93.979C223.547 44.6501 183.38 4.45609 110.348 4.45609C46.4461 4.45609 9.93047 37.7075 9.93047 66.9395C9.93047 87.0364 22.7109 99.46 50.0977 99.46C64.9396 99.46 73.1834 92.8576 81.2942 86.3616C89.1474 80.0719 96.876 73.882 110.348 73.882C130.432 73.882 139.561 83.0171 139.561 93.979C139.561 107.217 119.912 116.47 95.6002 127.917C56.1615 146.488 4.45312 170.837 4.45312 227.35C4.45312 249.274 22.7109 267.544 48.2719 267.544H183.38C208.941 267.544 223.547 252.563 223.547 231.004C223.547 209.08 208.941 194.464 183.38 194.464H114ZM124.191 190.008C132.05 185.756 140.762 181.912 149.836 177.969C150.488 177.686 151.141 177.402 151.796 177.118C163.281 172.132 175.237 166.942 186.075 160.634C197.559 153.95 208.076 145.855 215.713 135.064C223.403 124.198 228 110.843 228 93.979C228 68.0326 217.403 44.3962 197.209 27.3159C177.059 10.2733 147.662 0 110.348 0C77.6446 0 51.6111 8.50867 33.6256 21.0829C15.719 33.602 5.47734 50.4376 5.47734 66.9395C5.47734 77.9771 9.02718 87.4826 16.8634 94.1343C24.5801 100.685 35.8116 103.916 50.0977 103.916C66.3362 103.916 75.5961 96.6298 83.6896 90.1507L83.8523 90.0204C91.7906 83.665 98.4443 78.3381 110.348 78.3381C119.776 78.3381 126.015 80.4884 129.787 83.3643C133.444 86.1524 135.108 89.8502 135.108 93.979C135.108 96.7214 133.814 99.5662 130.605 102.78C127.359 106.032 122.52 109.28 116.299 112.715C110.113 116.131 102.856 119.574 94.9154 123.315C94.5066 123.508 94.0961 123.701 93.684 123.895C86.1361 127.449 78.0478 131.258 69.9517 135.473C36.0287 153.133 0 178.917 0 227.35C0 251.986 20.5097 272 48.2719 272H183.38C197.025 272 208.249 267.989 216.099 260.605C223.971 253.201 228 242.822 228 231.004C228 219.019 223.98 208.627 216.087 201.255C208.225 193.912 196.996 190.008 183.38 190.008H124.191Z" fill="#BEC531" fill-opacity="0.5"/>
<path d="M432.578 103.949C432.578 134.466 393.478 172.824 393.478 172.824C393.478 172.824 354.378 134.867 354.378 103.949C354.378 82.3417 371.879 64.8333 393.478 64.8333C415.076 64.8333 432.578 82.3417 432.578 103.949Z" stroke="#BEC531" stroke-opacity="0.5" stroke-width="4" stroke-miterlimit="10" stroke-linecap="round" stroke-linejoin="round"/>
<path d="M393.478 124.264C403.857 124.264 412.271 115.846 412.271 105.463C412.271 95.0801 403.857 86.6628 393.478 86.6628C383.099 86.6628 374.685 95.0801 374.685 105.463C374.685 115.846 383.099 124.264 393.478 124.264Z" stroke="#BEC531" stroke-opacity="0.5" stroke-width="4" stroke-miterlimit="10" stroke-linecap="round" stroke-linejoin="round"/>
<path d="M427.991 45.2753H407.149L402.785 23" stroke="#BEC531" stroke-opacity="0.5" stroke-width="4" stroke-miterlimit="10" stroke-linecap="round" stroke-linejoin="round"/>
<path d="M411.914 69.4216L409.376 56.502H431.152" stroke="#BEC531" stroke-opacity="0.5" stroke-width="4" stroke-miterlimit="10" stroke-linecap="round" stroke-linejoin="round"/>
<path d="M457.382 105.107H432.578" stroke="#BEC531" stroke-opacity="0.5" stroke-width="4" stroke-miterlimit="10" stroke-linecap="round" stroke-linejoin="round"/>
<path d="M427.234 125.912H463.216" stroke="#BEC531" stroke-opacity="0.5" stroke-width="4" stroke-miterlimit="10" stroke-linecap="round" stroke-linejoin="round"/>
<path d="M491.004 175.274H432.756L424.25 132.06" stroke="#BEC531" stroke-opacity="0.5" stroke-width="4" stroke-miterlimit="10" stroke-linecap="round" stroke-linejoin="round"/>
<path d="M447.318 249.095L439.035 207.039H499.911" stroke="#BEC531" stroke-opacity="0.5" stroke-width="4" stroke-miterlimit="10" stroke-linecap="round" stroke-linejoin="round"/>
<path d="M287 207.039H347.921L339.638 249.095" stroke="#BEC531" stroke-opacity="0.5" stroke-width="4" stroke-miterlimit="10" stroke-linecap="round" stroke-linejoin="round"/>
<path d="M362.661 132.194L354.155 175.274H295.907" stroke="#BEC531" stroke-opacity="0.5" stroke-width="4" stroke-miterlimit="10" stroke-linecap="round" stroke-linejoin="round"/>
<path d="M323.695 125.912H359.633" stroke="#BEC531" stroke-opacity="0.5" stroke-width="4" stroke-miterlimit="10" stroke-linecap="round" stroke-linejoin="round"/>
<path d="M354.378 105.107H329.529" stroke="#BEC531" stroke-opacity="0.5" stroke-width="4" stroke-miterlimit="10" stroke-linecap="round" stroke-linejoin="round"/>
<path d="M355.803 56.502H377.535L374.997 69.4216" stroke="#BEC531" stroke-opacity="0.5" stroke-width="4" stroke-miterlimit="10" stroke-linecap="round" stroke-linejoin="round"/>
<path d="M384.17 23L379.762 45.2753H358.92" stroke="#BEC531" stroke-opacity="0.5" stroke-width="4" stroke-miterlimit="10" stroke-linecap="round" stroke-linejoin="round"/>
</svg>
