<svg width="502" height="272" viewBox="0 0 502 272" fill="none" xmlns="http://www.w3.org/2000/svg">
<path d="M425.155 104.112L424.262 104.706V105.778V109.556V111.366L426.063 111.546L426.064 111.546L426.071 111.546L426.105 111.55C426.117 111.551 426.131 111.553 426.148 111.555C426.176 111.558 426.211 111.562 426.253 111.566C426.387 111.582 426.59 111.606 426.857 111.64C427.392 111.709 428.184 111.819 429.197 111.984C431.223 112.312 434.128 112.855 437.62 113.712C444.612 115.426 453.909 118.386 463.186 123.36C481.698 133.286 500 151.13 500 183.222C500 206.207 489.877 227.834 469.982 243.758C450.064 259.7 420.246 270 380.82 270C345.191 270 318.145 260.648 300.062 248.205C281.897 235.706 273 220.28 273 208.156C273 198.011 276.162 190.028 282.487 184.545C288.858 179.022 298.733 175.778 312.656 175.778C326.695 175.778 334.689 181.661 343.409 188.079C343.65 188.256 343.891 188.434 344.133 188.611C353.215 195.287 363.118 202.222 380.82 202.222C393.339 202.222 402.322 199.828 408.231 195.726C414.233 191.561 416.902 185.742 416.902 179.444C416.902 173.169 414.255 167.379 408.775 163.213C403.346 159.087 395.295 156.667 384.607 156.667H350.525C341.455 156.667 334.392 153.957 329.62 149.63C324.86 145.313 322.23 139.254 322.23 132.222C322.23 124.474 326.558 117.865 331.143 113.062C333.415 110.682 335.693 108.807 337.404 107.527C338.257 106.888 338.965 106.401 339.455 106.076C339.7 105.914 339.89 105.793 340.016 105.714C340.078 105.674 340.125 105.645 340.155 105.627L340.186 105.608L340.191 105.605L340.192 105.604L340.192 105.604L340.192 105.604L340.222 105.587L340.252 105.567L378.121 81.0114L379.033 80.4202V79.3334V75.5556V73.5556H377.033H322.123C309.243 73.5556 299.361 69.8891 292.717 63.7029C286.088 57.5301 282.467 48.6506 282.467 37.7778C282.467 26.905 286.088 18.0254 292.717 11.8526C299.361 5.66647 309.243 2 322.123 2H452.77C465.65 2 475.532 5.66647 482.176 11.8526C488.806 18.0254 492.426 26.905 492.426 37.7778C492.426 48.4337 487.078 57.4281 481.549 63.8633C478.798 67.065 476.043 69.5847 473.977 71.3023C472.945 72.16 472.089 72.8147 471.495 73.2515C471.199 73.4698 470.968 73.6334 470.815 73.7406C470.738 73.7941 470.681 73.8335 470.644 73.8586L470.605 73.8853L470.597 73.8902L470.597 73.8905L470.597 73.8908L470.596 73.8911L425.155 104.112Z" stroke="#BEC531" stroke-opacity="0.5" stroke-width="4"/>
<path d="M64.9541 175.203C60.6907 176.785 56.0644 177.644 51.2113 177.644C29.2136 177.644 11.3887 159.883 11.3887 137.966C11.3887 107.01 51.2113 68.1006 51.2113 68.1006C51.2113 68.1006 91.0338 106.603 91.0338 137.966C91.0338 148.179 87.1332 157.534 80.7833 164.583" stroke="#BEC531" stroke-opacity="0.5" stroke-width="4" stroke-miterlimit="10" stroke-linecap="round" stroke-linejoin="round"/>
<path d="M81.8718 203.176C92.4427 203.176 101.012 194.638 101.012 184.106C101.012 173.573 92.4427 165.035 81.8718 165.035C71.301 165.035 62.7316 173.573 62.7316 184.106C62.7316 194.638 71.301 203.176 81.8718 203.176Z" stroke="#BEC531" stroke-opacity="0.5" stroke-width="4" stroke-miterlimit="10" stroke-linecap="round" stroke-linejoin="round"/>
<path d="M118.111 106.422C152.4 116.364 177.029 143.614 177.029 175.7C177.029 216.191 137.841 249 89.537 249C41.2329 249 2 216.146 2 175.7C2 163.995 5.26563 152.924 11.1165 143.072" stroke="#BEC531" stroke-opacity="0.5" stroke-width="4" stroke-miterlimit="10" stroke-linecap="round" stroke-linejoin="round"/>
<path d="M132.807 106.468C173.854 117.856 203.653 152.065 203.653 192.466C203.653 213.887 195.262 233.545 181.292 249" stroke="#BEC531" stroke-opacity="0.5" stroke-width="4" stroke-miterlimit="10" stroke-linecap="round" stroke-linejoin="round"/>
<path d="M90.0812 146.597H138.159L116.478 105.202H127.908L110.038 71.0832H122.193L96.9754 23L71.7574 71.0832H83.9582L72.4378 93.0008" stroke="#BEC531" stroke-opacity="0.5" stroke-width="4" stroke-miterlimit="10" stroke-linecap="round" stroke-linejoin="round"/>
<path d="M51.2112 158.166V203.176" stroke="#BEC531" stroke-opacity="0.5" stroke-width="4" stroke-miterlimit="10" stroke-linecap="round" stroke-linejoin="round"/>
<path d="M96.9754 116.455V161.465" stroke="#BEC531" stroke-opacity="0.5" stroke-width="4" stroke-miterlimit="10" stroke-linecap="round" stroke-linejoin="round"/>
</svg>
