<svg width="23" height="83" viewBox="0 0 23 83" fill="none" xmlns="http://www.w3.org/2000/svg">
<path fill-rule="evenodd" clip-rule="evenodd" d="M6.82421 5.44502C5.27753 6.38252 3.44523 7.48529 0 7.48529V3.48529C2.3045 3.48529 3.3522 2.85022 4.67345 2.04935L4.68841 2.04028C6.23275 1.10419 8.06162 0 11.5 0C14.9452 0 16.7775 1.10278 18.3242 2.04027L18.3438 2.05214C19.6651 2.85309 20.7081 3.48529 23 3.48529V7.48529C19.5616 7.48529 17.7328 6.38111 16.1884 5.44502L16.1735 5.43595C14.8522 4.63507 13.8045 4 11.5 4C9.20807 4 8.16512 4.63221 6.84379 5.43315L6.82421 5.44502ZM6.82421 20.548C5.27753 21.4855 3.44523 22.5882 0 22.5882V18.5882C2.3045 18.5882 3.3522 17.9532 4.67345 17.1523L4.68841 17.1432C6.23275 16.2071 8.06162 15.1029 11.5 15.1029C14.9452 15.1029 16.7775 16.2057 18.3242 17.1432L18.3438 17.1551C19.6651 17.956 20.7081 18.5882 23 18.5882V22.5882C19.5616 22.5882 17.7328 21.484 16.1884 20.548L16.1735 20.5389C14.8522 19.738 13.8045 19.1029 11.5 19.1029C9.20808 19.1029 8.16512 19.7351 6.84379 20.5361L6.82421 20.548ZM6.82421 35.6509C5.27753 36.5884 3.44523 37.6912 0 37.6912V33.6912C2.3045 33.6912 3.3522 33.0561 4.67344 32.2552L4.68841 32.2462C6.23275 31.3101 8.06162 30.2059 11.5 30.2059C14.9452 30.2059 16.7775 31.3087 18.3242 32.2462L18.3438 32.258C19.6651 33.059 20.7081 33.6912 23 33.6912V37.6912C19.5616 37.6912 17.7328 36.587 16.1884 35.6509L16.1734 35.6418C14.8522 34.841 13.8045 34.2059 11.5 34.2059C9.20807 34.2059 8.16511 34.8381 6.84378 35.639L6.82421 35.6509ZM6.82421 50.7538C5.27753 51.6913 3.44523 52.7941 0 52.7941V48.7941C2.3045 48.7941 3.3522 48.159 4.67345 47.3582L4.68841 47.3491C6.23275 46.413 8.06162 45.3088 11.5 45.3088C14.9452 45.3088 16.7775 46.4116 18.3242 47.3491L18.3438 47.361C19.6651 48.1619 20.7081 48.7941 23 48.7941V52.7941C19.5616 52.7941 17.7328 51.6899 16.1884 50.7538L16.1734 50.7448C14.8522 49.9439 13.8045 49.3088 11.5 49.3088C9.20807 49.3088 8.16511 49.941 6.84378 50.742L6.82421 50.7538ZM6.82421 65.8568C5.27753 66.7943 3.44523 67.8971 0 67.8971V63.8971C2.3045 63.8971 3.3522 63.262 4.67345 62.4611L4.68841 62.452C6.23275 61.516 8.06162 60.4118 11.5 60.4118C14.9452 60.4118 16.7775 61.5145 18.3242 62.452L18.3438 62.4639C19.6651 63.2649 20.7081 63.8971 23 63.8971V67.8971C19.5616 67.8971 17.7328 66.7929 16.1884 65.8568L16.1734 65.8477C14.8522 65.0468 13.8045 64.4118 11.5 64.4118C9.20807 64.4118 8.16511 65.044 6.84378 65.8449L6.82421 65.8568ZM6.82421 80.9597C5.27753 81.8972 3.44523 82.9999 0 82.9999V78.9999C2.3045 78.9999 3.35221 78.3649 4.67345 77.564L4.68841 77.5549C6.23275 76.6188 8.06162 75.5146 11.5 75.5146C14.9452 75.5146 16.7775 76.6174 18.3242 77.5549L18.3438 77.5668C19.6651 78.3677 20.7081 78.9999 23 78.9999V82.9999C19.5616 82.9999 17.7328 81.8958 16.1884 80.9597L16.1735 80.9506C14.8522 80.1497 13.8045 79.5146 11.5 79.5146C9.20807 79.5146 8.16511 80.1469 6.84378 80.9478L6.82421 80.9597Z" fill="#7A8C25"/>
</svg>
